<?xml version="1.0" encoding="utf-8"?>
<!-- Generator: Adobe Illustrator 21.0.2, SVG Export Plug-In . SVG Version: 6.00 Build 0)  -->
<svg version="1.1" id="Layer_1" xmlns="http://www.w3.org/2000/svg" xmlns:xlink="http://www.w3.org/1999/xlink" x="0px" y="0px"
	 viewBox="0 0 1500 828" style="enable-background:new 0 0 1500 828;" xml:space="preserve">
<style type="text/css">
	.st0{fill:#E9EDEF;}
	.st1{fill:#7B1941;}
	.st2{fill:#DDC424;}
</style>
<g id="Background">
</g>
<g id="Pattern">
</g>
<path class="st0" d="M1490,828H10c-5.5,0-10-4.5-10-10V10C0,4.5,4.5,0,10,0h1480c5.5,0,10,4.5,10,10v808
	C1500,823.5,1495.5,828,1490,828z"/>
<g>
	<path class="st1" d="M242.3,545.9H233v-64.7h-76.8v64.7H147V414.3h9.2v58.3H233v-58.3h9.3L242.3,545.9L242.3,545.9z"/>
	<path class="st1" d="M345.9,496.8c0,15.9-3.9,28.4-11.6,37.4c-7.7,9-18.3,13.4-32,13.4c-8.6,0-16.1-2.1-22.7-6.2
		c-6.5-4.2-11.6-10.1-15-17.7s-5.3-16.7-5.3-26.8c0-15.9,3.9-28.4,11.6-37.3c7.7-8.9,18.3-13.4,31.9-13.4c13.4,0,23.9,4.5,31.6,13.5
		C342.2,468.7,345.9,481.2,345.9,496.8z M268.8,496.8c0,13.4,3,23.9,8.9,31.4c5.9,7.5,14.3,11.3,25.1,11.3
		c10.8,0,19.1-3.8,25.1-11.3c5.9-7.5,8.9-18,8.9-31.4c0-13.5-3-23.9-9-31.4c-6-7.4-14.3-11.1-25.1-11.1c-10.8,0-19.1,3.8-25,11.1
		C271.7,472.8,268.8,483.3,268.8,496.8z"/>
	<path class="st1" d="M406.4,547.7c-15,0-26-5.6-32.9-16.8h-0.6l0.3,7.5c0.3,4.5,0.3,9.3,0.3,14.6v37.3h-8.9V448.1h7.5l1.7,14h0.6
		c6.8-10.5,17.4-15.8,32.2-15.8c13.2,0,23.3,4.4,30.2,12.9c6.9,8.7,10.4,21.2,10.4,37.9c0,16.1-3.6,28.6-11,37.4
		C429,543.3,419,547.7,406.4,547.7z M406.2,539.7c10.1,0,17.7-3.8,23.3-11.1c5.4-7.4,8.3-17.9,8.3-31.3c0-28.7-10.4-43.2-31.1-43.2
		c-11.4,0-19.7,3.2-25.1,9.5c-5.3,6.3-8,16.5-8,30.7v2.9c0,15.3,2.6,26.2,7.7,32.8C386.2,536.5,394.7,539.7,406.2,539.7z"/>
	<path class="st1" d="M509,547.7c-14.3,0-25.3-4.4-33.2-13.1c-8-8.7-11.9-21.1-11.9-36.8c0-15.6,3.9-28.1,11.6-37.4
		c7.7-9.3,18-14.1,31-14.1c11.6,0,20.6,4.1,27.2,12c6.6,8,9.9,18.9,9.9,32.8v7.2h-70.4c0.2,13.4,3.3,23.8,9.5,30.8
		c6.2,7.1,14.9,10.7,26.5,10.7c5.6,0,10.5-0.5,14.7-1.2c4.2-0.8,9.6-2.4,16.1-5.1v8.1c-5.6,2.4-10.7,4.1-15.3,5
		C519.8,547.2,514.5,547.7,509,547.7z M506.4,454.1c-9.5,0-17,3.2-22.7,9.3s-9,15.2-9.9,26.9h60.5c0-11.3-2.4-20.2-7.4-26.6
		C521.9,457.3,515,454.1,506.4,454.1z"/>
	<path class="st1" d="M646.1,512c0,11-4.1,19.7-12,26c-8.1,6.5-18.8,9.6-32.2,9.6c-16.1,0-28.4-1.8-37-5.3v-9.2
		c9.5,4.1,21.5,6,36.2,6c10.8,0,19.4-2.4,25.7-7.4c6.3-5,9.5-11.4,9.5-19.5c0-5-1.1-9.2-3.2-12.3c-2.1-3.3-5.6-6.3-10.2-9
		s-11.7-5.6-20.9-8.7c-13.4-4.7-22.7-9.6-27.8-15c-5.1-5.4-7.7-12.5-7.7-21.5c0-9.8,3.9-17.9,11.6-24.1c7.7-6.2,17.6-9.3,29.8-9.3
		c12.3,0,23.9,2.4,34.9,7.1l-3.3,8c-11-4.5-21.4-6.8-31.3-6.8c-9.8,0-17.4,2.3-23.2,6.8c-5.7,4.5-8.6,10.7-8.6,18.3
		c0,4.8,0.9,8.9,2.7,12s4.7,5.9,8.7,8.4s11,5.4,20.8,9c10.2,3.6,17.9,6.9,23.2,10.2c5.1,3.3,8.9,7.1,11.3,11.3
		C644.9,500.9,646.1,506,646.1,512z"/>
	<path class="st1" d="M747.6,496.8c0,15.9-3.9,28.4-11.6,37.4c-7.7,9-18.3,13.4-32,13.4c-8.6,0-16.1-2.1-22.7-6.2
		s-11.6-10.1-15-17.7c-3.5-7.7-5.3-16.7-5.3-26.8c0-15.9,3.9-28.4,11.6-37.3c7.7-8.9,18.3-13.4,31.9-13.4c13.4,0,23.9,4.5,31.6,13.5
		C743.8,468.7,747.6,481.2,747.6,496.8z M670.5,496.8c0,13.4,3,23.9,8.9,31.4c5.9,7.5,14.3,11.3,25.1,11.3
		c10.8,0,19.1-3.8,25.1-11.3c5.9-7.5,8.9-18,8.9-31.4c0-13.5-3-23.9-9-31.4c-6-7.5-14.3-11.1-25.1-11.1c-10.8,0-19.1,3.8-25,11.1
		C673.5,472.8,670.5,483.3,670.5,496.8z"/>
	<path class="st1" d="M774.1,448.1v63.3c0,9.8,2.1,17,6.2,21.5c4.2,4.5,10.5,6.8,19.2,6.8c11.6,0,20.2-3,25.7-8.9
		c5.4-5.9,8.3-15.5,8.3-28.7v-54h8.9v97.7h-7.5l-1.7-13.5h-0.6c-6.3,10.2-17.6,15.3-34,15.3c-22.3,0-33.4-11.9-33.4-35.6v-63.9
		H774.1z"/>
	<path class="st1" d="M901.3,446.2c4.2,0,8.6,0.5,13.4,1.2l-1.7,8.6c-4.1-1.1-8.3-1.5-12.6-1.5c-8.3,0-15.2,3.6-20.5,10.7
		c-5.3,7.1-8,15.9-8,26.8v54h-9.2v-97.7h7.5l0.9,17.6h0.6c4.1-7.2,8.3-12.2,12.9-15.2C889.2,447.7,894.8,446.2,901.3,446.2z"/>
	<path class="st1" d="M965,547.7c-14,0-25-4.4-32.8-13.2c-8-8.9-11.9-21.1-11.9-36.8c0-16.2,4.1-28.9,12.3-37.9
		c8.3-9,19.4-13.5,33.7-13.5c8.4,0,16.5,1.5,24.4,4.4l-2.4,8c-8.4-2.9-15.8-4.2-22.1-4.2c-12,0-21.1,3.8-27.2,11.1
		c-6.2,7.4-9.3,18-9.3,32c0,13.2,3.2,23.5,9.3,31c6.2,7.5,14.9,11.1,25.9,11.1c8.9,0,17.1-1.7,24.8-4.8v8.3
		C983.4,546.2,975.1,547.7,965,547.7z"/>
	<path class="st1" d="M1048.2,547.7c-14.3,0-25.3-4.4-33.2-13.1c-8-8.7-11.9-21.1-11.9-36.8c0-15.6,3.9-28.1,11.6-37.4
		c7.7-9.3,18-14.1,31-14.1c11.6,0,20.6,4.1,27.2,12c6.6,8,9.9,18.9,9.9,32.8v7.2h-70.4c0.2,13.4,3.3,23.8,9.5,30.8
		c6.2,7.1,14.9,10.7,26.5,10.7c5.6,0,10.5-0.5,14.7-1.2c4.2-0.8,9.6-2.4,16.1-5.1v8.1c-5.6,2.4-10.7,4.1-15.3,5
		C1059,547.2,1053.9,547.7,1048.2,547.7z M1045.6,454.1c-9.5,0-17,3.2-22.7,9.3c-5.7,6.2-9,15.2-9.9,26.9h60.5
		c0-11.3-2.4-20.2-7.4-26.6C1061.1,457.3,1054.4,454.1,1045.6,454.1z"/>
	<g>
		<polygon class="st1" points="1342.2,543.3 1159.6,360.7 1117.1,403.3 1111.6,397.9 1159.6,349.9 1353,543.3 		"/>
	</g>
	<g>
		<polygon class="st1" points="1214.1,543.3 984.9,314.1 895.1,403.9 884.3,403.9 984.9,303.3 1224.9,543.3 		"/>
	</g>
	<path class="st2" d="M963.8,237.9c-62.4,0-113.2,50.8-113.2,113.2c0,6,0.5,12,1.4,18l0.8-0.2l6.2-6.2c-0.5-3.9-0.8-7.8-0.8-11.7
		c0-58.2,47.4-105.6,105.6-105.6c49.8,0,93.2,35.2,103.3,83.9l6.3-6.3C1060.8,273.4,1015.6,237.9,963.8,237.9z"/>
</g>
</svg>
