<?xml version="1.0" encoding="utf-8"?>
<!-- Generator: Adobe Illustrator 21.0.2, SVG Export Plug-In . SVG Version: 6.00 Build 0)  -->
<svg version="1.1" id="Layer_1" xmlns="http://www.w3.org/2000/svg" xmlns:xlink="http://www.w3.org/1999/xlink" x="0px" y="0px"
	 viewBox="0 0 223 65.1" style="enable-background:new 0 0 223 65.1;" xml:space="preserve">
<style type="text/css">
	.st0{fill:#F2F2F2;}
	.st1{fill:#DDC424;}
</style>
<g>
	<path class="st0" d="M17.6,57h-1.7V45H1.7v12H0V32.6h1.7v10.8h14.2V32.6h1.7V57z"/>
	<path class="st0" d="M36.8,47.9c0,2.9-0.7,5.3-2.1,6.9c-1.4,1.7-3.4,2.5-5.9,2.5c-1.6,0-3-0.4-4.2-1.1c-1.2-0.8-2.1-1.9-2.8-3.3
		c-0.6-1.4-1-3.1-1-5c0-2.9,0.7-5.2,2.1-6.9c1.4-1.6,3.4-2.5,5.9-2.5s4.4,0.8,5.8,2.5C36.1,42.7,36.8,45,36.8,47.9z M22.5,47.9
		c0,2.5,0.5,4.4,1.6,5.8s2.6,2.1,4.6,2.1s3.5-0.7,4.6-2.1s1.6-3.3,1.6-5.8s-0.6-4.4-1.7-5.8S30.8,40,28.8,40s-3.5,0.7-4.6,2.1
		C23.1,43.5,22.5,45.4,22.5,47.9z"/>
	<path class="st0" d="M48,57.3c-2.8,0-4.8-1-6.1-3.1h-0.1v1.4c0,0.8,0.1,1.7,0.1,2.7v6.9h-1.6V38.9h1.4l0.3,2.6h0
		c1.2-2,3.2-2.9,6-2.9c2.4,0,4.3,0.8,5.6,2.4c1.3,1.6,1.9,3.9,1.9,7c0,3-0.7,5.3-2,6.9C52.1,56.5,50.3,57.3,48,57.3z M47.9,55.8
		c1.9,0,3.3-0.7,4.3-2.1s1.5-3.3,1.5-5.8c0-5.3-1.9-8-5.8-8c-2.1,0-3.7,0.6-4.6,1.7c-1,1.2-1.5,3-1.5,5.7V48c0,2.8,0.5,4.8,1.4,6.1
		C44.2,55.2,45.8,55.8,47.9,55.8z"/>
	<path class="st0" d="M66.9,57.3c-2.6,0-4.7-0.8-6.1-2.4c-1.5-1.6-2.2-3.9-2.2-6.8c0-2.9,0.7-5.2,2.1-6.9c1.4-1.7,3.3-2.6,5.7-2.6
		c2.1,0,3.8,0.7,5,2.2s1.8,3.5,1.8,6.1v1.3h-13c0,2.5,0.6,4.4,1.7,5.7s2.8,2,4.9,2c1,0,1.9-0.1,2.7-0.2c0.8-0.1,1.8-0.5,3-0.9v1.5
		c-1,0.4-2,0.7-2.8,0.9S68,57.3,66.9,57.3z M66.4,40c-1.7,0-3.1,0.6-4.2,1.7c-1.1,1.1-1.7,2.8-1.8,5h11.2c0-2.1-0.5-3.7-1.4-4.9
		C69.3,40.6,68.1,40,66.4,40z"/>
	<path class="st0" d="M92.3,50.7c0,2-0.7,3.6-2.2,4.8s-3.5,1.8-5.9,1.8c-3,0-5.3-0.3-6.8-1v-1.7c1.8,0.7,4,1.1,6.7,1.1
		c2,0,3.6-0.5,4.7-1.4c1.2-0.9,1.8-2.1,1.8-3.6c0-0.9-0.2-1.7-0.6-2.3s-1-1.2-1.9-1.7s-2.2-1-3.9-1.6c-2.5-0.9-4.2-1.8-5.1-2.8
		s-1.4-2.3-1.4-4c0-1.8,0.7-3.3,2.1-4.4c1.4-1.1,3.3-1.7,5.5-1.7c2.3,0,4.4,0.4,6.4,1.3L91,35.1c-2-0.8-3.9-1.3-5.8-1.3
		c-1.8,0-3.2,0.4-4.3,1.2c-1.1,0.8-1.6,2-1.6,3.4c0,0.9,0.2,1.6,0.5,2.2c0.3,0.6,0.9,1.1,1.6,1.6s2,1,3.8,1.7
		c1.9,0.7,3.3,1.3,4.3,1.9s1.6,1.3,2.1,2.1C92.1,48.6,92.3,49.6,92.3,50.7z"/>
	<path class="st0" d="M111.1,47.9c0,2.9-0.7,5.3-2.1,6.9c-1.4,1.7-3.4,2.5-5.9,2.5c-1.6,0-3-0.4-4.2-1.1s-2.1-1.9-2.8-3.3
		c-0.6-1.4-1-3.1-1-5c0-2.9,0.7-5.2,2.1-6.9c1.4-1.6,3.4-2.5,5.9-2.5s4.4,0.8,5.8,2.5C110.4,42.7,111.1,45,111.1,47.9z M96.8,47.9
		c0,2.5,0.5,4.4,1.6,5.8s2.6,2.1,4.6,2.1s3.5-0.7,4.6-2.1s1.6-3.3,1.6-5.8s-0.6-4.4-1.7-5.8c-1.1-1.4-2.7-2.1-4.6-2.1
		c-2,0-3.5,0.7-4.6,2.1C97.3,43.5,96.8,45.4,96.8,47.9z"/>
	<path class="st0" d="M115.9,38.9v11.7c0,1.8,0.4,3.1,1.1,4c0.8,0.8,2,1.2,3.6,1.2c2.2,0,3.7-0.5,4.7-1.6s1.5-2.9,1.5-5.3v-10h1.6
		V57H127l-0.3-2.5h-0.1c-1.2,1.9-3.3,2.8-6.3,2.8c-4.1,0-6.2-2.2-6.2-6.6V38.9H115.9z"/>
	<path class="st0" d="M139.5,38.5c0.8,0,1.6,0.1,2.5,0.2l-0.3,1.6c-0.8-0.2-1.5-0.3-2.3-0.3c-1.5,0-2.8,0.7-3.8,2s-1.5,3-1.5,5v10
		h-1.6V38.9h1.4l0.2,3.3h0.1c0.7-1.3,1.5-2.3,2.4-2.8S138.3,38.5,139.5,38.5z"/>
	<path class="st0" d="M151.3,57.3c-2.6,0-4.6-0.8-6.1-2.4s-2.2-4-2.2-6.9c0-3,0.8-5.3,2.3-7s3.6-2.5,6.2-2.5c1.6,0,3.1,0.3,4.5,0.8
		l-0.4,1.5c-1.6-0.5-2.9-0.8-4.1-0.8c-2.2,0-3.9,0.7-5,2.1c-1.1,1.4-1.7,3.3-1.7,5.9c0,2.4,0.6,4.3,1.7,5.7c1.1,1.4,2.7,2.1,4.8,2.1
		c1.6,0,3.2-0.3,4.6-0.9v1.5C154.7,57,153.1,57.3,151.3,57.3z"/>
	<path class="st0" d="M166.6,57.3c-2.6,0-4.7-0.8-6.1-2.4c-1.5-1.6-2.2-3.9-2.2-6.8c0-2.9,0.7-5.2,2.1-6.9c1.4-1.7,3.3-2.6,5.7-2.6
		c2.1,0,3.8,0.7,5,2.2s1.8,3.5,1.8,6.1v1.3h-13c0,2.5,0.6,4.4,1.7,5.7c1.1,1.3,2.8,2,4.9,2c1,0,1.9-0.1,2.7-0.2
		c0.8-0.1,1.8-0.5,3-0.9v1.5c-1,0.4-2,0.7-2.8,0.9S167.7,57.3,166.6,57.3z M166.2,40c-1.7,0-3.1,0.6-4.2,1.7s-1.7,2.8-1.8,5h11.2
		c0-2.1-0.5-3.7-1.4-4.9C169,40.6,167.8,40,166.2,40z"/>
	<g>
		<polygon class="st0" points="221,56.5 187.2,22.7 179.4,30.6 178.4,29.6 187.2,20.7 223,56.5 		"/>
	</g>
	<g>
		<polygon class="st0" points="197.3,56.5 154.9,14.1 138.3,30.7 136.3,30.7 154.9,12.1 199.3,56.5 		"/>
	</g>
	<path class="st1" d="M151,0c-11.6,0-21,9.4-21,21c0,1.1,0.1,2.2,0.3,3.3h0.1l1.1-1.1c-0.1-0.7-0.1-1.4-0.1-2.2
		c0-10.8,8.8-19.5,19.5-19.5c9.2,0,17.2,6.5,19.1,15.5l1.2-1.2C169,6.6,160.6,0,151,0z"/>
</g>
</svg>
