<?xml version="1.0" encoding="UTF-8"?>
<svg id="svg17593" xmlns="http://www.w3.org/2000/svg" version="1.1" xmlns:cc="http://creativecommons.org/ns#" xmlns:dc="http://purl.org/dc/elements/1.1/" xmlns:rdf="http://www.w3.org/1999/02/22-rdf-syntax-ns#" xmlns:svg="http://www.w3.org/2000/svg" viewBox="0 0 240 44.86">
  <!-- Generator: Adobe Illustrator 29.8.4, SVG Export Plug-In . SVG Version: 2.1.1 Build 6)  -->
  <defs>
    <style>
      .st0 {
        fill: #fff;
      }

      .st1 {
        fill: #f90;
      }
    </style>
  </defs>
  <path id="path5626" class="st1" d="M189.94,19.73v-3.42c0-1.48-.19-2.99-.95-4.26-.88-1.46-2.44-2.34-3.98-2.4-1.54.07-2.83,1.18-3.6,2.7-.84,1.69-1.1,3.63-1.1,5.57,0,3.45.78,8.62,4.61,8.77,1.58-.07,3.01-1.1,3.92-2.57.88-1.39,1.1-2.78,1.1-4.39M192.45,29.01h-1.58c-.33,0-.68-.29-.68-.62v-2.62c-1.18,2.35-2.95,3.65-5.7,3.65s-4.48-1.35-5.83-3.63c-1.28-2.2-1.75-4.9-1.75-7.51,0-5.36,2.15-11.26,7.83-11.26,2.46,0,3.94,1.1,5.2,2.94V.68c0-.33.34-.62.67-.62h1.83c.34,0,.68.29.68.62v27.72c0,.32-.33.61-.67.61"/>
  <path id="path5630" class="st1" d="M213,29.43c-5.55,0-8.03-5.62-8.03-11.25,0-5.92,2.92-11.04,8.51-11.04h.3c5.44,0,8.14,5.46,8.14,11.08,0,5.96-2.99,11.21-8.61,11.21h-.3,0ZM213.41,26.7c1.83-.06,3.26-1.18,4.12-3.06.77-1.68.91-3.61.91-5.46,0-2.02-.22-4.12-1.17-5.84-.85-1.5-2.32-2.46-3.87-2.52-1.73.06-3.27,1.23-4.05,3.02-.69,1.55-.91,3.61-.91,5.33,0,1.93.25,4.15,1.06,5.84.78,1.59,2.29,2.63,3.91,2.68"/>
  <path id="path5634" class="st1" d="M236.06,12.59c.13.3.46.52.79.44l1.68-.41c.33-.08.61-.44.51-.76-1.1-3.51-3.97-4.8-7.32-4.79-3.7.02-7.1,1.85-7.1,6.27,0,3.79,2.59,5.31,5.43,5.94l3.02.63c1.6.33,3.61.97,3.61,3.24,0,2.66-2.37,3.49-4.31,3.53-2.06-.05-4.65-1.02-5.3-3.46-.08-.32-.45-.53-.78-.45l-1.76.4c-.33.08-.6.44-.52.75.98,3.86,4.48,5.48,8.13,5.51,3.85.03,7.85-1.77,7.85-6.61,0-1.94-.77-3.71-2.22-4.84-1.13-.89-2.52-1.18-3.86-1.48l-2.7-.55c-1.64-.29-3.31-.8-3.31-3.11s2.12-3.07,3.77-3.11c1.89.05,3.55.92,4.38,2.86"/>
  <path id="path5638" class="st1" d="M197.57,1.86C197.57.83,198.45,0,199.53,0s1.97.83,1.97,1.86-.88,1.85-1.97,1.85-1.97-.83-1.97-1.85M200.47,28.89h-1.86c-.34,0-.68-.29-.68-.61V8.11c0-.33.35-.62.68-.62h1.85c.34,0,.68.29.68.62v20.17c0,.32-.33.61-.67.61"/>
  <path id="path5642" class="st1" d="M173.33,29.01h-1.58c-.33,0-.68-.29-.68-.62v-2.99c-1.1,2.33-2.88,4.02-5.63,4.02-2.14,0-3.74-.76-4.91-2.41-1.25-1.78-1.47-4.23-1.47-6.43v-12.45c0-.33.34-.62.68-.62h1.84c.34,0,.68.29.68.62v12.45c0,1.23.08,2.83.63,3.93.52,1.14,1.72,2.03,2.86,2.03,1.18,0,2.7-.86,3.65-2.2,1.14-1.61,1.43-3.38,1.43-5.42v-10.82c0-.31.34-.6.68-.6h1.83c.34,0,.68.31.68.62v20.25c0,.33-.34.62-.68.62"/>
  <path id="path5646" class="st1" d="M141.59,12.59c.13.3.46.52.79.44l1.68-.41c.33-.08.61-.45.51-.76-1.1-3.51-3.97-4.8-7.32-4.79-3.7.02-7.1,1.85-7.1,6.27,0,3.79,2.59,5.31,5.43,5.93l3.02.63c1.6.33,3.61.97,3.61,3.24,0,2.66-2.37,3.49-4.31,3.53-2.06-.05-4.65-1.02-5.31-3.46-.07-.32-.45-.53-.78-.45l-1.76.4c-.33.08-.6.44-.52.75.98,3.86,4.48,5.48,8.13,5.51,3.85.03,7.85-1.77,7.85-6.61,0-1.94-.76-3.71-2.22-4.84-1.13-.88-2.51-1.18-3.86-1.47l-2.69-.55c-1.64-.29-3.32-.8-3.32-3.11s2.12-3.07,3.78-3.11c1.89.05,3.55.92,4.38,2.86"/>
  <path id="path5650" class="st1" d="M146.46,10.06h2.62v12.38c0,4.25,1.2,6.99,5.29,6.99h.28l2.1-.19c.32-.04.62-.32.62-.65v-1.32c0-.34-.28-.7-.61-.67l-1.84.18c-2.11-.1-2.68-1.4-2.68-3.78v-12.93h3.49c.33,0,.62-.32.62-.65v-1.31c0-.34-.3-.65-.62-.65h-3.49V2.46c0-.32-.33-.66-.66-.62l-1.83.22c-.35.04-.68.29-.68.62v4.77h-2.66c-.33,0-.6.33-.6.66l-.02,1.29c0,.33.33.67.65.67"/>
  <path id="path5654" class="st1" d="M78.2,36.59c-7.32,5.4-17.94,8.27-27.08,8.27-12.82,0-24.35-4.73-33.08-12.61-.69-.62-.08-1.46.75-.98,9.42,5.47,21.07,8.77,33.1,8.77,8.12,0,17.05-1.68,25.26-5.16,1.24-.52,2.28.82,1.06,1.71"/>
  <path id="path5658" class="st1" d="M81.26,33.11c-.95-1.19-6.2-.57-8.56-.28-.72.09-.83-.54-.19-.99,4.2-2.94,11.06-2.1,11.87-1.11.8.99-.21,7.86-4.15,11.15-.6.5-1.18.23-.91-.43.89-2.21,2.87-7.15,1.93-8.35"/>
  <path id="path5662" class="st0" d="M72.87,11.06v-2.86c0-.43.33-.73.72-.73h12.83c.41,0,.74.3.74.73v2.44c0,.42-.35.95-.97,1.8l-6.64,9.47c2.47-.06,5.07.31,7.31,1.57.51.28.65.7.68,1.12v3.04c0,.42-.46.91-.94.65-3.94-2.06-9.18-2.29-13.55.03-.44.24-.91-.24-.91-.66v-2.9c0-.46,0-1.25.48-1.96l7.7-11.03h-6.7c-.41,0-.74-.29-.74-.72"/>
  <path id="path5666" class="st0" d="M26.09,28.91h-3.91c-.37-.02-.67-.3-.7-.65V8.26c0-.4.34-.72.76-.72h3.63c.38.02.69.31.71.67v2.61h.08c.94-2.53,2.73-3.7,5.13-3.7s3.97,1.18,5.06,3.7c.95-2.53,3.1-3.7,5.39-3.7,1.64,0,3.43.67,4.52,2.19,1.23,1.68.99,4.12.99,6.27v12.62c0,.41-.34.72-.76.72h-3.9c-.39-.02-.7-.33-.7-.72v-10.6c0-.85.07-2.94-.11-3.75-.3-1.34-1.16-1.72-2.3-1.72-.95,0-1.93.63-2.33,1.64-.4,1.01-.36,2.69-.36,3.83v10.6c0,.41-.34.72-.76.72h-3.9c-.39-.02-.7-.33-.7-.72v-10.6c0-2.23.36-5.51-2.41-5.51s-2.7,3.2-2.7,5.51v10.6c0,.41-.33.72-.75.72"/>
  <path id="path5670" class="st0" d="M98.23,11.19c-2.88,0-3.06,3.92-3.06,6.36s-.03,7.66,3.02,7.66,3.17-4.21,3.17-6.78c0-1.68-.07-3.7-.58-5.3-.44-1.39-1.31-1.94-2.55-1.94M98.2,7.12c5.79,0,8.92,4.96,8.92,11.27s-3.46,10.94-8.92,10.94-8.78-4.96-8.78-11.15,3.13-11.07,8.78-11.07"/>
  <path id="path5674" class="st0" d="M114.63,28.91h-3.89c-.39-.02-.7-.33-.7-.72V8.19c.03-.37.35-.65.74-.65h3.62c.34.02.62.25.7.56v3.06h.07c1.1-2.74,2.62-4.04,5.32-4.04,1.75,0,3.46.63,4.55,2.35,1.02,1.61,1.02,4.3,1.02,6.23v12.58c-.04.36-.37.63-.75.63h-3.92c-.36-.02-.65-.29-.69-.63v-10.86c0-2.19.26-5.39-2.44-5.39-.95,0-1.82.63-2.26,1.6-.55,1.22-.62,2.44-.62,3.79v10.77c0,.41-.34.72-.76.72"/>
  <path id="path5678" class="st0" d="M18.44,25.25c-.71-.98-1.47-1.79-1.47-3.61v-6.07c0-2.57.18-4.93-1.72-6.7-1.49-1.43-3.97-1.94-5.87-1.94-3.71,0-7.86,1.39-8.73,5.96-.09.49.26.74.58.82l3.79.41c.35-.02.6-.36.67-.72.32-1.57,1.65-2.33,3.14-2.33.8,0,1.71.3,2.19,1.01.54.8.48,1.9.48,2.82v.51c-2.26.25-5.22.43-7.34,1.35C1.72,17.8,0,19.95,0,23.12,0,27.17,2.55,29.19,5.84,29.19c2.77,0,4.29-.65,6.43-2.83.71,1.02.94,1.52,2.24,2.6.29.16.66.14.92-.09h0c.77-.68,2.19-1.92,2.99-2.59.32-.25.25-.68,0-1.03M11.5,19.35c0,1.52.03,2.78-.73,4.14-.62,1.1-1.61,1.77-2.7,1.77-1.5,0-2.37-1.13-2.37-2.82,0-3.31,2.98-3.92,5.81-3.92v.84h0Z"/>
  <path id="path5682" class="st0" d="M69.59,25.25c-.71-.98-1.47-1.79-1.47-3.61v-6.07c0-2.57.19-4.93-1.71-6.7-1.5-1.43-3.98-1.94-5.88-1.94-3.71,0-7.86,1.39-8.72,5.96-.09.49.26.74.59.82l3.78.41c.35-.02.61-.36.67-.72.33-1.57,1.65-2.33,3.14-2.33.8,0,1.71.3,2.19,1.01.55.8.48,1.9.48,2.82v.51c-2.26.25-5.22.43-7.34,1.35-2.44,1.06-4.16,3.21-4.16,6.37,0,4.05,2.55,6.07,5.84,6.07,2.78,0,4.29-.65,6.43-2.83.71,1.02.95,1.52,2.24,2.6.29.16.67.14.92-.09h0c.78-.68,2.2-1.92,3-2.59.31-.25.25-.68,0-1.03M62.64,19.35c0,1.52.03,2.78-.73,4.14-.62,1.1-1.6,1.77-2.7,1.77-1.5,0-2.38-1.13-2.38-2.82,0-3.31,2.98-3.92,5.8-3.92v.84h0Z"/>
</svg>