<?xml version="1.0" encoding="utf-8"?>
<!-- Generator: Adobe Illustrator 21.0.2, SVG Export Plug-In . SVG Version: 6.00 Build 0)  -->
<svg version="1.1" id="Layer_1" xmlns="http://www.w3.org/2000/svg" xmlns:xlink="http://www.w3.org/1999/xlink" x="0px" y="0px"
	 viewBox="0 0 800 151" style="enable-background:new 0 0 800 151;" xml:space="preserve">
<style type="text/css">
	.st0{fill:#FF9900;}
	.st1{fill:#FFFFFF;}
</style>
<path class="st0" d="M634,66.4V54.9c0-5-0.6-10.1-3.2-14.3c-2.9-4.9-8.1-7.9-13.3-8.1c-5.1,0.2-9.4,4-12,9.1
	c-2.8,5.7-3.7,12.2-3.7,18.7c0,11.6,2.6,29,15.4,29.5c5.3-0.2,10.1-3.7,13.1-8.7C633.2,76.5,634,71.8,634,66.4z M642.4,97.6h-5.3
	c-1.1,0-2.3-1-2.3-2.1v-8.8c-4,7.9-9.9,12.3-19.1,12.3c-9.1,0-15-4.5-19.5-12.2c-4.3-7.4-5.9-16.5-5.9-25.3c0-18,7.2-37.9,26.2-37.9
	c8.2,0,13.2,3.7,17.4,9.9V2.3c0-1.1,1.1-2.1,2.2-2.1h6.1c1.1,0,2.3,1,2.3,2.1v93.3C644.6,96.6,643.5,97.6,642.4,97.6z"/>
<path class="st0" d="M711.1,99c-18.5,0-26.8-18.9-26.8-37.8c0-19.9,9.8-37.2,28.4-37.2h0.5h0.5c18.2,0,27.2,18.4,27.2,37.3
	c0,20.1-10,37.7-28.8,37.7h-0.5H711.1z M712.4,89.8c6.1-0.2,10.9-4,13.8-10.3c2.6-5.6,3.1-12.1,3.1-18.4c0-6.8-0.7-13.8-3.9-19.6
	c-2.8-5.1-7.7-8.3-12.9-8.5c-5.8,0.2-10.9,4.1-13.5,10.2c-2.3,5.2-3.1,12.1-3.1,17.9c0,6.5,0.9,14,3.5,19.6
	C702,86.2,707,89.7,712.4,89.8z"/>
<path class="st0" d="M788.2,42.3c0.4,1,1.5,1.8,2.6,1.5l5.6-1.4c1.1-0.3,2-1.5,1.7-2.5c-3.7-11.8-13.3-16.2-24.5-16.1
	c-12.4,0-23.7,6.2-23.7,21.1c0,12.7,8.6,17.8,18.1,20l10.1,2.1c5.4,1.1,12.1,3.3,12.1,10.9c0,8.9-7.9,11.7-14.4,11.9
	c-6.9-0.2-15.6-3.4-17.7-11.7c-0.3-1.1-1.5-1.8-2.6-1.5l-5.9,1.3c-1.1,0.3-2,1.5-1.7,2.5c3.3,13,15,18.4,27.2,18.5
	C788,99,801.4,93,801.4,76.7c0-6.5-2.6-12.5-7.4-16.3c-3.8-3-8.4-4-12.9-5l-9-1.8c-5.5-1-11.1-2.7-11.1-10.5
	c0-7.7,7.1-10.3,12.6-10.5C779.8,32.9,785.4,35.8,788.2,42.3z"/>
<path class="st0" d="M659.5,6.2c0-3.5,2.9-6.2,6.6-6.2c3.6,0,6.6,2.8,6.6,6.2s-2.9,6.2-6.6,6.2C662.4,12.5,659.5,9.7,659.5,6.2z
	 M669.2,97.2H663c-1.1,0-2.3-1-2.3-2.1V27.3c0-1.1,1.1-2.1,2.3-2.1h6.2c1.1,0,2.3,1,2.3,2.1v67.9C671.4,96.2,670.3,97.2,669.2,97.2z
	"/>
<path class="st0" d="M578.4,97.6h-5.3c-1.1,0-2.3-1-2.3-2.1v-10C567.1,93.3,561.2,99,552,99c-7.1,0-12.5-2.6-16.4-8.1
	c-4.2-6-4.9-14.2-4.9-21.6V27.4c0-1.1,1.1-2.1,2.3-2.1h6.1c1.1,0,2.3,1,2.3,2.1v41.9c0,4.1,0.2,9.5,2.1,13.2
	c1.8,3.8,5.8,6.8,9.5,6.8c3.9,0,9-2.9,12.2-7.4c3.8-5.4,4.8-11.4,4.8-18.2V27.3c0-1,1.1-2,2.3-2h6.1c1.1,0,2.3,1,2.3,2.1v68.1
	C580.7,96.6,579.6,97.6,578.4,97.6z"/>
<path class="st0" d="M472.3,42.3c0.4,1,1.5,1.8,2.6,1.5l5.6-1.4c1.1-0.3,2-1.5,1.7-2.5c-3.7-11.8-13.3-16.2-24.5-16.1
	c-12.4,0-23.7,6.2-23.7,21.1c0,12.7,8.6,17.8,18.1,20l10.1,2.1c5.4,1.1,12.1,3.3,12.1,10.9c0,8.9-7.9,11.7-14.4,11.9
	c-6.9-0.2-15.6-3.4-17.7-11.7c-0.3-1.1-1.5-1.8-2.6-1.5l-5.9,1.3c-1.1,0.3-2,1.5-1.7,2.5c3.3,13,15,18.4,27.2,18.5
	c12.9,0.1,26.2-5.9,26.2-22.2c0-6.5-2.6-12.5-7.4-16.3c-3.8-3-8.4-4-12.9-5l-9-1.8c-5.5-1-11.1-2.7-11.1-10.5
	c0-7.7,7.1-10.3,12.6-10.5C464,32.9,469.6,35.8,472.3,42.3z"/>
<path class="st0" d="M488.6,33.9h8.8v41.7c0,14.3,4,23.5,17.7,23.5h0.9l7-0.6c1.1-0.1,2.1-1.1,2.1-2.2v-4.4c0-1.1-1-2.4-2.1-2.2
	l-6.2,0.6c-7.1-0.3-9-4.7-9-12.7V34.1h11.7c1.1,0,2.1-1.1,2.1-2.2v-4.4c0-1.1-1-2.2-2.1-2.2H508V8.5c0-1.1-1.1-2.2-2.2-2.1l-6.1,0.7
	c-1.2,0.1-2.3,1-2.3,2.1v16h-8.9c-1.1,0-2,1.1-2,2.2v4.3C486.5,32.7,487.5,33.9,488.6,33.9z"/>
<path class="st0" d="M260.4,123.1c-24.5,18.2-60,27.8-90.5,27.8c-42.9,0-81.4-15.9-110.6-42.4c-2.3-2.1-0.3-4.9,2.5-3.3
	c31.5,18.4,70.4,29.5,110.7,29.5c27.1,0,57-5.7,84.4-17.4C261,115.6,264.5,120.1,260.4,123.1z"/>
<path class="st0" d="M270.7,111.4c-3.2-4-20.7-1.9-28.6-0.9c-2.4,0.3-2.8-1.8-0.6-3.3c14-9.9,37-7.1,39.7-3.7
	c2.7,3.3-0.7,26.5-13.9,37.5c-2,1.7-3.9,0.8-3-1.4C267.2,132.1,273.8,115.4,270.7,111.4z"/>
<path class="st1" d="M242.6,37.2v-9.6c0-1.5,1.1-2.5,2.4-2.5h42.9c1.4,0,2.5,1,2.5,2.5v8.2c0,1.4-1.2,3.2-3.2,6.1L265,73.8
	c8.3-0.2,17,1,24.4,5.3c1.7,0.9,2.2,2.4,2.3,3.8v10.2c0,1.4-1.5,3-3.2,2.2c-13.2-6.9-30.7-7.7-45.3,0.1c-1.5,0.8-3-0.8-3-2.2v-9.8
	c0-1.6,0-4.2,1.6-6.6l25.7-37.1h-22.4C243.7,39.6,242.6,38.7,242.6,37.2z"/>
<path class="st1" d="M86.2,97.3H73.1c-1.2-0.1-2.2-1-2.3-2.2V27.8c0-1.3,1.1-2.4,2.5-2.4h12.1c1.3,0.1,2.3,1,2.4,2.3v8.8h0.3
	C91.3,28,97.2,24,105.3,24c8.2,0,13.3,4,16.9,12.5c3.2-8.5,10.4-12.5,18-12.5c5.5,0,11.5,2.2,15.1,7.4c4.1,5.7,3.3,13.9,3.3,21.1V95
	c0,1.4-1.1,2.4-2.5,2.4h-13c-1.3-0.1-2.3-1.1-2.3-2.4V59.3c0-2.8,0.2-9.9-0.4-12.6c-1-4.5-3.9-5.8-7.7-5.8c-3.2,0-6.5,2.1-7.8,5.5
	s-1.2,9-1.2,12.9V95c0,1.4-1.1,2.4-2.5,2.4h-13c-1.3-0.1-2.3-1.1-2.3-2.4V59.3c0-7.5,1.2-18.6-8-18.6c-9.4,0-9,10.8-9,18.6V95
	C88.7,96.2,87.6,97.3,86.2,97.3z"/>
<path class="st1" d="M327.4,37.7c-9.6,0-10.2,13.2-10.2,21.4s-0.1,25.8,10.1,25.8c10.1,0,10.6-14.2,10.6-22.8
	c0-5.7-0.2-12.5-1.9-17.8C334.4,39.5,331.5,37.7,327.4,37.7z M327.3,23.9c19.4,0,29.8,16.7,29.8,37.9c0,20.5-11.6,36.8-29.8,36.8
	c-19,0-29.3-16.7-29.3-37.5C297.9,40.2,308.4,23.9,327.3,23.9z"/>
<path class="st1" d="M382.2,97.3h-13c-1.3-0.1-2.3-1.1-2.3-2.4V27.6c0.1-1.2,1.2-2.2,2.5-2.2h12.1c1.1,0.1,2.1,0.8,2.3,1.9v10.3h0.2
	c3.7-9.2,8.8-13.6,17.8-13.6c5.8,0,11.6,2.1,15.2,7.9c3.4,5.4,3.4,14.5,3.4,21v42.3c-0.1,1.2-1.2,2.1-2.5,2.1h-13.1
	c-1.2-0.1-2.2-1-2.3-2.1V58.7c0-7.4,0.9-18.1-8.2-18.1c-3.2,0-6.1,2.1-7.5,5.4c-1.8,4.1-2.1,8.2-2.1,12.7v36.2
	C384.7,96.2,383.6,97.3,382.2,97.3z"/>
<path class="st1" d="M60.7,84.9c-2.4-3.3-4.9-6-4.9-12.1V52.4c0-8.7,0.6-16.6-5.7-22.6c-5-4.8-13.3-6.5-19.6-6.5
	C18.1,23.3,4.2,28,1.3,43.4C1,45,2.2,45.9,3.2,46.2l12.7,1.4c1.2-0.1,2-1.2,2.2-2.4c1.1-5.3,5.5-7.9,10.5-7.9c2.7,0,5.7,1,7.3,3.4
	c1.8,2.7,1.6,6.4,1.6,9.5v1.7c-7.6,0.9-17.4,1.4-24.5,4.6C4.8,60.1-0.9,67.3-0.9,77.9c0,13.6,8.5,20.4,19.5,20.4
	c9.3,0,14.3-2.2,21.5-9.5c2.4,3.4,3.1,5.1,7.5,8.7c1,0.5,2.2,0.5,3.1-0.3l0,0c2.6-2.3,7.3-6.5,10-8.7C61.7,87.6,61.5,86.1,60.7,84.9
	z M35,79.1c-2.1,3.7-5.4,5.9-9,5.9c-5,0-7.9-3.8-7.9-9.5c0-11.2,10-13.2,19.4-13.2v2.8C37.4,70.3,37.6,74.5,35,79.1z"/>
<path class="st1" d="M231.6,84.9c-2.4-3.3-4.9-6-4.9-12.1V52.4c0-8.7,0.6-16.6-5.7-22.6c-5-4.8-13.3-6.5-19.7-6.5
	c-12.4,0-26.3,4.7-29.2,20.1c-0.3,1.6,0.9,2.5,2,2.8l12.6,1.4c1.2-0.1,2-1.2,2.2-2.4c1.1-5.3,5.5-7.9,10.5-7.9c2.7,0,5.7,1,7.3,3.4
	c1.9,2.7,1.6,6.4,1.6,9.5v1.7c-7.6,0.9-17.4,1.4-24.5,4.6c-8.2,3.6-13.9,10.8-13.9,21.4c0,13.6,8.5,20.4,19.5,20.4
	c9.3,0,14.3-2.2,21.5-9.5c2.4,3.4,3.2,5.1,7.5,8.7c1,0.5,2.2,0.5,3.1-0.3l0,0c2.6-2.3,7.3-6.5,10-8.7
	C232.7,87.6,232.5,86.1,231.6,84.9z M188.6,75.5c0-11.2,10-13.2,19.4-13.2v2.8c0,5.1,0.1,9.4-2.5,13.9c-2.1,3.7-5.4,5.9-9,5.9
	C191.5,85,188.6,81.2,188.6,75.5z"/>
</svg>
