<?xml version="1.0" encoding="UTF-8"?>
<svg id="Layer_1" xmlns="http://www.w3.org/2000/svg" version="1.1" viewBox="0 0 1083.09 210">
  <!-- Generator: Adobe Illustrator 29.8.4, SVG Export Plug-In . SVG Version: 2.1.1 Build 6)  -->
  <defs>
    <style>
      .st0 {
        fill: #fff;
      }
    </style>
  </defs>
  <path class="st0" d="M219.28,166c.71.8,1.97-.1,1.43-1.01L139.77,27.17h-.03L124.47,1.14C123.81.02,122.77-.04,122.21.02c-.56.06-1.55.34-1.96,1.54l-22.05,72.28c-3.46,11.31,5.18,22.7,17.19,22.7h22.11c12.79,0,24.95,5.44,33.38,14.92l48.41,54.57h-.01Z"/>
  <path class="st0" d="M82.99,78.55l17.16-56.34c.3-.99-1.08-1.58-1.61-.68L.33,188.73c-.66,1.17-.21,2.07.29,2.62.5.56,1.37,1.12,2.63.59l.29-.1,87.16-31.51c10.44-3.77,14.91-15.88,9.36-25.36l-13.01-22.18c-6.08-10.38-7.55-22.76-4.06-34.23"/>
  <path class="st0" d="M204.81,204.61h26.07c1.28,0,1.86-.81,2.11-1.3.23-.49.5-1.42-.27-2.38l-65.65-73.95c-8.09-9.11-22.89-7.71-29.05,2.76l-12.52,21.25c-5.19,8.81-13.36,15.57-23.11,19.08L11.07,202.96c-.93.34-.68,1.69.32,1.69h193.42v-.03Z"/>
  <path class="st0" d="M375.69,9.88c-7.11,0-13.48,4.17-16.19,10.57l-83.19,183.93h21.41l22.97-50.79h89.2c2.33,0,4.47-1.35,5.42-3.45l7.42-16.41h-93.05l44.41-98.17c.62-1.38,2.6-1.38,3.22,0l76.3,168.84h21.41L391.91,20.56c-2.75-6.48-9.12-10.66-16.22-10.66h0Z"/>
  <path class="st0" d="M764.64,0c-58.5,0-106.1,46.79-106.1,104.29s47.6,104.28,106.1,104.28,106.1-46.79,106.1-104.28S823.14,0,764.64,0ZM851.56,104.29c0,47.11-38.99,85.44-86.92,85.44s-86.92-38.33-86.92-85.44,38.99-85.46,86.92-85.46,86.92,38.33,86.92,85.46Z"/>
  <path class="st0" d="M656.95,5.09h-23.1l-59.49,86.83c-1.19,1.73-4.12,1.73-5.31,0L509.53,5.09h-23.11l66.71,97.39c.87,1.29.87,2.94,0,4.23l-66.73,97.39h23.11l59.48-86.83c1.2-1.74,4.14-1.74,5.33,0l59.49,86.83h23.11l-66.73-97.39c-.87-1.29-.87-2.94,0-4.23L656.95,5.09Z"/>
  <path class="st0" d="M1063.92,5.09v168.16L939.42,11.09c-4.05-4.98-10.33-7.51-16.83-6.76-9.36,1.11-16.41,9.11-16.41,18.63v181.12h19.16V24.02l138.25,180.08h19.5V5.09h-19.17Z"/>
</svg>