<svg width="1188" height="374" viewBox="0 0 1188 374" fill="none" xmlns="http://www.w3.org/2000/svg">
<g clip-path="url(#clip0_531_13251)">
<g clip-path="url(#clip1_531_13251)">
<path d="M273.285 252.003C273.992 252.802 275.256 251.9 274.714 250.998L193.77 113.165H193.74L178.472 87.1393C177.81 86.0155 176.772 85.9563 176.215 86.0155C175.659 86.0746 174.666 86.3556 174.26 87.5533L152.207 159.834C148.748 171.146 157.382 182.532 169.401 182.532H191.514C204.3 182.532 216.469 187.974 224.893 197.453L273.3 252.018L273.285 252.003Z" fill="#1A1A1A"/>
<path d="M136.991 164.55L154.155 108.21C154.455 107.219 153.072 106.628 152.545 107.53L54.3319 274.73C53.67 275.899 54.1213 276.801 54.6177 277.348C55.1141 277.91 55.9865 278.472 57.2501 277.939L57.5359 277.836L144.693 246.324C155.132 242.553 159.6 230.442 154.049 220.964L141.037 198.783C134.96 188.402 133.486 176.025 136.976 164.55" fill="#1A1A1A"/>
<path d="M258.808 290.615H284.877C286.155 290.615 286.742 289.802 286.983 289.314C287.208 288.826 287.479 287.894 286.712 286.933L221.066 212.982C212.973 203.873 198.171 205.277 192.019 215.747L179.503 236.996C174.313 245.81 166.145 252.567 156.398 256.072L65.074 288.959C64.1413 289.299 64.3971 290.645 65.3899 290.645H258.808V290.615Z" fill="#1A1A1A"/>
<path d="M429.692 95.8818C422.577 95.8818 416.214 100.052 413.506 106.455L330.32 290.38H351.726L374.696 239.585H463.899C466.23 239.585 468.366 238.24 469.314 236.14L476.73 219.726H383.676L428.082 121.553C428.699 120.177 430.685 120.177 431.301 121.553L507.597 290.395H529.003L445.908 106.558C443.155 100.081 436.792 95.8966 429.692 95.8966V95.8818Z" fill="#1A1A1A"/>
<path d="M818.64 86C760.14 86 712.545 132.787 712.545 190.295C712.545 247.803 760.14 294.576 818.64 294.576C877.141 294.576 924.736 247.788 924.736 190.295C924.736 132.802 877.141 86 818.64 86ZM905.557 190.295C905.557 237.408 866.566 275.737 818.64 275.737C770.715 275.737 731.724 237.408 731.724 190.295C731.724 143.183 770.715 104.839 818.64 104.839C866.566 104.839 905.557 143.168 905.557 190.295Z" fill="#1A1A1A"/>
<path d="M710.946 91.0922H687.841L628.347 177.924C627.159 179.654 624.226 179.654 623.037 177.924L563.529 91.0922H540.423L607.137 188.482C608.01 189.768 608.01 191.424 607.137 192.711L540.408 290.1H563.514L622.992 203.269C624.196 201.524 627.129 201.524 628.317 203.269L687.811 290.1H710.916L644.187 192.711C643.315 191.424 643.315 189.768 644.187 188.482L710.946 91.0922Z" fill="#1A1A1A"/>
<path d="M1117.92 91.0908V259.253L993.416 97.0945C989.37 92.1112 983.082 89.5825 976.583 90.3367C967.227 91.4457 960.172 99.4457 960.172 108.969V290.084H979.336V110.019L1117.59 290.099H1137.09V91.0908H1117.92Z" fill="#1A1A1A"/>
</g>
</g>
<defs>
<clipPath id="clip0_531_13251">
<rect width="1188" height="374" fill="white"/>
</clipPath>
<clipPath id="clip1_531_13251">
<rect width="1081" height="210" fill="white" transform="translate(54 86)"/>
</clipPath>
</defs>
</svg>
