<svg width="1500" height="828" viewBox="0 0 1500 828" fill="none" xmlns="http://www.w3.org/2000/svg">
<g clip-path="url(#clip0_528_13220)">
<g clip-path="url(#clip1_528_13220)">
<path d="M429.285 475.003C429.992 475.802 431.256 474.9 430.714 473.998L349.77 336.165H349.74L334.472 310.139C333.81 309.015 332.772 308.956 332.215 309.015C331.659 309.075 330.666 309.356 330.26 310.553L308.207 382.834C304.748 394.146 313.382 405.532 325.401 405.532H347.514C360.3 405.532 372.469 410.974 380.893 420.453L429.3 475.018L429.285 475.003Z" fill="#1A1A1A"/>
<path d="M292.991 387.55L310.155 331.21C310.455 330.219 309.072 329.628 308.545 330.53L210.332 497.73C209.67 498.899 210.121 499.801 210.618 500.348C211.114 500.91 211.987 501.472 213.25 500.939L213.536 500.836L300.693 469.324C311.132 465.553 315.6 453.442 310.049 443.964L297.037 421.783C290.96 411.402 289.486 399.025 292.976 387.55" fill="#1A1A1A"/>
<path d="M414.808 513.615H440.877C442.155 513.615 442.742 512.802 442.983 512.314C443.208 511.826 443.479 510.894 442.712 509.933L377.066 435.982C368.973 426.873 354.171 428.277 348.019 438.747L335.503 459.996C330.313 468.81 322.145 475.567 312.398 479.072L221.074 511.959C220.141 512.299 220.397 513.645 221.39 513.645H414.808V513.615Z" fill="#1A1A1A"/>
<path d="M585.692 318.882C578.577 318.882 572.214 323.052 569.506 329.455L486.32 513.38H507.726L530.696 462.585H619.899C622.23 462.585 624.366 461.24 625.314 459.14L632.73 442.726H539.676L584.082 344.553C584.699 343.177 586.685 343.177 587.301 344.553L663.597 513.395H685.003L601.908 329.558C599.155 323.081 592.792 318.897 585.692 318.897V318.882Z" fill="#1A1A1A"/>
<path d="M974.64 309C916.14 309 868.545 355.787 868.545 413.295C868.545 470.803 916.14 517.576 974.64 517.576C1033.14 517.576 1080.74 470.788 1080.74 413.295C1080.74 355.802 1033.14 309 974.64 309ZM1061.56 413.295C1061.56 460.408 1022.57 498.737 974.64 498.737C926.715 498.737 887.724 460.408 887.724 413.295C887.724 366.183 926.715 327.839 974.64 327.839C1022.57 327.839 1061.56 366.168 1061.56 413.295Z" fill="#1A1A1A"/>
<path d="M866.946 314.092H843.841L784.347 400.924C783.159 402.654 780.226 402.654 779.037 400.924L719.529 314.092H696.423L763.137 411.482C764.01 412.768 764.01 414.424 763.137 415.711L696.408 513.1H719.514L778.992 426.269C780.196 424.524 783.129 424.524 784.317 426.269L843.811 513.1H866.916L800.187 415.711C799.315 414.424 799.315 412.768 800.187 411.482L866.946 314.092Z" fill="#1A1A1A"/>
<path d="M1273.92 314.091V482.253L1149.42 320.094C1145.37 315.111 1139.08 312.583 1132.58 313.337C1123.23 314.446 1116.17 322.446 1116.17 331.969V513.084H1135.34V333.019L1273.59 513.099H1293.09V314.091H1273.92Z" fill="#1A1A1A"/>
</g>
</g>
<defs>
<clipPath id="clip0_528_13220">
<rect width="1500" height="828" fill="white"/>
</clipPath>
<clipPath id="clip1_528_13220">
<rect width="1081" height="210" fill="white" transform="translate(210 309)"/>
</clipPath>
</defs>
</svg>
