<?xml version="1.0" standalone="no"?>
<!DOCTYPE svg PUBLIC "-//W3C//DTD SVG 20010904//EN"
 "http://www.w3.org/TR/2001/REC-SVG-20010904/DTD/svg10.dtd">
<svg version="1.0" xmlns="http://www.w3.org/2000/svg"
 width="260.000000pt" height="260.000000pt" viewBox="0 0 260.000000 260.000000"
 preserveAspectRatio="xMidYMid meet">
<metadata>
Created by potrace 1.11, written by Peter Selinger 2001-2013
</metadata>
<g transform="translate(0.000000,260.000000) scale(0.100000,-0.100000)"
fill="#000000" stroke="none">
<path d="M0 2291 l0 -310 139 0 c135 0 139 1 143 22 9 54 3 57 -97 57 l-94 0
-3 86 c-2 47 0 91 4 97 4 6 37 12 75 13 37 1 73 2 80 3 8 1 11 15 10 38 l-2
36 -82 -2 -83 -2 -1 78 c-1 81 0 105 7 112 2 2 44 4 93 3 85 -2 89 -1 93 20
10 57 8 58 -143 58 l-139 0 0 -309z"/>
<path d="M304 2583 c3 -10 7 -29 10 -43 4 -21 38 -187 51 -246 53 -246 63
-292 64 -306 1 -11 119 -10 125 0 3 5 7 19 10 33 2 13 16 80 31 149 15 69 29
139 32 155 3 17 16 79 29 139 13 60 24 115 24 123 0 9 -14 13 -45 13 -25 0
-45 -1 -45 -3 0 -2 -11 -59 -25 -128 -25 -131 -30 -155 -42 -228 -4 -25 -8
-48 -8 -51 -1 -3 -6 -30 -10 -60 -5 -30 -10 -50 -12 -44 -3 8 -27 131 -69 356
-3 15 -11 55 -18 90 l-13 63 -47 3 c-42 3 -47 1 -42 -15z"/>
<path d="M730 2291 l0 -309 140 -1 140 0 0 39 0 40 -95 0 c-56 0 -95 4 -96 10
0 6 0 39 0 75 0 123 -8 111 69 109 93 -3 102 1 102 42 0 32 -2 34 -32 35 -18
0 -57 2 -87 2 l-55 2 2 89 c0 48 3 91 7 94 3 3 46 5 95 4 l90 -3 0 41 0 40
-140 0 -140 0 0 -309z"/>
<path d="M1080 2289 l0 -310 43 3 42 3 2 80 c1 44 2 97 2 118 1 35 3 37 34 37
32 0 32 -1 70 -107 21 -60 41 -114 46 -121 5 -9 24 -12 53 -10 l46 3 -48 123
-48 122 29 21 c38 27 51 81 46 183 -6 140 -40 166 -212 166 l-105 0 0 -311z
m213 210 c12 -16 17 -39 17 -89 0 -87 -16 -109 -82 -112 -26 -1 -50 1 -54 4
-7 7 -6 206 1 217 2 4 26 7 52 5 34 -3 53 -10 66 -25z"/>
<path d="M1433 2586 c4 -9 38 -103 77 -211 69 -192 70 -196 70 -295 l0 -100
45 0 45 0 1 108 0 107 73 200 74 200 -35 3 c-19 2 -41 1 -47 -1 -7 -3 -35 -71
-61 -152 -27 -81 -51 -143 -53 -138 -1 4 -24 71 -50 148 l-48 140 -48 3 c-40
3 -48 1 -43 -12z"/>
<path d="M23 1942 c-20 -3 -23 -10 -23 -43 0 -40 0 -41 38 -39 86 4 77 33 77
-267 l0 -268 39 -3 c21 -2 42 1 45 6 3 6 6 128 6 271 l0 261 45 1 c76 2 75 2
75 38 0 18 -6 36 -13 38 -14 6 -255 10 -289 5z"/>
<path d="M353 1937 c-4 -7 -7 -420 -4 -584 1 -31 3 -33 40 -33 22 0 41 5 43
13 3 6 4 67 4 134 l-1 122 86 -1 86 -1 -1 -132 -1 -133 47 -1 46 -1 -1 313
c-2 305 -2 312 -22 312 -11 0 -31 -2 -44 -5 -24 -6 -24 -7 -25 -140 l-1 -134
-82 -1 c-65 0 -83 3 -85 15 -2 8 -4 70 -3 138 0 76 -4 122 -10 123 -55 4 -67
3 -72 -4z"/>
<path d="M788 1942 c-17 -3 -18 -26 -18 -313 l0 -309 45 0 45 0 0 309 0 309
-27 4 c-16 2 -36 2 -45 0z"/>
<path d="M942 1942 c-9 -3 -12 -80 -12 -311 l0 -307 45 -3 45 -2 -3 230 -2
229 43 -111 c23 -62 63 -165 88 -230 l46 -118 47 3 46 3 0 307 1 306 -33 4
c-18 2 -39 1 -45 -3 -13 -8 -15 -317 -3 -406 8 -61 -5 -47 -35 37 -73 207
-142 370 -158 371 -9 0 -26 2 -37 3 -12 1 -26 1 -33 -2z"/>
<path d="M1465 1940 c-47 -10 -74 -29 -95 -63 -18 -29 -20 -52 -20 -247 0
-198 2 -218 20 -248 41 -67 158 -84 273 -40 l27 10 0 142 0 141 -40 1 c-22 1
-41 -4 -41 -10 -1 -6 -2 -54 -3 -106 -1 -52 -5 -101 -9 -107 -11 -18 -88 -16
-115 3 -21 15 -22 20 -22 210 0 181 1 195 20 214 25 25 68 29 148 16 l42 -8 0
40 c0 33 -4 42 -22 48 -32 10 -127 12 -163 4z"/>
<path d="M0 973 l0 -313 44 0 45 0 0 310 c1 240 -2 310 -12 311 -6 0 -27 1
-45 2 l-32 2 0 -312z"/>
<path d="M229 1280 c-74 -22 -100 -60 -100 -153 -1 -102 15 -126 121 -186 91
-51 110 -72 110 -121 0 -55 -27 -75 -104 -75 -33 0 -76 3 -94 7 l-33 8 3 -42
c3 -37 7 -43 33 -50 50 -14 159 -10 201 7 59 24 78 57 81 141 3 93 -16 124
-114 179 -103 58 -113 69 -113 126 0 52 17 78 53 80 43 3 73 2 110 -5 l37 -6
0 39 c0 22 -4 43 -10 46 -15 9 -152 14 -181 5z"/>
<path d="M631 1280 c-4 -3 -6 -142 -6 -310 l0 -305 115 0 c141 0 175 12 200
68 13 29 18 61 16 114 -2 64 -6 77 -28 100 l-26 25 24 36 c13 19 24 49 25 66
5 172 -27 205 -206 209 -59 1 -110 0 -114 -3z m207 -84 c36 -22 32 -172 -6
-177 -43 -6 -104 -3 -110 5 -7 9 -9 129 -3 171 1 12 100 13 119 1z m15 -287
c11 -14 17 -39 17 -75 0 -74 -20 -94 -97 -94 l-58 0 -1 93 c0 50 4 95 9 99 6
3 33 4 61 2 37 -3 56 -10 69 -25z"/>
<path d="M993 1282 c-13 -2 -23 -5 -23 -7 0 -2 32 -90 72 -197 68 -183 72
-198 74 -288 1 -52 3 -103 3 -113 1 -15 8 -18 44 -15 l42 3 2 85 c2 120 4 128
76 327 36 98 67 184 69 192 2 10 -7 14 -35 14 -21 0 -43 -5 -48 -10 -5 -5 -31
-74 -57 -153 l-48 -144 -50 149 c-53 158 -60 167 -121 157z"/>
<path d="M27 622 l-27 -3 0 -309 0 -309 118 3 c131 3 160 11 188 53 17 25 19
51 22 248 3 217 3 221 -20 255 -13 19 -36 41 -51 48 -26 13 -167 21 -230 14z
m199 -97 c11 -14 14 -63 14 -212 0 -230 -1 -233 -97 -233 l-58 0 2 143 c1 78
2 183 2 234 l1 92 61 -2 c47 -2 64 -7 75 -22z"/>
<path d="M407 622 c-14 -3 -16 -36 -16 -312 l0 -309 142 2 142 2 3 37 3 38
-100 0 -101 0 0 99 0 98 73 1 c39 0 78 1 85 1 7 1 12 16 12 39 l0 38 -82 -1
-83 0 0 95 0 95 95 0 95 0 0 39 0 39 -126 1 c-69 1 -133 0 -142 -2z"/>
<path d="M795 621 c-80 -21 -109 -69 -103 -172 5 -88 22 -111 128 -171 46 -26
87 -53 91 -60 5 -7 9 -32 9 -55 0 -45 -17 -69 -56 -79 -25 -6 -119 1 -146 11
-18 7 -29 -31 -17 -62 9 -25 24 -29 116 -32 54 -2 83 3 117 17 58 26 76 61 76
148 0 88 -20 118 -114 169 -97 53 -116 74 -116 128 0 74 41 93 160 74 l46 -8
0 40 c0 27 -4 42 -14 46 -26 10 -146 14 -177 6z"/>
<path d="M1075 622 c-20 -3 -21 -9 -20 -310 l0 -307 44 0 44 0 0 304 0 305
-24 6 c-13 3 -33 4 -44 2z"/>
<path d="M1325 623 c-46 -12 -82 -35 -98 -63 -15 -25 -18 -59 -18 -251 -1
-247 1 -255 72 -291 43 -23 139 -23 202 -2 l46 16 0 143 0 142 -45 1 -44 1 0
-113 c0 -125 0 -126 -65 -126 -18 0 -43 9 -56 19 -23 19 -24 22 -24 210 0 182
1 192 22 212 23 24 75 29 151 15 l42 -8 0 40 c0 29 -5 42 -17 47 -24 9 -143
15 -168 8z"/>
<path d="M1613 619 c-21 -8 -21 -12 -22 -314 l-1 -306 43 3 42 3 0 227 c0 124
1 226 2 225 1 -1 8 -20 16 -42 36 -103 151 -391 159 -403 14 -16 88 -16 89 1
1 6 3 145 3 307 1 288 1 295 -19 301 -11 3 -31 3 -43 1 l-24 -5 4 -223 c1
-122 0 -217 -3 -211 -3 7 -41 104 -84 217 -43 113 -81 209 -85 213 -11 12 -53
15 -77 6z"/>
</g>
</svg>
