<?xml version="1.0" encoding="utf-8"?>
<!-- Generator: Adobe Illustrator 21.0.2, SVG Export Plug-In . SVG Version: 6.00 Build 0)  -->
<svg version="1.1" id="Layer_1" xmlns="http://www.w3.org/2000/svg" xmlns:xlink="http://www.w3.org/1999/xlink" x="0px" y="0px"
	 viewBox="0 0 1425.6 647" style="enable-background:new 0 0 1425.6 647;" xml:space="preserve">
<style type="text/css">
	.st0{fill:#1A1E23;stroke:#1A1E23;stroke-width:9;stroke-miterlimit:10;}
	.st1{fill:#E9EDEF;stroke:#1A1E23;stroke-width:9;stroke-miterlimit:10;}
	.st2{fill:none;stroke:#1A1E23;stroke-width:9;stroke-linecap:round;stroke-miterlimit:10;}
	.st3{fill:none;stroke:#1A1E23;stroke-width:9;stroke-linecap:round;stroke-linejoin:round;stroke-miterlimit:10;}
	.st4{fill:#1A1E23;stroke:#1A1E23;stroke-miterlimit:10;}
	.st5{fill:#E9EDEF;}
	.st6{fill:none;stroke:#1A1E23;stroke-width:9;stroke-linecap:square;stroke-linejoin:round;stroke-miterlimit:10;}
	.st7{fill:none;stroke:#E9EDEF;stroke-width:9;stroke-linecap:round;stroke-linejoin:round;stroke-miterlimit:10;}
	.st8{fill:#1A1E23;}
</style>
<g>
	<path class="st0" d="M1315.9,354H888.1c-5.9,0-10.6-4.7-10.6-10.6v-88.8c0-5.9,4.7-10.6,10.6-10.6h427.8c5.9,0,10.6,4.7,10.6,10.6
		v88.8C1326.5,349.3,1321.8,354,1315.9,354z"/>
	<path class="st1" d="M1411.8,540H792.2c-4.9,0-8.9-4-8.9-8.9V350.9c0-4.9,4-8.9,8.9-8.9h619.6c4.9,0,8.9,4,8.9,8.9v180.2
		C1420.7,536,1416.7,540,1411.8,540z"/>
	<rect x="943.4" y="183" class="st1" width="317.3" height="158.9"/>
	<circle class="st1" cx="1375.1" cy="393.5" r="14"/>
	<circle class="st1" cx="1375.1" cy="444.5" r="14"/>
	<line class="st2" x1="1361.1" y1="483.9" x2="1389.1" y2="483.9"/>
	<line class="st2" x1="1361.1" y1="504.9" x2="1389.1" y2="504.9"/>
	<rect x="877.5" y="455" class="st0" width="449" height="119.9"/>
	<line class="st2" x1="877.5" y1="476.5" x2="1326.5" y2="476.5"/>
	<path class="st1" d="M1260.7,455H943.4v187c0,0,298.9,0,317.3,0V455z"/>
	<rect x="976.3" y="563.7" class="st3" width="251.3" height="44.7"/>
	<line class="st3" x1="1227.6" y1="538" x2="1020.9" y2="538"/>
	<line class="st3" x1="1227.6" y1="513" x2="1075.6" y2="513"/>
	<line class="st3" x1="1227.6" y1="488" x2="990.6" y2="488"/>
	<line class="st2" x1="1088.8" y1="394.8" x2="1115.8" y2="394.8"/>
</g>
<g id="Background">
</g>
<g id="Pattern">
</g>
<path class="st1" d="M683.8,441.8H29.7c-14,0-25.4-11.4-25.4-25.4V30.8c0-14,11.4-25.4,25.4-25.4h654.1c14,0,25.4,11.4,25.4,25.4
	v385.7C709.1,430.4,697.7,441.8,683.8,441.8z"/>
<polygon class="st1" points="452.3,562.2 261.2,562.2 285.4,442.6 428.1,442.6 "/>
<path class="st1" d="M545.9,594.9H167.5c-9,0-16.3-7.4-16.3-16.3l0,0c0-9,7.4-16.3,16.3-16.3h378.4c9,0,16.3,7.4,16.3,16.3l0,0
	C562.3,587.6,554.9,594.9,545.9,594.9z"/>
<rect x="28.7" y="30" class="st4" width="656" height="387.2"/>
<rect x="572.3" y="69" class="st1" width="90.8" height="81"/>
<rect x="115.6" y="115" class="st5" width="396.8" height="292.3"/>
<rect x="572.3" y="150.2" class="st1" width="90.8" height="70"/>
<rect x="572.3" y="220.1" class="st1" width="90.8" height="176.9"/>
<circle class="st3" cx="179.6" cy="178.7" r="31.7"/>
<polyline class="st3" points="169.6,210.6 169.6,247 347.2,247 "/>
<polyline class="st3" points="342.7,258.7 354.3,247 342.7,235.4 "/>
<polyline class="st3" points="236.6,345.3 251.3,352.6 258.6,337.9 "/>
<rect x="376.6" y="155.7" class="st3" width="114" height="152.9"/>
<path class="st1" d="M664.3,80H53.6c-1.7,0-3-1.3-3-3V53c0-1.7,1.3-3,3-3h610.7c1.7,0,3,1.3,3,3v24C667.3,78.7,666,80,664.3,80z"/>
<path class="st3" d="M235.2,266.1c-0.7,20.6,2.9,45.9,12.4,76.9"/>
<path class="st3" d="M347.2,178.7c0,0-88.2-14.5-114.7,50.1"/>
<polyline class="st6" points="407.6,409 407.6,370.8 169.6,370.8 169.6,409 "/>
<g>
	<path class="st1" d="M781.9,597.2h-130c-5.4,0-9.9-4.5-9.9-9.9v-250c0-5.4,4.5-9.9,9.9-9.9h130c5.4,0,9.9,4.5,9.9,9.9v250
		C791.8,592.9,787.3,597.2,781.9,597.2z"/>
	<line class="st2" x1="703.6" y1="582" x2="730.3" y2="582"/>
	<rect x="656.6" y="347" class="st0" width="120" height="220.9"/>
	<rect x="671.4" y="364.5" class="st7" width="91.1" height="72"/>
	<line class="st7" x1="679.5" y1="458" x2="742.2" y2="458"/>
	<line class="st7" x1="679.5" y1="480.2" x2="752.7" y2="480.2"/>
	<line class="st7" x1="679.5" y1="502.5" x2="730" y2="502.5"/>
	<line class="st7" x1="679.5" y1="524.7" x2="752.7" y2="524.7"/>
	<line class="st7" x1="679.5" y1="547" x2="752.7" y2="547"/>
</g>
<g>
	<path class="st8" d="M608.9,277.9c0.4,1,1,2.7,1.3,3.8l2.6,8c0.3,1,1.4,1.4,2.3,0.9l1.9-1.2c0.9-0.6,2.4-0.4,3.2,0.3l5.3,5
		c0.8,0.7,2.1,0.8,2.9,0c0.8-0.7,0.9-2,0.2-2.9l-4.3-5.3c-0.7-0.9-0.6-2.2,0.1-3l2.1-2.3c0.7-0.8,0.5-1.9-0.4-2.3l-18.7-9
		c-1-0.5-1.5,0-1.1,1L608.9,277.9z"/>
</g>
<text transform="matrix(1 0 0 1 1454.6309 -498)" style="font-family:'MyriadPro-Regular'; font-size:12px;">Lorem ipsum</text>
</svg>
