<?xml version="1.0" encoding="utf-8"?>
<!-- Generator: Adobe Illustrator 21.0.2, SVG Export Plug-In . SVG Version: 6.00 Build 0)  -->
<svg version="1.1" id="Layer_1" xmlns="http://www.w3.org/2000/svg" xmlns:xlink="http://www.w3.org/1999/xlink" x="0px" y="0px"
	 viewBox="0 0 1500 828" style="enable-background:new 0 0 1500 828;" xml:space="preserve">
<style type="text/css">
	.st0{fill:#1A1E23;stroke:#E9EDEF;stroke-width:9;stroke-miterlimit:10;}
	.st1{fill:#E9EDEF;}
	.st2{fill:none;stroke:#E9EDEF;stroke-width:9;stroke-linecap:round;stroke-miterlimit:10;}
	.st3{fill:none;stroke:#1A1E23;stroke-width:9;stroke-linecap:round;stroke-linejoin:round;stroke-miterlimit:10;}
	.st4{fill:#1A1E23;}
	.st5{fill:none;stroke:#E9EDEF;stroke-width:9;stroke-linecap:round;stroke-linejoin:round;stroke-miterlimit:10;}
	.st6{fill:none;stroke:#E9EDEF;stroke-width:9;stroke-linecap:square;stroke-linejoin:round;stroke-miterlimit:10;}
	.st7{fill:#751F1F;stroke:#E9EDEF;stroke-width:9;stroke-linecap:round;stroke-miterlimit:10;}
</style>
<g>
	<path class="st0" d="M1349.3,452H921.5c-5.9,0-10.6-4.7-10.6-10.6v-88.8c0-5.9,4.7-10.6,10.6-10.6h427.8c5.9,0,10.6,4.7,10.6,10.6
		v88.8C1359.9,447.3,1355.2,452,1349.3,452z"/>
	<path class="st0" d="M1445.2,638H825.6c-4.9,0-8.9-4-8.9-8.9V448.9c0-4.9,4-8.9,8.9-8.9h619.6c4.9,0,8.9,4,8.9,8.9v180.2
		C1454.1,634,1450.1,638,1445.2,638z"/>
	<rect x="976.8" y="281" class="st1" width="317.3" height="158.9"/>
	<circle class="st0" cx="1408.5" cy="491.5" r="14"/>
	<circle class="st0" cx="1408.5" cy="542.5" r="14"/>
	<line class="st2" x1="1394.5" y1="581.9" x2="1422.5" y2="581.9"/>
	<line class="st2" x1="1394.5" y1="602.9" x2="1422.5" y2="602.9"/>
	<rect x="910.9" y="553" class="st0" width="449" height="119.9"/>
	<line class="st2" x1="910.9" y1="574.5" x2="1359.9" y2="574.5"/>
	<path class="st1" d="M1294.1,553H976.8v187c0,0,298.9,0,317.3,0V553z"/>
	<rect x="1009.7" y="661.7" class="st3" width="251.3" height="44.7"/>
	<line class="st3" x1="1261" y1="636" x2="1054.3" y2="636"/>
	<line class="st3" x1="1261" y1="611" x2="1109" y2="611"/>
	<line class="st3" x1="1261" y1="586" x2="1024" y2="586"/>
	<line class="st2" x1="1122.2" y1="492.8" x2="1149.2" y2="492.8"/>
</g>
<g id="Background">
</g>
<g id="Pattern">
</g>
<path class="st0" d="M717.2,539.8H63.1c-14,0-25.4-11.4-25.4-25.4V128.8c0-14,11.4-25.4,25.4-25.4h654.1c14,0,25.4,11.4,25.4,25.4
	v385.7C742.5,528.4,731.1,539.8,717.2,539.8z"/>
<polygon class="st0" points="485.7,660.2 294.6,660.2 318.8,540.6 461.5,540.6 "/>
<path class="st0" d="M579.3,692.9H200.9c-9,0-16.3-7.4-16.3-16.3l0,0c0-9,7.4-16.3,16.3-16.3h378.4c9,0,16.3,7.4,16.3,16.3l0,0
	C595.7,685.6,588.3,692.9,579.3,692.9z"/>
<rect x="62.1" y="128" class="st1" width="656" height="387.2"/>
<rect x="605.7" y="167" class="st0" width="90.8" height="81"/>
<rect x="149" y="213" class="st4" width="396.8" height="290.6"/>
<rect x="605.7" y="248.2" class="st0" width="90.8" height="70"/>
<rect x="605.7" y="318.1" class="st0" width="90.8" height="176.9"/>
<circle class="st5" cx="213" cy="276.7" r="31.7"/>
<polyline class="st5" points="203,308.6 203,345 380.6,345 "/>
<polyline class="st5" points="376.1,356.7 387.7,345 376.1,333.4 "/>
<polyline class="st5" points="270,443.3 284.7,450.6 292,435.9 "/>
<rect x="410" y="253.7" class="st5" width="114" height="152.9"/>
<path class="st0" d="M697.7,178H87c-1.7,0-3-1.3-3-3v-24c0-1.7,1.3-3,3-3h610.7c1.7,0,3,1.3,3,3v24C700.7,176.7,699.4,178,697.7,178
	z"/>
<path class="st5" d="M268.6,364.1c-0.7,20.6,2.9,45.9,12.4,76.9"/>
<path class="st5" d="M380.6,276.7c0,0-88.2-14.5-114.7,50.1"/>
<polyline class="st6" points="441,499 441,468.8 203,468.8 203,499 "/>
<g>
	<path class="st0" d="M815.3,695.2h-130c-5.4,0-9.9-4.5-9.9-9.9v-250c0-5.4,4.5-9.9,9.9-9.9h130c5.4,0,9.9,4.5,9.9,9.9v250
		C825.2,690.9,820.7,695.2,815.3,695.2z"/>
	<line class="st7" x1="737" y1="679" x2="763.7" y2="679"/>
	<rect x="690" y="445" class="st1" width="120" height="220.9"/>
	<rect x="704.8" y="462.5" class="st3" width="91.1" height="72"/>
	<line class="st3" x1="712.9" y1="556" x2="775.6" y2="556"/>
	<line class="st3" x1="712.9" y1="578.2" x2="786.1" y2="578.2"/>
	<line class="st3" x1="712.9" y1="600.5" x2="763.4" y2="600.5"/>
	<line class="st3" x1="712.9" y1="622.7" x2="786.1" y2="622.7"/>
	<line class="st3" x1="712.9" y1="645" x2="786.1" y2="645"/>
</g>
<g>
	<path class="st1" d="M642.3,375.9c0.4,1,1,2.7,1.3,3.8l2.6,8c0.3,1,1.4,1.4,2.3,0.9l1.9-1.2c0.9-0.6,2.4-0.4,3.2,0.3l5.3,5
		c0.8,0.7,2.1,0.8,2.9,0c0.8-0.7,0.9-2,0.2-2.9l-4.3-5.3c-0.7-0.9-0.6-2.2,0.1-3l2.1-2.3c0.7-0.8,0.5-1.9-0.4-2.3l-18.7-9
		c-1-0.5-1.5,0-1.1,1L642.3,375.9z"/>
</g>
</svg>
