<?xml version="1.0" encoding="utf-8"?>
<!-- Generator: Adobe Illustrator 21.0.2, SVG Export Plug-In . SVG Version: 6.00 Build 0)  -->
<svg version="1.1" id="Layer_1" xmlns="http://www.w3.org/2000/svg" xmlns:xlink="http://www.w3.org/1999/xlink" x="0px" y="0px"
	 viewBox="0 0 1500 828" style="enable-background:new 0 0 1500 828;" xml:space="preserve">
<style type="text/css">
	.st0{fill:#1A1E23;}
	.st1{fill:#FF9900;}
	.st2{fill:#FFFFFF;}
</style>
<g id="Background">
</g>
<g id="Pattern">
</g>
<path class="st0" d="M10,0h1480c5.5,0,10,4.5,10,10v808c0,5.5-4.5,10-10,10H10c-5.5,0-10-4.5-10-10V10C0,4.5,4.5,0,10,0z"/>
<path class="st1" d="M984,419.4v-11.5c0-5-0.6-10.1-3.2-14.3c-2.9-4.9-8.1-7.9-13.3-8.1c-5.1,0.2-9.4,4-12,9.1
	c-2.8,5.7-3.7,12.2-3.7,18.7c0,11.6,2.6,29,15.4,29.5c5.3-0.2,10.1-3.7,13.1-8.7C983.2,429.5,984,424.8,984,419.4z M992.4,450.6
	h-5.3c-1.1,0-2.3-1-2.3-2.1v-8.8c-4,7.9-9.9,12.3-19.1,12.3c-9.1,0-15-4.5-19.5-12.2c-4.3-7.4-5.9-16.5-5.9-25.3
	c0-18,7.2-37.9,26.2-37.9c8.2,0,13.2,3.7,17.4,9.9v-31.2c0-1.1,1.1-2.1,2.2-2.1h6.1c1.1,0,2.3,1,2.3,2.1v93.3
	C994.6,449.6,993.5,450.6,992.4,450.6z"/>
<path class="st1" d="M1061.1,452c-18.5,0-26.8-18.9-26.8-37.8c0-19.9,9.8-37.2,28.4-37.2h0.5h0.5c18.2,0,27.2,18.4,27.2,37.3
	c0,20.1-10,37.7-28.8,37.7h-0.5H1061.1z M1062.4,442.8c6.1-0.2,10.9-4,13.8-10.3c2.6-5.6,3.1-12.1,3.1-18.4c0-6.8-0.7-13.8-3.9-19.6
	c-2.8-5.1-7.7-8.3-12.9-8.5c-5.8,0.2-10.9,4.1-13.5,10.2c-2.3,5.2-3.1,12.1-3.1,17.9c0,6.5,0.9,14,3.5,19.6
	C1052,439.2,1057,442.7,1062.4,442.8z"/>
<path class="st1" d="M1138.2,395.3c0.4,1,1.5,1.8,2.6,1.5l5.6-1.4c1.1-0.3,2-1.5,1.7-2.5c-3.7-11.8-13.3-16.2-24.5-16.1
	c-12.4,0-23.7,6.2-23.7,21.1c0,12.7,8.6,17.8,18.1,20l10.1,2.1c5.4,1.1,12.1,3.3,12.1,10.9c0,8.9-7.9,11.7-14.4,11.9
	c-6.9-0.2-15.6-3.4-17.7-11.7c-0.3-1.1-1.5-1.8-2.6-1.5l-5.9,1.3c-1.1,0.3-2,1.5-1.7,2.5c3.3,13,15,18.4,27.2,18.5
	c12.9,0.1,26.3-5.9,26.3-22.2c0-6.5-2.6-12.5-7.4-16.3c-3.8-3-8.4-4-12.9-5l-9-1.8c-5.5-1-11.1-2.7-11.1-10.5
	c0-7.7,7.1-10.3,12.6-10.5C1129.8,385.9,1135.4,388.8,1138.2,395.3z"/>
<path class="st1" d="M1009.5,359.2c0-3.5,2.9-6.2,6.6-6.2c3.6,0,6.6,2.8,6.6,6.2c0,3.4-2.9,6.2-6.6,6.2
	C1012.4,365.5,1009.5,362.7,1009.5,359.2z M1019.2,450.2h-6.2c-1.1,0-2.3-1-2.3-2.1v-67.8c0-1.1,1.1-2.1,2.3-2.1h6.2
	c1.1,0,2.3,1,2.3,2.1v67.9C1021.4,449.2,1020.3,450.2,1019.2,450.2z"/>
<path class="st1" d="M928.4,450.6h-5.3c-1.1,0-2.3-1-2.3-2.1v-10c-3.7,7.8-9.6,13.5-18.8,13.5c-7.1,0-12.5-2.6-16.4-8.1
	c-4.2-6-4.9-14.2-4.9-21.6v-41.9c0-1.1,1.1-2.1,2.3-2.1h6.1c1.1,0,2.3,1,2.3,2.1v41.9c0,4.1,0.2,9.5,2.1,13.2
	c1.8,3.8,5.8,6.8,9.5,6.8c3.9,0,9-2.9,12.2-7.4c3.8-5.4,4.8-11.4,4.8-18.2v-36.4c0-1,1.1-2,2.3-2h6.1c1.1,0,2.3,1,2.3,2.1v68.1
	C930.7,449.6,929.6,450.6,928.4,450.6z"/>
<path class="st1" d="M822.3,395.3c0.4,1,1.5,1.8,2.6,1.5l5.6-1.4c1.1-0.3,2-1.5,1.7-2.5c-3.7-11.8-13.3-16.2-24.5-16.1
	c-12.4,0-23.7,6.2-23.7,21.1c0,12.7,8.6,17.8,18.1,20l10.1,2.1c5.4,1.1,12.1,3.3,12.1,10.9c0,8.9-7.9,11.7-14.4,11.9
	c-6.9-0.2-15.6-3.4-17.7-11.7c-0.3-1.1-1.5-1.8-2.6-1.5l-5.9,1.3c-1.1,0.3-2,1.5-1.7,2.5c3.3,13,15,18.4,27.2,18.5
	c12.9,0.1,26.2-5.9,26.2-22.2c0-6.5-2.6-12.5-7.4-16.3c-3.8-3-8.4-4-12.9-5l-9-1.8c-5.5-1-11.1-2.7-11.1-10.5
	c0-7.7,7.1-10.3,12.6-10.5C814,385.9,819.6,388.8,822.3,395.3z"/>
<path class="st1" d="M838.6,386.9h8.8v41.7c0,14.3,4,23.5,17.7,23.5h0.9l7-0.6c1.1-0.1,2.1-1.1,2.1-2.2v-4.4c0-1.1-1-2.4-2.1-2.2
	l-6.2,0.6c-7.1-0.3-9-4.7-9-12.7v-43.5h11.7c1.1,0,2.1-1.1,2.1-2.2v-4.4c0-1.1-1-2.2-2.1-2.2H858v-16.8c0-1.1-1.1-2.2-2.2-2.1
	l-6.1,0.7c-1.2,0.1-2.3,1-2.3,2.1v16h-8.9c-1.1,0-2,1.1-2,2.2v4.3C836.5,385.7,837.5,386.9,838.6,386.9z"/>
<path class="st1" d="M610.4,476.1c-24.5,18.2-60,27.8-90.5,27.8c-42.9,0-81.4-15.9-110.6-42.4c-2.3-2.1-0.3-4.9,2.5-3.3
	c31.5,18.4,70.4,29.5,110.7,29.5c27.1,0,57-5.7,84.4-17.4C611,468.6,614.5,473.1,610.4,476.1z"/>
<path class="st1" d="M620.7,464.4c-3.2-4-20.7-1.9-28.6-0.9c-2.4,0.3-2.8-1.8-0.6-3.3c14-9.9,37-7.1,39.7-3.7
	c2.7,3.3-0.7,26.5-13.9,37.5c-2,1.7-3.9,0.8-3-1.4C617.2,485.1,623.8,468.4,620.7,464.4z"/>
<path class="st2" d="M592.6,390.2v-9.6c0-1.5,1.1-2.5,2.4-2.5h42.9c1.4,0,2.5,1,2.5,2.5v8.2c0,1.4-1.2,3.2-3.2,6.1L615,426.8
	c8.3-0.2,17,1,24.4,5.3c1.7,0.9,2.2,2.4,2.3,3.8v10.2c0,1.4-1.5,3-3.2,2.2c-13.2-6.9-30.7-7.7-45.3,0.1c-1.5,0.8-3-0.8-3-2.2v-9.8
	c0-1.6,0-4.2,1.6-6.6l25.7-37.1h-22.4C593.7,392.6,592.6,391.7,592.6,390.2z"/>
<path class="st2" d="M436.2,450.3h-13.1c-1.2-0.1-2.2-1-2.3-2.2v-67.3c0-1.3,1.1-2.4,2.5-2.4h12.1c1.3,0.1,2.3,1,2.4,2.3v8.8h0.3
	c3.2-8.5,9.1-12.5,17.2-12.5c8.2,0,13.3,4,16.9,12.5c3.2-8.5,10.4-12.5,18-12.5c5.5,0,11.5,2.2,15.1,7.4c4.1,5.7,3.3,13.9,3.3,21.1
	V448c0,1.4-1.1,2.4-2.5,2.4h-13c-1.3-0.1-2.3-1.1-2.3-2.4v-35.7c0-2.8,0.2-9.9-0.4-12.6c-1-4.5-3.9-5.8-7.7-5.8
	c-3.2,0-6.5,2.1-7.8,5.5s-1.2,9-1.2,12.9V448c0,1.4-1.1,2.4-2.5,2.4h-13c-1.3-0.1-2.3-1.1-2.3-2.4v-35.7c0-7.5,1.2-18.6-8-18.6
	c-9.4,0-9,10.8-9,18.6V448C438.7,449.2,437.6,450.3,436.2,450.3z"/>
<path class="st2" d="M677.4,390.7c-9.6,0-10.2,13.2-10.2,21.4c0,8.2-0.1,25.8,10.1,25.8c10.1,0,10.6-14.2,10.6-22.8
	c0-5.7-0.2-12.5-1.9-17.8C684.4,392.5,681.5,390.7,677.4,390.7z M677.3,376.9c19.4,0,29.8,16.7,29.8,37.9
	c0,20.5-11.6,36.8-29.8,36.8c-19,0-29.3-16.7-29.3-37.5C647.9,393.2,658.4,376.9,677.3,376.9z"/>
<path class="st2" d="M732.2,450.3h-13c-1.3-0.1-2.3-1.1-2.3-2.4v-67.3c0.1-1.2,1.2-2.2,2.5-2.2h12.1c1.1,0.1,2.1,0.8,2.3,1.9v10.3
	h0.2c3.7-9.2,8.8-13.6,17.8-13.6c5.8,0,11.6,2.1,15.2,7.9c3.4,5.4,3.4,14.5,3.4,21v42.3c-0.1,1.2-1.2,2.1-2.5,2.1h-13.1
	c-1.2-0.1-2.2-1-2.3-2.1v-36.5c0-7.4,0.9-18.1-8.2-18.1c-3.2,0-6.1,2.1-7.5,5.4c-1.8,4.1-2.1,8.2-2.1,12.7v36.2
	C734.7,449.2,733.6,450.3,732.2,450.3z"/>
<path class="st2" d="M410.7,437.9c-2.4-3.3-4.9-6-4.9-12.1v-20.4c0-8.7,0.6-16.6-5.7-22.6c-5-4.8-13.3-6.5-19.6-6.5
	c-12.4,0-26.3,4.7-29.2,20.1c-0.3,1.6,0.9,2.5,1.9,2.8l12.7,1.4c1.2-0.1,2-1.2,2.2-2.4c1.1-5.3,5.5-7.9,10.5-7.9
	c2.7,0,5.7,1,7.3,3.4c1.8,2.7,1.6,6.4,1.6,9.5v1.7c-7.6,0.9-17.4,1.4-24.5,4.6c-8.2,3.6-13.9,10.8-13.9,21.4
	c0,13.6,8.5,20.4,19.5,20.4c9.3,0,14.3-2.2,21.5-9.5c2.4,3.4,3.1,5.1,7.5,8.7c1,0.5,2.2,0.5,3.1-0.3l0,0c2.6-2.3,7.3-6.5,10-8.7
	C411.7,440.6,411.5,439.1,410.7,437.9z M385,432.1c-2.1,3.7-5.4,5.9-9,5.9c-5,0-7.9-3.8-7.9-9.5c0-11.2,10-13.2,19.4-13.2v2.8
	C387.4,423.3,387.6,427.5,385,432.1z"/>
<path class="st2" d="M581.6,437.9c-2.4-3.3-4.9-6-4.9-12.1v-20.4c0-8.7,0.6-16.6-5.7-22.6c-5-4.8-13.3-6.5-19.7-6.5
	c-12.4,0-26.3,4.7-29.2,20.1c-0.3,1.6,0.9,2.5,2,2.8l12.6,1.4c1.2-0.1,2-1.2,2.2-2.4c1.1-5.3,5.5-7.9,10.5-7.9c2.7,0,5.7,1,7.3,3.4
	c1.9,2.7,1.6,6.4,1.6,9.5v1.7c-7.6,0.9-17.4,1.4-24.5,4.6c-8.2,3.6-13.9,10.8-13.9,21.4c0,13.6,8.5,20.4,19.5,20.4
	c9.3,0,14.3-2.2,21.5-9.5c2.4,3.4,3.2,5.1,7.5,8.7c1,0.5,2.2,0.5,3.1-0.3l0,0c2.6-2.3,7.3-6.5,10-8.7
	C582.7,440.6,582.5,439.1,581.6,437.9z M538.6,428.5c0-11.2,10-13.2,19.4-13.2v2.8c0,5.1,0.1,9.4-2.5,13.9c-2.1,3.7-5.4,5.9-9,5.9
	C541.5,438,538.6,434.2,538.6,428.5z"/>
</svg>
