<?xml version="1.0" encoding="utf-8"?>
<!-- Generator: Adobe Illustrator 18.0.0, SVG Export Plug-In . SVG Version: 6.00 Build 0)  -->
<!DOCTYPE svg PUBLIC "-//W3C//DTD SVG 1.1//EN" "http://www.w3.org/Graphics/SVG/1.1/DTD/svg11.dtd">
<svg version="1.1" id="Layer_1" xmlns="http://www.w3.org/2000/svg" xmlns:xlink="http://www.w3.org/1999/xlink" x="0px" y="0px"
	 viewBox="0 0 24.7 18" enable-background="new 0 0 24.7 18" xml:space="preserve">
<g id="New_Symbol_1">
	<g id="New_Symbol_74">
	</g>
	<g>
		<path fill="#C5C5C5" d="M22.1,15.7l-3.8,0c0.1-0.1,0.2-0.2,0.3-0.3c3.5-3.5,3.5-9.2,0-12.7c-2.1-2.1-5.1-3-7.8-2.5l0.2,1
			c2.4-0.4,5,0.4,6.9,2.2c3.1,3.1,3.1,8.2,0,11.3c-0.1,0.1-0.2,0.2-0.4,0.3l0-4.1h-1l0,5.8l5.5,0V15.7z"/>
		<path fill="#C5C5C5" d="M6.7,14.6c-3.1-3.1-3.1-8.2,0-11.3c0.2-0.2,0.4-0.4,0.7-0.6v3.8h1V1.1l-5.5,0v1l3.7,0
			C6.4,2.3,6.2,2.4,6,2.6c-3.5,3.5-3.5,9.2,0,12.7c2.2,2.2,5.1,3,7.9,2.5l-0.2-1C11.3,17.3,8.6,16.6,6.7,14.6z"/>
	</g>
</g>
</svg>
