<?xml version="1.0" encoding="utf-8"?>
<!-- Generator: Adobe Illustrator 18.0.0, SVG Export Plug-In . SVG Version: 6.00 Build 0)  -->
<!DOCTYPE svg PUBLIC "-//W3C//DTD SVG 1.1//EN" "http://www.w3.org/Graphics/SVG/1.1/DTD/svg11.dtd">
<svg version="1.1" id="Layer_1" xmlns="http://www.w3.org/2000/svg" xmlns:xlink="http://www.w3.org/1999/xlink" x="0px" y="0px"
	 viewBox="0 0 16 16" enable-background="new 0 0 16 16" xml:space="preserve">
<g id="New_Symbol_82">
	<g>
		<path fill="#E9E9E9" d="M8,16c-4.4,0-8-3.6-8-8s3.6-8,8-8s8,3.6,8,8S12.4,16,8,16z M8,1C4.1,1,1,4.1,1,8c0,3.9,3.1,7,7,7
			c3.9,0,7-3.1,7-7C15,4.1,11.9,1,8,1z"/>
	</g>
	<polygon fill="#E9E9E9" points="11.7,8.6 11,7.9 8,10.9 5,7.9 4.3,8.6 8,12.3 8,12.3 8,12.3 	"/>
	<g>
		<rect x="7.5" y="4" fill="#E9E9E9" width="1" height="7.5"/>
	</g>
</g>
</svg>
