<?xml version="1.0" encoding="utf-8"?>
<!-- Generator: Adobe Illustrator 18.0.0, SVG Export Plug-In . SVG Version: 6.00 Build 0)  -->
<!DOCTYPE svg PUBLIC "-//W3C//DTD SVG 1.1//EN" "http://www.w3.org/Graphics/SVG/1.1/DTD/svg11.dtd">
<svg version="1.1" id="Layer_1" xmlns="http://www.w3.org/2000/svg" xmlns:xlink="http://www.w3.org/1999/xlink" x="0px" y="0px"
	 viewBox="0 0 10 14" enable-background="new 0 0 10 14" xml:space="preserve">
<g id="New_Symbol_39">
	<g>
		<path fill="#333333" d="M5,2C2.3,2,0,4.3,0,7c0,2.8,2.2,5,5,5s5-2.2,5-5C10,4.3,7.8,2,5,2z M5,11.5c-2.5,0-4.5-2-4.5-4.5
			s2-4.5,4.5-4.5c2.5,0,4.5,2,4.5,4.5S7.5,11.5,5,11.5z"/>
		<polygon fill="#333333" points="5,4.2 2.5,6.6 2.9,7 4.8,5.1 4.8,9.7 5.3,9.7 5.3,5.1 7.1,7 7.5,6.6 5,4.2 		"/>
	</g>
</g>
</svg>
