<?xml version="1.0" encoding="UTF-8"?>
<svg id="Layer_1" xmlns="http://www.w3.org/2000/svg" version="1.1" viewBox="0 0 1085.2 314.5">
  <!-- Generator: Adobe Illustrator 29.8.4, SVG Export Plug-In . SVG Version: 2.1.1 Build 6)  -->
  <defs>
    <style>
      .st0 {
        fill: #fff;
      }
    </style>
  </defs>
  <path class="st0" d="M629.5.1h40.9q7,0,9.5,6.5c22.3,56.7,44.6,113.3,66.9,170,.3.9.7,1.7,1.3,3.1.7-1.4,1.1-2.3,1.6-3.2,26.8-57.8,53.7-115.6,80.5-173.4C831.3.8,832.5,0,835,0c14.7.1,29.4.1,44.5.1-.5,1.1-.8,2.1-1.2,2.9-49.4,103-98.9,206-148.3,309-.8,1.6-1.5,2.5-3.5,2.5-13.3-.1-26.6-.1-39.9-.1-.7,0-1.4-.1-2.4-.2.5-1.1.8-1.9,1.2-2.7,13-27.1,26-54.1,39.1-81.2.9-1.8.9-3.2.1-5-31.3-74-62.6-148-93.9-222-.3-.9-.6-1.8-1.2-3.2Z"/>
  <path class="st0" d="M250,231.1c-14.7,0-28.9,0-43.2-.1-.9,0-2.1-1.3-2.6-2.3-10.1-21.6-20.1-43.3-30.1-64.9-15.9-34.3-31.8-68.6-47.7-102.9-.4-.9-.9-1.8-1.5-3.1-16.2,35.5-32.1,70.6-48.2,106.1h71.1c2,0,3.1.5,4.1,2.4,4.4,9,8.9,17.9,13.4,26.9.4.7.7,1.5,1.2,2.7H63.5c-2.1,0-3.1.5-4,2.5-4.5,10.1-9.2,20.1-13.6,30.2-.9,2.2-2.1,2.8-4.4,2.7-12.8-.1-25.7-.1-38.5-.1H0c.5-1.2.8-2.1,1.2-2.9C36.7,153.2,72.2,78.1,107.6,2.9c1-2.1,2.2-2.8,4.4-2.7,8.9.1,17.8.1,26.7,0,1.8,0,2.6.6,3.4,2.2,35.6,75.5,71.3,150.9,106.9,226.4.3.5.5,1.2,1,2.3Z"/>
  <path class="st0" d="M664.4,231.1h-12.5c-9.7,0-19.5-.1-29.2.1-2.4,0-3.4-.8-4.3-2.9-25.7-55.7-51.5-111.4-77.3-167.1-.5-1-1-1.9-1.8-3.4-16.1,35.5-32.1,70.5-48.2,106h70.8c2.2,0,3.5.6,4.5,2.7,4.3,8.8,8.7,17.6,13.1,26.4.4.8.8,1.7,1.4,3h-3.5c-33.1,0-66.1,0-99.2-.1-2.5,0-3.6.8-4.5,3-4.4,10.1-9.1,20.1-13.6,30.2-.6,1.3-1.1,2.3-3,2.3-13.7-.1-27.4-.1-41-.1-.4,0-.9-.1-1.6-.2.4-1,.7-1.9,1.1-2.7,35.5-75.2,71.1-150.4,106.5-225.6.9-1.9,1.8-2.6,4-2.6,9,.1,18,.1,27,0,1.7,0,2.6.4,3.4,2.1,35.6,75.5,71.4,151.1,107,226.6.2.5.4,1.1.9,2.3Z"/>
  <path class="st0" d="M1085.2,231.1c-14.6,0-28.7,0-42.9.1-2,0-2.3-1.2-2.9-2.4-11.8-25.5-23.7-51.1-35.5-76.6-14.1-30.5-28.2-60.9-42.3-91.4-.4-.8-.8-1.6-1.5-2.9-16.1,35.4-32.1,70.5-48.2,106.1h71.3c1.9,0,3,.5,3.9,2.3,4.4,9,8.9,17.9,13.4,26.9.4.8.7,1.6,1.2,2.8h-3.6c-33.1,0-66.1,0-99.2-.1-2.2,0-3.3.6-4.2,2.6-4.4,10.1-9.1,20.1-13.6,30.2-.8,1.9-1.8,2.6-3.9,2.6-13.9-.1-27.7-.1-42-.1.5-1.2.8-2.1,1.3-3,35.5-75.1,71-150.2,106.4-225.3.9-2,2-2.7,4.2-2.7,8.9.1,17.8.1,26.7,0,1.9,0,2.8.6,3.6,2.3,35.6,75.4,71.2,150.7,106.8,226.1.3.6.5,1.3,1,2.5Z"/>
  <path class="st0" d="M458.8.1c-.5,1.2-.9,2-1.2,2.9-35.6,75.2-71.1,150.4-106.6,225.6-.9,1.9-1.9,2.6-4,2.5-8.9-.1-17.8-.1-26.7,0-1.8,0-2.8-.5-3.6-2.2C281.1,153.4,245.4,78,209.8,2.5c-.3-.7-.6-1.3-.9-2.3,1.2-.1,2.1-.1,3-.1C224.8.1,237.8.2,250.7,0,252.9,0,253.9.7,254.8,2.7c25.7,56.6,51.5,113.3,77.2,169.9.5,1.1,1,2.2,1.8,3.9.7-1.4,1.2-2.3,1.6-3.3,25.8-56.8,51.7-113.6,77.5-170.4C413.9.6,415,0,417.3,0,430.1.1,443,0,455.8,0c.8.1,1.7.1,3,.1Z"/>
</svg>