<?xml version="1.0" encoding="utf-8"?>
<!-- Generator: Adobe Illustrator 21.0.2, SVG Export Plug-In . SVG Version: 6.00 Build 0)  -->
<svg version="1.1" id="Layer_1" xmlns="http://www.w3.org/2000/svg" xmlns:xlink="http://www.w3.org/1999/xlink" x="0px" y="0px"
	 viewBox="0 0 1085.2 314.5" style="enable-background:new 0 0 1085.2 314.5;" xml:space="preserve">
<style type="text/css">
	.st0{fill:#B52128;}
</style>
<g id="Background">
</g>
<g id="Pattern">
</g>
<g>
	<path class="st0" d="M629.5,0.1c14,0,27.5,0,40.9,0c7,0,7,0,9.5,6.5c22.3,56.7,44.6,113.3,66.9,170c0.3,0.9,0.7,1.7,1.3,3.1
		c0.7-1.4,1.1-2.3,1.6-3.2c26.8-57.8,53.7-115.6,80.5-173.4c1.1-2.3,2.3-3.1,4.8-3.1c14.7,0.1,29.4,0.1,44.5,0.1
		c-0.5,1.1-0.8,2.1-1.2,2.9C828.9,106,779.4,209,730,312c-0.8,1.6-1.5,2.5-3.5,2.5c-13.3-0.1-26.6-0.1-39.9-0.1
		c-0.7,0-1.4-0.1-2.4-0.2c0.5-1.1,0.8-1.9,1.2-2.7c13-27.1,26-54.1,39.1-81.2c0.9-1.8,0.9-3.2,0.1-5c-31.3-74-62.6-148-93.9-222
		C630.4,2.4,630.1,1.5,629.5,0.1z"/>
	<path class="st0" d="M250,231.1c-14.7,0-28.9,0-43.2-0.1c-0.9,0-2.1-1.3-2.6-2.3c-10.1-21.6-20.1-43.3-30.1-64.9
		c-15.9-34.3-31.8-68.6-47.7-102.9c-0.4-0.9-0.9-1.8-1.5-3.1c-16.2,35.5-32.1,70.6-48.2,106.1c1.4,0,2.4,0,3.4,0
		c22.6,0,45.2,0,67.7,0c2,0,3.1,0.5,4.1,2.4c4.4,9,8.9,17.9,13.4,26.9c0.4,0.7,0.7,1.5,1.2,2.7c-1.3,0-2.3,0-3.2,0
		c-33.3,0-66.5,0-99.8,0c-2.1,0-3.1,0.5-4,2.5c-4.5,10.1-9.2,20.1-13.6,30.2c-0.9,2.2-2.1,2.8-4.4,2.7c-12.8-0.1-25.7-0.1-38.5-0.1
		c-0.9,0-1.8,0-3,0c0.5-1.2,0.8-2.1,1.2-2.9c35.5-75.1,71-150.2,106.4-225.4c1-2.1,2.2-2.8,4.4-2.7c8.9,0.1,17.8,0.1,26.7,0
		c1.8,0,2.6,0.6,3.4,2.2c35.6,75.5,71.3,150.9,106.9,226.4C249.3,229.3,249.5,230,250,231.1z"/>
	<path class="st0" d="M664.4,231.1c-4.4,0-8.4,0-12.5,0c-9.7,0-19.5-0.1-29.2,0.1c-2.4,0-3.4-0.8-4.3-2.9
		c-25.7-55.7-51.5-111.4-77.3-167.1c-0.5-1-1-1.9-1.8-3.4c-16.1,35.5-32.1,70.5-48.2,106c1.5,0,2.4,0,3.4,0c22.5,0,45,0,67.4,0
		c2.2,0,3.5,0.6,4.5,2.7c4.3,8.8,8.7,17.6,13.1,26.4c0.4,0.8,0.8,1.7,1.4,3c-1.4,0-2.4,0-3.5,0c-33.1,0-66.1,0-99.2-0.1
		c-2.5,0-3.6,0.8-4.5,3c-4.4,10.1-9.1,20.1-13.6,30.2c-0.6,1.3-1.1,2.3-3,2.3c-13.7-0.1-27.4-0.1-41-0.1c-0.4,0-0.9-0.1-1.6-0.2
		c0.4-1,0.7-1.9,1.1-2.7c35.5-75.2,71.1-150.4,106.5-225.6c0.9-1.9,1.8-2.6,4-2.6c9,0.1,18,0.1,27,0c1.7,0,2.6,0.4,3.4,2.1
		c35.6,75.5,71.4,151.1,107,226.6C663.7,229.3,663.9,229.9,664.4,231.1z"/>
	<path class="st0" d="M1085.2,231.1c-14.6,0-28.7,0-42.9,0.1c-2,0-2.3-1.2-2.9-2.4c-11.8-25.5-23.7-51.1-35.5-76.6
		c-14.1-30.5-28.2-60.9-42.3-91.4c-0.4-0.8-0.8-1.6-1.5-2.9C944,93.3,928,128.4,911.9,164c1.5,0,2.5,0,3.6,0c22.6,0,45.2,0,67.7,0
		c1.9,0,3,0.5,3.9,2.3c4.4,9,8.9,17.9,13.4,26.9c0.4,0.8,0.7,1.6,1.2,2.8c-1.5,0-2.6,0-3.6,0c-33.1,0-66.1,0-99.2-0.1
		c-2.2,0-3.3,0.6-4.2,2.6c-4.4,10.1-9.1,20.1-13.6,30.2c-0.8,1.9-1.8,2.6-3.9,2.6c-13.9-0.1-27.7-0.1-42-0.1c0.5-1.2,0.8-2.1,1.3-3
		C872,153.1,907.5,78,942.9,2.9c0.9-2,2-2.7,4.2-2.7c8.9,0.1,17.8,0.1,26.7,0c1.9,0,2.8,0.6,3.6,2.3
		c35.6,75.4,71.2,150.7,106.8,226.1C1084.5,229.2,1084.7,229.9,1085.2,231.1z"/>
	<path class="st0" d="M458.8,0.1c-0.5,1.2-0.9,2-1.2,2.9C422,78.2,386.5,153.4,351,228.6c-0.9,1.9-1.9,2.6-4,2.5
		c-8.9-0.1-17.8-0.1-26.7,0c-1.8,0-2.8-0.5-3.6-2.2C281.1,153.4,245.4,78,209.8,2.5c-0.3-0.7-0.6-1.3-0.9-2.3c1.2-0.1,2.1-0.1,3-0.1
		c12.9,0,25.9,0.1,38.8-0.1c2.2,0,3.2,0.7,4.1,2.7C280.5,59.3,306.3,116,332,172.6c0.5,1.1,1,2.2,1.8,3.9c0.7-1.4,1.2-2.3,1.6-3.3
		c25.8-56.8,51.7-113.6,77.5-170.4c1-2.2,2.1-2.8,4.4-2.8c12.8,0.1,25.7,0,38.5,0C456.6,0.1,457.5,0.1,458.8,0.1z"/>
</g>
</svg>
