<?xml version="1.0" encoding="utf-8"?>
<!-- Generator: Adobe Illustrator 18.0.0, SVG Export Plug-In . SVG Version: 6.00 Build 0)  -->
<!DOCTYPE svg PUBLIC "-//W3C//DTD SVG 1.1//EN" "http://www.w3.org/Graphics/SVG/1.1/DTD/svg11.dtd">
<svg version="1.1" id="Layer_1" xmlns="http://www.w3.org/2000/svg" xmlns:xlink="http://www.w3.org/1999/xlink" x="0px" y="0px"
	 viewBox="0 0 612 792" enable-background="new 0 0 612 792" xml:space="preserve">
<g>
	<path fill="#9F9F9F" d="M270,439.2c-21.6,21.6-50.4,36-82.8,36s-61.2-14.4-82.8-36C50.4,468,14.4,511.2,0,558
		c0,3.6,57.6,82.8,183.6,82.8s187.2-79.2,187.2-86.4C356.4,511.2,316.8,468,270,439.2z"/>
	<ellipse fill="#9F9F9F" cx="187.2" cy="277.2" rx="118.8" ry="133.2"/>
</g>
<g>
	<path fill="#9F9F9F" d="M543.6,370.8c-14.4,14.4-36,25.2-57.6,25.2s-43.2-10.8-57.6-25.2c-36,18-61.2,50.4-72,79.2
		c0,3.6,39.6,57.6,126,57.6S612,453.6,612,450C601.2,421.2,576,388.8,543.6,370.8z"/>
	<ellipse fill="#9F9F9F" cx="486" cy="248.4" rx="82.8" ry="90"/>
</g>
</svg>
