<?xml version="1.0" encoding="utf-8"?>
<!-- Generator: Adobe Illustrator 18.0.0, SVG Export Plug-In . SVG Version: 6.00 Build 0)  -->
<!DOCTYPE svg PUBLIC "-//W3C//DTD SVG 1.1//EN" "http://www.w3.org/Graphics/SVG/1.1/DTD/svg11.dtd">
<svg version="1.1" id="Layer_1" xmlns="http://www.w3.org/2000/svg" xmlns:xlink="http://www.w3.org/1999/xlink" x="0px" y="0px"
	 viewBox="0 0 47 39.5" enable-background="new 0 0 47 39.5" xml:space="preserve">
<path fill="#FFFFFF" d="M42.1,14.6c0,0,0.2-1.4,0.2-1.9c0-4.9-4-8.9-8.9-8.9c-2.8,0-5.4,1.4-7,3.5C24.9,3.1,21.2,0,16.5,0
	C10.8,0,6.3,4.7,6.3,10.3c0,0.5,0,0.9,0,0.9c-3.5,0-6.3,2.8-6.3,6.3S2.8,24,6.3,24c0.1,0,7.9,0,16.2,0v12.2l-6.1-5.9L15,31.5l8,8
	h0.5H24l8-8l-1.4-1.2l-6.1,5.9V24c8.8,0,17.4,0,17.4,0c2.6,0,4.9-2.3,4.9-4.9C47,16.5,44.7,14.6,42.1,14.6z"/>
</svg>
