<?xml version="1.0" encoding="utf-8"?>
<!-- Generator: Adobe Illustrator 18.0.0, SVG Export Plug-In . SVG Version: 6.00 Build 0)  -->
<!DOCTYPE svg PUBLIC "-//W3C//DTD SVG 1.1//EN" "http://www.w3.org/Graphics/SVG/1.1/DTD/svg11.dtd">
<svg version="1.1" id="Layer_1" xmlns="http://www.w3.org/2000/svg" xmlns:xlink="http://www.w3.org/1999/xlink" x="0px" y="0px"
	 viewBox="-5.5 -6 27 32" enable-background="new -5.5 -6 27 32" xml:space="preserve">
<g>
	<path fill="#9F9F9F" d="M15.5,6V0h-5v-6h-16v20h5v6h6v6h16V6H15.5z M-0.5,13h-4V-5h14v5h-10V13z M0.5,19V1h10h1h3v5h-9v13H0.5z
		 M20.5,25h-14v-5v-1V7h9h1h4V25z"/>
	<path fill="#9F9F9F" d="M15.5,14c0-1.1-0.9-2-2-2s-2,0.9-2,2v2h-1v4h6v-4h-1V14z M14.5,16h-2v-2c0-0.6,0.4-1,1-1s1,0.4,1,1V16z"/>
</g>
</svg>
