<?xml version="1.0" encoding="utf-8"?>
<!-- Generator: Adobe Illustrator 18.0.0, SVG Export Plug-In . SVG Version: 6.00 Build 0)  -->
<!DOCTYPE svg PUBLIC "-//W3C//DTD SVG 1.1//EN" "http://www.w3.org/Graphics/SVG/1.1/DTD/svg11.dtd">
<svg version="1.1" id="Layer_1" xmlns="http://www.w3.org/2000/svg" xmlns:xlink="http://www.w3.org/1999/xlink" x="0px" y="0px"
	 viewBox="0 0 21 17" enable-background="new 0 0 21 17" xml:space="preserve">
<g>
	<g>
		<path fill="#333333" d="M9.2,10.1c-0.7,0.8-1.7,1.3-2.8,1.3c-1.1,0-2.1-0.5-2.8-1.3c-1.8,1-3.1,2.5-3.5,4C0,14.3,2,17,6.3,17
			s6.4-2.8,6.4-2.9C12.2,12.6,10.9,11.1,9.2,10.1z"/>
		<ellipse fill="#333333" cx="6.4" cy="4.6" rx="4.1" ry="4.6"/>
	</g>
	<g>
		<path fill="#333333" d="M18.6,7.8c-0.5,0.5-1.2,0.9-2,0.9c-0.8,0-1.4-0.3-2-0.9c-1.2,0.7-2.1,1.7-2.4,2.8c0,0.1,1.4,2,4.4,2
			s4.4-1.9,4.4-2C20.7,9.5,19.8,8.4,18.6,7.8z"/>
		<ellipse fill="#333333" cx="16.6" cy="3.6" rx="2.8" ry="3.1"/>
	</g>
</g>
</svg>
