<?xml version="1.0" encoding="utf-8"?>
<!-- Generator: Adobe Illustrator 18.0.0, SVG Export Plug-In . SVG Version: 6.00 Build 0)  -->
<!DOCTYPE svg PUBLIC "-//W3C//DTD SVG 1.1//EN" "http://www.w3.org/Graphics/SVG/1.1/DTD/svg11.dtd">
<svg version="1.1" id="Layer_1" xmlns="http://www.w3.org/2000/svg" xmlns:xlink="http://www.w3.org/1999/xlink" x="0px" y="0px"
	 viewBox="0 0 20 14.1" enable-background="new 0 0 20 14.1" xml:space="preserve">
<g>
	<path fill="#00AFE3" d="M19.9,4.1C17.3,1.5,13.7,0,9.9,0C6.2,0,2.7,1.5,0,4.1l1.3,1.3c2.2-2.2,5.3-3.5,8.6-3.5
		c3.4,0,6.5,1.4,8.7,3.7L19.9,4.1C20,4.2,20,4.2,19.9,4.1z"/>
	<path fill="#00AFE3" d="M3,7.1l1.3,1.3C5.8,7,7.8,6.1,9.9,6.1c2.2,0,4.3,0.9,5.7,2.4L17,7.2c-1.8-1.8-4.3-3-7.1-3
		C7.2,4.2,4.8,5.3,3,7.1z"/>
	<path fill="#00AFE3" d="M9.9,8.3c-1.6,0-3,0.6-4.1,1.7l1.3,1.3c0.7-0.7,1.7-1.1,2.8-1.1c1.1,0,2.1,0.5,2.9,1.2l1.3-1.3
		C13.1,9,11.6,8.3,9.9,8.3z"/>
	<path fill="#00AFE3" d="M9.9,12.1c-0.5,0-1,0.2-1.4,0.6l1.5,1.5l1.4-1.4C11.1,12.3,10.5,12.1,9.9,12.1z"/>
</g>
</svg>
