<?xml version="1.0" encoding="utf-8"?>
<!-- Generator: Adobe Illustrator 18.0.0, SVG Export Plug-In . SVG Version: 6.00 Build 0)  -->
<!DOCTYPE svg PUBLIC "-//W3C//DTD SVG 1.1//EN" "http://www.w3.org/Graphics/SVG/1.1/DTD/svg11.dtd">
<svg version="1.1" id="Layer_1" xmlns="http://www.w3.org/2000/svg" xmlns:xlink="http://www.w3.org/1999/xlink" x="0px" y="0px"
	 viewBox="0 0 14.6 14" enable-background="new 0 0 14.6 14" xml:space="preserve">
<symbol  id="New_Symbol_5" viewBox="-7.3 -7 14.6 14">
	<path fill="#E5E5E5" d="M0.1,7c-2.4,0-4.5-1.2-5.8-3.1L-7.3,5l0-4.6l4.2,1.9l-1.7,1.1C-3.7,5-1.9,6,0.1,6c3.3,0,6.2-2.7,6.2-6
		S3.5-6,0.5-6c0-0.5,0-0.7,0-1c4,0,6.8,3.1,6.8,7S4,7,0.1,7z"/>
</symbol>
<use xlink:href="#New_Symbol_5"  width="14.6" height="14" x="-7.3" y="-7" transform="matrix(1 0 0 -1 7.3061 7)" overflow="visible"/>
</svg>
