<?xml version="1.0" encoding="utf-8"?>
<!-- Generator: Adobe Illustrator 18.0.0, SVG Export Plug-In . SVG Version: 6.00 Build 0)  -->
<!DOCTYPE svg PUBLIC "-//W3C//DTD SVG 1.1//EN" "http://www.w3.org/Graphics/SVG/1.1/DTD/svg11.dtd">
<svg version="1.1" id="Layer_1" xmlns="http://www.w3.org/2000/svg" xmlns:xlink="http://www.w3.org/1999/xlink" x="0px" y="0px"
	 viewBox="0 0 20 20" enable-background="new 0 0 20 20" xml:space="preserve">
<g id="New_Symbol_94">
	<g id="icn_dropdown_4_">
	</g>
	<g id="icn_dropdown_3_">
		<g>
			<g>
				<polygon fill="#FFFFFF" points="15.1,2 20,2 20,3.1 16.2,3.1 16.2,6.9 15.1,6.9 				"/>
			</g>
			<g>
				<path fill="#FFFFFF" d="M15.8,3.5c3.4,3.1,4,8.4,0.9,12c-1.4,1.8-3.5,3-5.9,3.2c-1.2,0.1-2.4,0-3.5-0.3l-0.4,1
					c1.4,0.4,2.7,0.5,4.2,0.4c2.6-0.2,4.9-1.5,6.6-3.5c3.4-4.2,2.9-10.4-1.3-13.8L15.8,3.5z"/>
				<path fill="#FFFFFF" d="M3.7,17.6c0.1,0.1,0.3,0.2,0.4,0.3l0.4-1.1c-0.1,0-0.1,0-0.1-0.1c-3.7-3-4.3-8.5-1.2-12.2
					c1.4-1.9,3.5-3,5.8-3.2c1.3-0.1,2.7,0,4,0.5l0.4-1c-1.4-0.5-3-0.8-4.5-0.7C6.4,0.4,4.1,1.8,2.4,3.7C-1,7.9-0.4,14.2,3.7,17.6z"
					/>
			</g>
			<g>
				<polygon fill="#FFFFFF" points="4.9,18 0,18 0,16.9 3.8,16.9 3.8,13.1 4.9,13.1 				"/>
			</g>
		</g>
	</g>
</g>
</svg>
