<?xml version="1.0" encoding="utf-8"?>
<!-- Generator: Adobe Illustrator 18.0.0, SVG Export Plug-In . SVG Version: 6.00 Build 0)  -->
<!DOCTYPE svg PUBLIC "-//W3C//DTD SVG 1.1//EN" "http://www.w3.org/Graphics/SVG/1.1/DTD/svg11.dtd">
<svg version="1.1" id="Layer_1" xmlns="http://www.w3.org/2000/svg" xmlns:xlink="http://www.w3.org/1999/xlink" x="0px" y="0px"
	 viewBox="0 3 27 27" enable-background="new 0 3 27 27" xml:space="preserve">
<g id="New_Symbol_39">
	<path fill="none" stroke="#424242" stroke-miterlimit="10" d="M0.8,14.5"/>
	<polygon fill="#424242" points="21.2,16.5 20.2,15.6 20.1,15.6 14.4,9.8 13.5,10.7 19.2,16.5 13.5,22.2 14.4,23.1 20.1,17.4 
		20.2,17.4 21.2,16.5 	"/>
	<g>
		<rect y="15.8" fill="#424242" width="20.2" height="1.4"/>
	</g>
	<path fill="#424242" d="M13.5,3C7.6,3,2.4,6.9,0.7,12.4H2c1.8-4.9,6.3-8.1,11.5-8.1c6.8,0,12.1,5.4,12.1,12.1s-5.4,12.1-12.1,12.1
		c-5.1,0-9.7-3.2-11.5-8.1H0.7C2.4,26.1,7.6,30,13.5,30C20.9,30,27,23.9,27,16.5S20.9,3,13.5,3z"/>
</g>
</svg>
