<?xml version="1.0" encoding="utf-8"?>
<!-- Generator: Adobe Illustrator 18.0.0, SVG Export Plug-In . SVG Version: 6.00 Build 0)  -->
<!DOCTYPE svg PUBLIC "-//W3C//DTD SVG 1.1//EN" "http://www.w3.org/Graphics/SVG/1.1/DTD/svg11.dtd">
<svg version="1.1" id="Layer_1" xmlns="http://www.w3.org/2000/svg" xmlns:xlink="http://www.w3.org/1999/xlink" x="0px" y="0px"
	 viewBox="0 0 21.3 18.5" enable-background="new 0 0 21.3 18.5" xml:space="preserve">
<g>
	<path fill="#D63E3E" d="M1.6,18c-0.4,0-0.8-0.2-1-0.5c-0.2-0.3-0.2-0.7,0.1-1.1L9.8,1.1c0.2-0.4,0.6-0.6,0.9-0.6
		c0.4,0,0.7,0.2,0.9,0.6l8.9,15.3c0.2,0.4,0.2,0.8,0.1,1.1c-0.2,0.3-0.5,0.5-1,0.5H1.6z"/>
	<g>
		<path fill="#FFFFFF" d="M10.7,1c0.2,0,0.4,0.1,0.5,0.4l8.9,15.3c0.3,0.5,0.1,0.9-0.5,0.9h-18c-0.5,0-0.8-0.4-0.5-0.9l9.1-15.3
			C10.4,1.1,10.6,1,10.7,1 M10.7,0L10.7,0c-0.6,0-1,0.3-1.4,0.8L0.3,16.2c-0.3,0.5-0.4,1.1-0.1,1.6c0.3,0.5,0.8,0.8,1.4,0.8h18
			c0.6,0,1.1-0.3,1.4-0.8c0.3-0.5,0.3-1.1-0.1-1.6L12.1,0.9C11.8,0.3,11.3,0,10.7,0L10.7,0z"/>
	</g>
</g>
<rect x="9.6" y="5.5" fill="#FFFFFF" width="2" height="6"/>
<rect x="9.6" y="13.4" fill="#FFFFFF" width="2" height="2"/>
<g>
	<path fill="#D63E3E" d="M28.7,22.5c-0.4,0-0.8,0-1-0.3c-0.2-0.3-0.2-0.6,0.1-1l9.1-15.2c0.2-0.4,0.6-0.6,0.9-0.6
		c0.4,0,0.7,0.2,0.9,0.6l8.9,15.3c0.2,0.4,0.2,0.6,0.1,0.9c-0.2,0.3-0.5,0.3-1,0.3H28.7z"/>
	<g>
		<path fill="#FFFFFF" d="M37.8,5.9c0.2,0,0.4,0.1,0.5,0.4l8.9,15.4c0.3,0.5,0.1,0.9-0.5,0.9h-18c-0.5,0-0.8-0.5-0.5-0.9l9.1-15.3
			C37.5,6,37.6,5.9,37.8,5.9 M37.8,4.9L37.8,4.9c-0.6,0-1,0.3-1.4,0.8L27.4,21c-0.3,0.5-0.4,1.2-0.1,1.7c0.3,0.5,0.8,0.8,1.4,0.8h18
			c0.6,0,1.1-0.4,1.4-0.8c0.3-0.5,0.3-1.1-0.1-1.7L39.2,5.7C38.9,5.2,38.4,4.9,37.8,4.9L37.8,4.9z"/>
	</g>
</g>
</svg>
