<?xml version="1.0" encoding="utf-8"?>
<!-- Generator: Adobe Illustrator 18.0.0, SVG Export Plug-In . SVG Version: 6.00 Build 0)  -->
<!DOCTYPE svg PUBLIC "-//W3C//DTD SVG 1.1//EN" "http://www.w3.org/Graphics/SVG/1.1/DTD/svg11.dtd">
<svg version="1.1" id="Layer_1" xmlns="http://www.w3.org/2000/svg" xmlns:xlink="http://www.w3.org/1999/xlink" x="0px" y="0px"
	 viewBox="0 0 90 90" enable-background="new 0 0 90 90" xml:space="preserve">
<path fill="#ADADAD" d="M45,0C20.1,0,0,20.1,0,45c0,24.9,20.1,45,45,45c24.9,0,45-20.1,45-45C90,20.1,69.9,0,45,0z M33.1,4.7
	c-6.2,4.5-10.3,12.4-10.3,21.4c0,14.1,10,25.5,22.4,25.5s22.4-11.4,22.4-25.5c0-8.9-4-16.7-10-21.3C74.6,10.2,87,26.2,87,45
	c0,9.4-3.1,18.1-8.4,25.1c-3.2-7-9.7-13.8-18-18.5c-4,4.4-9.5,7.1-15.5,7.1c-6,0-11.4-2.7-15.4-7.1c-8.5,4.8-15,11.5-18,18.9
	C6.3,63.4,3,54.6,3,45C3,26,15.7,9.9,33.1,4.7z"/>
</svg>
