<?xml version="1.0" encoding="utf-8"?>
<!-- Generator: Adobe Illustrator 18.0.0, SVG Export Plug-In . SVG Version: 6.00 Build 0)  -->
<!DOCTYPE svg PUBLIC "-//W3C//DTD SVG 1.1//EN" "http://www.w3.org/Graphics/SVG/1.1/DTD/svg11.dtd">
<svg version="1.1" id="Layer_1" xmlns="http://www.w3.org/2000/svg" xmlns:xlink="http://www.w3.org/1999/xlink" x="0px" y="0px"
	 viewBox="2.5 2.5 15 15" enable-background="new 2.5 2.5 15 15" xml:space="preserve">
<g>
	<path fill="#E5E5E5" d="M29.5,6.5c1.9,0,3.5,1.6,3.5,3.5s-1.6,3.5-3.5,3.5S26,11.9,26,10S27.6,6.5,29.5,6.5 M29.5,4.5
		C26.5,4.5,24,7,24,10s2.5,5.5,5.5,5.5S35,13,35,10S32.5,4.5,29.5,4.5L29.5,4.5z"/>
</g>
<path fill="#E5E5E5" d="M17.5,11V9h-2.1c-0.1-0.8-0.4-1.5-0.9-2.1L16,5.4L14.6,4l-1.5,1.5C12.5,5,11.8,4.7,11,4.6V2.5H9v2.1
	C8.2,4.7,7.5,5,6.9,5.5L5.4,4L4,5.4l1.5,1.5C5,7.5,4.7,8.2,4.6,9H2.5v2h2.1c0.1,0.8,0.4,1.5,0.9,2.1L4,14.6L5.4,16l1.5-1.5
	C7.5,15,8.2,15.3,9,15.4v2.1h2v-2.1c0.8-0.1,1.5-0.4,2.1-0.9l1.5,1.5l1.4-1.4l-1.5-1.5c0.4-0.6,0.7-1.3,0.9-2.1H17.5z M10,13.5
	c-1.9,0-3.5-1.6-3.5-3.5S8.1,6.5,10,6.5s3.5,1.6,3.5,3.5S11.9,13.5,10,13.5z"/>
</svg>
