<?xml version="1.0" encoding="utf-8"?>
<!-- Generator: Adobe Illustrator 18.0.0, SVG Export Plug-In . SVG Version: 6.00 Build 0)  -->
<!DOCTYPE svg PUBLIC "-//W3C//DTD SVG 1.1//EN" "http://www.w3.org/Graphics/SVG/1.1/DTD/svg11.dtd">
<svg version="1.1" id="Layer_1" xmlns="http://www.w3.org/2000/svg" xmlns:xlink="http://www.w3.org/1999/xlink" x="0px" y="0px"
	 viewBox="0 1.4 22 19.2" enable-background="new 0 1.4 22 19.2" xml:space="preserve">
<path fill="#05A0DD" d="M1.7,20c-0.4,0-0.8-0.2-1-0.5s-0.2-0.7,0.1-1.1l9.4-15.8C10.3,2.2,10.7,2,11.1,2c0.4,0,0.7,0.2,0.9,0.6
	l9.2,15.8c0.2,0.4,0.2,0.8,0.1,1.1c-0.2,0.3-0.5,0.5-1,0.5H1.7z"/>
<g>
	<path fill="#FFFFFF" d="M11.1,2.5c0.2,0,0.4,0.1,0.5,0.4l9.2,15.8c0.3,0.5,0.1,0.9-0.5,0.9H1.7c-0.5,0-0.8-0.4-0.5-0.9l9.4-15.8
		C10.7,2.6,10.9,2.5,11.1,2.5 M11.1,1.4L11.1,1.4c-0.6,0-1,0.3-1.4,0.8L0.3,18.2c-0.3,0.5-0.4,1.1-0.1,1.7s0.8,0.8,1.4,0.8h18.6
		c0.6,0,1.1-0.3,1.4-0.8s0.3-1.1-0.1-1.7L12.5,2.4C12.2,1.8,11.7,1.4,11.1,1.4L11.1,1.4z"/>
</g>
<rect x="9.9" y="7.1" fill="#FFFFFF" width="2.1" height="6.2"/>
<rect x="9.9" y="15.3" fill="#FFFFFF" width="2.1" height="2.1"/>
</svg>
