<?xml version="1.0" encoding="utf-8"?>
<!-- Generator: Adobe Illustrator 18.0.0, SVG Export Plug-In . SVG Version: 6.00 Build 0)  -->
<!DOCTYPE svg PUBLIC "-//W3C//DTD SVG 1.1//EN" "http://www.w3.org/Graphics/SVG/1.1/DTD/svg11.dtd">
<svg version="1.1" id="Layer_1" xmlns="http://www.w3.org/2000/svg" xmlns:xlink="http://www.w3.org/1999/xlink" x="0px" y="0px"
	 viewBox="0 0 3 17" enable-background="new 0 0 3 17" xml:space="preserve">
<path fill="#444444" d="M1.5,14c0.2,0,0.4,0,0.6,0.1c0.2,0.1,0.3,0.2,0.5,0.3c0.1,0.1,0.2,0.3,0.3,0.5C3,15.1,3,15.3,3,15.5
	s0,0.4-0.1,0.6c-0.1,0.2-0.2,0.3-0.3,0.5c-0.1,0.1-0.3,0.2-0.5,0.3C1.9,17,1.7,17,1.5,17c-0.2,0-0.4,0-0.6-0.1
	c-0.2-0.1-0.3-0.2-0.5-0.3c-0.1-0.1-0.2-0.3-0.3-0.5S0,15.7,0,15.5c0-0.2,0-0.4,0.1-0.6c0.1-0.2,0.2-0.3,0.3-0.5
	c0.1-0.1,0.3-0.2,0.5-0.3C1.1,14,1.3,14,1.5,14z"/>
<path fill="#444444" d="M1.5,7c0.2,0,0.4,0,0.6,0.1c0.2,0.1,0.3,0.2,0.5,0.3c0.1,0.1,0.2,0.3,0.3,0.5C3,8.1,3,8.3,3,8.5
	s0,0.4-0.1,0.6C2.8,9.3,2.7,9.4,2.6,9.6C2.4,9.7,2.3,9.8,2.1,9.9C1.9,10,1.7,10,1.5,10c-0.2,0-0.4,0-0.6-0.1
	C0.7,9.8,0.6,9.7,0.4,9.6C0.3,9.4,0.2,9.3,0.1,9.1S0,8.7,0,8.5c0-0.2,0-0.4,0.1-0.6c0.1-0.2,0.2-0.3,0.3-0.5
	c0.1-0.1,0.3-0.2,0.5-0.3C1.1,7,1.3,7,1.5,7z"/>
<path fill="#444444" d="M1.5,0c0.2,0,0.4,0,0.6,0.1c0.2,0.1,0.3,0.2,0.5,0.3c0.1,0.1,0.2,0.3,0.3,0.5C3,1.1,3,1.3,3,1.5
	s0,0.4-0.1,0.6C2.8,2.3,2.7,2.4,2.6,2.6C2.4,2.7,2.3,2.8,2.1,2.9C1.9,3,1.7,3,1.5,3C1.3,3,1.1,3,0.9,2.9C0.7,2.8,0.6,2.7,0.4,2.6
	C0.3,2.4,0.2,2.3,0.1,2.1S0,1.7,0,1.5c0-0.2,0-0.4,0.1-0.6s0.2-0.3,0.3-0.5c0.1-0.1,0.3-0.2,0.5-0.3C1.1,0,1.3,0,1.5,0z"/>
</svg>
