<?xml version="1.0" encoding="utf-8"?>
<!-- Generator: Adobe Illustrator 18.0.0, SVG Export Plug-In . SVG Version: 6.00 Build 0)  -->
<!DOCTYPE svg PUBLIC "-//W3C//DTD SVG 1.1//EN" "http://www.w3.org/Graphics/SVG/1.1/DTD/svg11.dtd">
<svg version="1.1" id="Layer_1" xmlns="http://www.w3.org/2000/svg" xmlns:xlink="http://www.w3.org/1999/xlink" x="0px" y="0px"
	 viewBox="0 0 15 16" enable-background="new 0 0 15 16" xml:space="preserve">
<rect x="7.5" y="10" fill="#E9E9E9" width="5" height="3"/>
<path fill="#E9E9E9" d="M10,4V0H0v12h5v4h10V4H10z M1,11V1h8v3H5v7H1z M14,5v10H6V5H14z"/>
<path fill="none" stroke="#E9E9E9" stroke-miterlimit="10" d="M11.5,11.2c0,0.7-0.6,1.3-1.3,1.3H9.8c-0.7,0-1.3-0.6-1.3-1.3V8.8
	c0-0.7,0.6-1.3,1.3-1.3h0.5c0.7,0,1.3,0.6,1.3,1.3V11.2z"/>
</svg>
