<?xml version="1.0" encoding="utf-8"?>
<!-- Generator: Adobe Illustrator 18.0.0, SVG Export Plug-In . SVG Version: 6.00 Build 0)  -->
<!DOCTYPE svg PUBLIC "-//W3C//DTD SVG 1.1//EN" "http://www.w3.org/Graphics/SVG/1.1/DTD/svg11.dtd">
<svg version="1.1" id="Layer_1" xmlns="http://www.w3.org/2000/svg" xmlns:xlink="http://www.w3.org/1999/xlink" x="0px" y="0px"
	 viewBox="0 0 13.1 16.1" enable-background="new 0 0 13.1 16.1" xml:space="preserve">
<g>
	<polygon fill="#E5E5E5" points="13.1,10.1 12.4,9.4 9.7,12 7.1,9.4 6.4,10.1 9,12.7 6.4,15.4 7.1,16.1 9.7,13.4 12.4,16.1 
		13.1,15.4 10.4,12.7 	"/>
	<path fill="#E5E5E5" d="M1,12.5v-11C1,1.2,1.2,1,1.5,1h8C9.8,1,10,1.2,10,1.5v7l1-1v-6C11,0.7,10.3,0,9.5,0h-8C0.7,0,0,0.7,0,1.5
		v11C0,13.3,0.7,14,1.5,14h3l1-1h-4C1.2,13,1,12.8,1,12.5z"/>
</g>
</svg>
