<?xml version="1.0" encoding="utf-8"?>
<!-- Generator: Adobe Illustrator 18.0.0, SVG Export Plug-In . SVG Version: 6.00 Build 0)  -->
<!DOCTYPE svg PUBLIC "-//W3C//DTD SVG 1.1//EN" "http://www.w3.org/Graphics/SVG/1.1/DTD/svg11.dtd">
<svg version="1.1" id="Layer_1" xmlns="http://www.w3.org/2000/svg" xmlns:xlink="http://www.w3.org/1999/xlink" x="0px" y="0px"
	 viewBox="0 3 46.6 35.9" enable-background="new 0 3 46.6 35.9" xml:space="preserve">
<g id="New_Symbol_24">
	<g>
		<path fill="#424242" d="M0,5.7l0.9-1.8C1.3,3.5,1.8,3,2.7,3C3.1,3,3.5,3,4,3.5l19.5,12.4L43,3.5C43.5,3,44.3,3,44.8,3
			s1.3,0.4,1.3,0.9L47,5.7L23.9,20.8h-0.9L0,5.7z"/>
		<path fill="#424242" d="M0,24.3l0.9-1.8c0.4-0.9,0.9-0.9,1.8-0.9c0.4,0,0.9,0,1.3,0.4l19.5,12.4L43,22.1c0.4-0.4,0.9-0.4,1.3-0.4
			s1.3,0.4,1.3,0.9l0.9,1.8L23.9,39h-0.9L0,24.3z"/>
	</g>
</g>
</svg>
