<?xml version="1.0" encoding="utf-8"?>
<!-- Generator: Adobe Illustrator 18.0.0, SVG Export Plug-In . SVG Version: 6.00 Build 0)  -->
<!DOCTYPE svg PUBLIC "-//W3C//DTD SVG 1.1//EN" "http://www.w3.org/Graphics/SVG/1.1/DTD/svg11.dtd">
<svg version="1.1" id="Layer_1" xmlns="http://www.w3.org/2000/svg" xmlns:xlink="http://www.w3.org/1999/xlink" x="0px" y="0px"
	 viewBox="2.5 4.8 42 32.3" enable-background="new 2.5 4.8 42 32.3" xml:space="preserve">
<g id="New_Symbol_24">
	<g>
		<path fill="#C5C5C5" d="M2.5,7.3l0.8-1.7C3.8,5.2,4.2,5,4.8,5c0.4,0,0.8,0,1.3,0.4l17.4,10.9L40.9,5.2c0.4-0.4,1.3-0.4,1.7-0.4
			c0.4,0,1.3,0.4,1.3,0.8l0.6,1.7L23.9,20.8h-0.8L2.5,7.3z"/>
		<path fill="#C5C5C5" d="M2.5,23.9l0.8-1.7c0.4-0.8,0.8-0.8,1.7-0.8c0.4,0,0.8,0,1.3,0.4L23.7,33L40.9,22c0.4-0.4,0.8-0.4,1.3-0.4
			s1.3,0.4,1.3,0.8l0.8,1.7l-20.2,13h-1L2.5,23.9z"/>
	</g>
</g>
</svg>
