<?xml version="1.0" encoding="utf-8"?>
<!-- Generator: Adobe Illustrator 18.0.0, SVG Export Plug-In . SVG Version: 6.00 Build 0)  -->
<!DOCTYPE svg PUBLIC "-//W3C//DTD SVG 1.1//EN" "http://www.w3.org/Graphics/SVG/1.1/DTD/svg11.dtd">
<svg version="1.1" id="Layer_1" xmlns="http://www.w3.org/2000/svg" xmlns:xlink="http://www.w3.org/1999/xlink" x="0px" y="0px"
	 viewBox="0 0 566.6 83.6" enable-background="new 0 0 566.6 83.6" xml:space="preserve">
<path fill-rule="evenodd" clip-rule="evenodd" fill="#E5E5E5" d="M141,68.6c-13.2,9.8-32.4,15-48.8,15c-23.1,0-43.9-8.6-59.7-22.9
	c-1.2-1.1-0.1-2.7,1.4-1.8c17,9.9,38,15.9,59.7,15.9c14.6,0,30.7-3.1,45.5-9.4C141.3,64.6,143.2,67,141,68.6z"/>
<path fill-rule="evenodd" clip-rule="evenodd" fill="#E5E5E5" d="M146.5,62.3c-1.7-2.2-11.2-1-15.4-0.5c-1.3,0.2-1.5-1-0.3-1.8
	c7.6-5.3,20-3.8,21.4-2c1.4,1.8-0.4,14.3-7.5,20.2c-1.1,0.9-2.1,0.4-1.6-0.8C144.6,73.5,148.2,64.5,146.5,62.3z"/>
<path fill-rule="evenodd" clip-rule="evenodd" fill="#E5E5E5" d="M131.4,22.3v-5.2c0-0.8,0.6-1.3,1.3-1.3h23.1
	c0.7,0,1.3,0.6,1.3,1.3v4.4c0,0.8-0.6,1.7-1.8,3.3l-12,17.2c4.5-0.1,9.1,0.6,13.2,2.9c0.9,0.5,1.2,1.3,1.2,2v5.5
	c0,0.8-0.8,1.6-1.7,1.2c-7.1-3.7-16.6-4.2-24.4,0c-0.8,0.4-1.6-0.4-1.6-1.2v-5.3c0-0.8,0-2.3,0.9-3.6l13.9-20h-12.1
	C132,23.6,131.4,23.1,131.4,22.3z"/>
<path fill-rule="evenodd" clip-rule="evenodd" fill="#E5E5E5" d="M47,54.7h-7c-0.7,0-1.2-0.5-1.3-1.2l0-36.3c0-0.7,0.6-1.3,1.3-1.3
	h6.6c0.7,0,1.2,0.6,1.3,1.2v4.7h0.1c1.7-4.6,4.9-6.7,9.3-6.7c4.4,0,7.2,2.1,9.1,6.7c1.7-4.6,5.6-6.7,9.7-6.7c3,0,6.2,1.2,8.2,4
	c2.2,3.1,1.8,7.5,1.8,11.4l0,22.9c0,0.7-0.6,1.3-1.4,1.3h-7c-0.7,0-1.3-0.6-1.3-1.3V34.2c0-1.5,0.1-5.3-0.2-6.8
	c-0.5-2.4-2.1-3.1-4.1-3.1c-1.7,0-3.5,1.2-4.2,3c-0.7,1.8-0.6,4.9-0.6,7v19.2c0,0.7-0.6,1.3-1.4,1.3h-7c-0.7,0-1.3-0.6-1.3-1.3
	l0-19.2c0-4.1,0.7-10-4.3-10c-5.1,0-4.9,5.8-4.9,10v19.2C48.4,54.1,47.8,54.7,47,54.7z"/>
<path fill-rule="evenodd" clip-rule="evenodd" fill="#E5E5E5" d="M177.1,22.5c-5.2,0-5.5,7.1-5.5,11.5c0,4.4-0.1,13.9,5.4,13.9
	c5.4,0,5.7-7.6,5.7-12.3c0-3.1-0.1-6.7-1-9.6C180.9,23.5,179.4,22.5,177.1,22.5z M177.1,15.1c10.4,0,16.1,9,16.1,20.5
	c0,11.1-6.2,19.9-16.1,19.9c-10.2,0-15.8-9-15.8-20.2C161.3,23.9,166.9,15.1,177.1,15.1z"/>
<path fill-rule="evenodd" clip-rule="evenodd" fill="#E5E5E5" d="M206.7,54.7h-7c-0.7,0-1.3-0.6-1.3-1.3l0-36.3
	c0.1-0.7,0.6-1.2,1.4-1.2h6.5c0.6,0,1.1,0.4,1.3,1v5.6h0.1c2-5,4.7-7.3,9.6-7.3c3.1,0,6.2,1.1,8.2,4.3c1.8,2.9,1.8,7.8,1.8,11.3
	v22.8c-0.1,0.6-0.7,1.1-1.4,1.1h-7.1c-0.6,0-1.2-0.5-1.2-1.1V33.9c0-4,0.5-9.8-4.4-9.8c-1.7,0-3.3,1.1-4.1,2.9
	c-1,2.2-1.1,4.4-1.1,6.9v19.5C208.1,54.1,207.5,54.7,206.7,54.7z"/>
<path fill-rule="evenodd" clip-rule="evenodd" fill="#E5E5E5" d="M120.1,54.6c-0.5,0.4-1.1,0.5-1.7,0.2c-2.3-2-2.8-2.9-4-4.7
	c-3.9,4-6.6,5.1-11.6,5.1c-5.9,0-10.5-3.7-10.5-11c0-5.7,3.1-9.6,7.5-11.6c3.8-1.7,9.1-2,13.2-2.5v-0.9c0-1.7,0.1-3.7-0.9-5.1
	c-0.9-1.3-2.5-1.8-3.9-1.8c-2.7,0-5.1,1.4-5.7,4.2c-0.1,0.6-0.6,1.3-1.2,1.3l-6.8-0.7c-0.6-0.1-1.2-0.6-1.1-1.5
	c1.6-8.3,9-10.8,15.7-10.8c3.4,0,7.9,0.9,10.6,3.5c3.4,3.2,3.1,7.5,3.1,12.2v11c0,3.3,1.4,4.8,2.7,6.6c0.4,0.6,0.6,1.4,0,1.9
	C124,51.1,121.5,53.4,120.1,54.6L120.1,54.6z M113,37.4c0,2.8,0.1,5-1.3,7.5c-1.1,2-2.9,3.2-4.9,3.2c-2.7,0-4.3-2.1-4.3-5.1
	c0-6,5.4-7.1,10.5-7.1V37.4z"/>
<path fill-rule="evenodd" clip-rule="evenodd" fill="#E5E5E5" d="M27.8,54.6c-0.5,0.4-1.1,0.5-1.7,0.2c-2.3-2-2.8-2.9-4-4.7
	c-3.9,4-6.6,5.1-11.6,5.1C4.6,55.2,0,51.5,0,44.2c0-5.7,3.1-9.6,7.5-11.6c3.8-1.7,9.1-2,13.2-2.5v-0.9c0-1.7,0.1-3.7-0.9-5.1
	c-0.9-1.3-2.5-1.8-3.9-1.8c-2.7,0-5.1,1.4-5.7,4.2c-0.1,0.6-0.6,1.3-1.2,1.3l-6.8-0.7c-0.6-0.1-1.2-0.6-1-1.5
	c1.6-8.3,9-10.8,15.7-10.8c3.4,0,7.9,0.9,10.6,3.5c3.4,3.2,3.1,7.5,3.1,12.2v11c0,3.3,1.4,4.8,2.7,6.6c0.4,0.6,0.6,1.4,0,1.9
	C31.8,51.1,29.2,53.4,27.8,54.6L27.8,54.6z M20.7,37.4c0,2.8,0.1,5-1.3,7.5c-1.1,2-2.9,3.2-4.9,3.2c-2.7,0-4.3-2.1-4.3-5.1
	c0-6,5.4-7.1,10.5-7.1V37.4z"/>
<path fill="#9F9F9F" d="M541.2,52c0.3-0.2,0.4-0.6,0.3-0.9L540,48c-0.1-0.2-0.2-0.3-0.4-0.4c-0.2-0.1-0.4,0-0.6,0.1
	c-2,1.1-5.1,2.4-8.7,2.4c-8.8,0-12.2-7.3-12.5-13.9h23.6c0.4,0,0.7-0.3,0.7-0.7v-1.1c0-12.3-5.6-19.6-14.9-19.6
	c-9.1,0-15.4,8.1-15.4,19.7c0,12.7,6.9,20.9,17.6,20.9C533.6,55.4,538.2,54.1,541.2,52z M517.9,31.2c0.4-6.6,4.2-11.2,9.5-11.2
	c5.6,0,8.4,5.5,8.7,11.2H517.9z"/>
<path fill="#9F9F9F" d="M481.2,16.5v37.3c0,0.4-0.3,0.7-0.7,0.7h-4.2c-0.4,0-0.7-0.3-0.7-0.7V16.5c0-0.4,0.3-0.7,0.7-0.7h4.2
	C480.9,15.8,481.2,16.1,481.2,16.5z M478.4,0c-2.2,0-3.7,1.6-3.7,3.9c0,2.3,1.6,3.9,3.7,3.9c2.2,0,3.8-1.6,3.8-3.9
	C482.2,1.6,480.6,0,478.4,0z"/>
<path fill="#9F9F9F" d="M305.5,55.4c10.2,0,17.4-8.3,17.4-20.2c0-11.8-7.3-20.3-17.3-20.3c-10.2,0-17.4,8.3-17.4,20.3
	C288.2,46.9,295.4,55.4,305.5,55.4z M305.5,20c6.8,0,11.4,6.1,11.4,15.1c0,9-4.6,15-11.5,15c-6.8,0-11.4-6-11.4-15
	C294,26.1,298.7,20,305.5,20z"/>
<path fill="#9F9F9F" d="M343.9,14.7c-2.6,0-5.8,0.6-10.1,5l-0.4-3.4c0-0.4-0.4-0.6-0.7-0.6h-3.5c-0.4,0-0.7,0.3-0.7,0.7v37.3
	c0,0.4,0.3,0.7,0.7,0.7h4.2c0.4,0,0.7-0.3,0.7-0.7V26.1c3.8-4,6.5-5.6,9-5.6c1.2,0,1.8,0.2,2.4,0.4l0.2,0.1c0.2,0.1,0.4,0.1,0.6,0
	c0.2-0.1,0.3-0.2,0.4-0.4l1.5-4.1c0.1-0.3,0-0.7-0.3-0.9C346.8,15.1,345.3,14.7,343.9,14.7z"/>
<path fill="#9F9F9F" d="M562.4,14.7c-2.6,0-5.8,0.6-10.1,5l-0.4-3.4c0-0.4-0.4-0.6-0.7-0.6h-3.5c-0.4,0-0.7,0.3-0.7,0.7v37.3
	c0,0.4,0.3,0.7,0.7,0.7h4.2c0.4,0,0.7-0.3,0.7-0.7V26.1c3.8-4,6.5-5.6,9-5.6c1.2,0,1.8,0.2,2.4,0.4l0.2,0.1c0.2,0.1,0.4,0.1,0.6,0
	c0.2-0.1,0.3-0.2,0.4-0.4l1.5-4.1c0.1-0.3,0-0.7-0.3-0.9C565.3,15.1,563.8,14.7,562.4,14.7z"/>
<path fill="#9F9F9F" d="M465.4,14.7c-2.6,0-5.8,0.6-10.1,5l-0.4-3.4c0-0.4-0.4-0.6-0.7-0.6h-3.5c-0.4,0-0.7,0.3-0.7,0.7v37.3
	c0,0.4,0.3,0.7,0.7,0.7h4.2c0.4,0,0.7-0.3,0.7-0.7V26.1c3.8-4,6.5-5.6,9-5.6c1.2,0,1.8,0.2,2.4,0.4l0.2,0.1c0.2,0.1,0.4,0.1,0.6,0
	c0.2-0.1,0.3-0.2,0.4-0.4l1.5-4.1c0.1-0.3,0-0.7-0.3-0.9C468.4,15.1,466.9,14.7,465.4,14.7z"/>
<path fill="#9F9F9F" d="M234.1,52.3c1.8,1.2,5.5,3.1,10.5,3.1c8.4,0,13.9-4.5,13.9-11.4c0-3-0.9-5.3-2.6-7.2c-2-2-4.6-3.3-7.2-4.5
	l-0.5-0.2c-4.3-2-7.2-3.5-7.2-7c0-3.3,2.4-5,7.2-5c3.5,0,6.1,0.9,8.1,1.8c0.2,0.1,0.5,0.1,0.7-0.1c0.2-0.1,0.3-0.4,0.3-0.6v-3.9
	c0-0.3-0.2-0.6-0.4-0.7c-2-0.8-5.1-1.8-8.9-1.8c-8.7,0-12.6,5.3-12.6,10.6c0,7,5.3,9.4,9.6,11.4l0.7,0.3c3.8,1.7,7.2,3.2,7.2,6.9
	c0,5.5-5.5,6.1-7.9,6.1c-4.3,0-6.9-1.5-8.6-2.5c-0.2-0.1-0.4-0.1-0.6-0.1c-0.2,0.1-0.4,0.2-0.4,0.4l-1.4,3.4
	C233.6,51.7,233.8,52.1,234.1,52.3z"/>
<path fill="#9F9F9F" d="M285.8,51l-1.4-3.1c-0.1-0.2-0.3-0.3-0.5-0.4c-0.2-0.1-0.4,0-0.6,0.1c-1.6,1.2-3.8,2.5-6.1,2.5
	c-1.4,0-3.2-0.4-3.2-3.9V20.9h8.9c0.3,0,0.6-0.2,0.7-0.5l1.4-3.6c0.1-0.2,0.1-0.5-0.1-0.7c-0.1-0.2-0.4-0.3-0.6-0.3h-10.3V6.7
	c0-0.2-0.1-0.5-0.3-0.6c-0.2-0.1-0.4-0.2-0.7-0.1l-4.2,1.5c-0.3,0.1-0.5,0.4-0.5,0.7v7.6H263c-0.4,0-0.7,0.3-0.7,0.7v3.6
	c0,0.4,0.3,0.7,0.7,0.7h5.4v25.6c0,5.7,2.9,8.9,8.1,8.9c3.7,0,7-1.9,9.2-3.5C285.8,51.7,285.9,51.4,285.8,51z"/>
<path fill="#9F9F9F" d="M509.9,51l-1.4-3.1c-0.1-0.2-0.3-0.3-0.5-0.4c-0.2-0.1-0.4,0-0.6,0.1c-1.6,1.2-3.8,2.5-6.1,2.5
	c-1.4,0-3.2-0.4-3.2-3.9V20.9h8.9c0.3,0,0.6-0.2,0.7-0.5l1.4-3.6c0.1-0.2,0.1-0.5-0.1-0.7c-0.1-0.2-0.4-0.3-0.6-0.3H498V6.7
	c0-0.2-0.1-0.5-0.3-0.6c-0.2-0.1-0.4-0.2-0.7-0.1l-4.2,1.5c-0.3,0.1-0.5,0.4-0.5,0.7v7.6H487c-0.4,0-0.7,0.3-0.7,0.7v3.6
	c0,0.4,0.3,0.7,0.7,0.7h5.4v25.6c0,5.7,2.9,8.9,8.1,8.9c3.7,0,7-1.9,9.2-3.5C509.9,51.7,510,51.4,509.9,51z"/>
<path fill="#9F9F9F" d="M444.9,15.7c-0.1-0.2-0.4-0.3-0.6-0.3h-4.5c-0.3,0-0.6,0.2-0.7,0.5l-8.5,29.6L422.1,16
	c-0.1-0.3-0.4-0.5-0.7-0.5h-4.7c-0.3,0-0.6,0.2-0.7,0.5l-8.2,29.6L399.1,16c-0.1-0.3-0.4-0.5-0.7-0.5h-4.6c-0.2,0-0.5,0.1-0.6,0.3
	c-0.1,0.2-0.2,0.4-0.1,0.6L405,54c0.1,0.3,0.4,0.5,0.7,0.5h4.3c0.3,0,0.6-0.2,0.7-0.5l8.5-29.7l8.5,29.7c0.1,0.3,0.4,0.5,0.7,0.5
	h4.3c0.3,0,0.6-0.2,0.7-0.5L445,16.4C445.1,16.2,445,15.9,444.9,15.7z"/>
<path fill="#9F9F9F" d="M388,15.8c-0.1-0.2-0.4-0.3-0.6-0.3h-4.6c-0.3,0-0.6,0.2-0.7,0.5l-9.9,30.5l-13-30.6
	c-0.1-0.3-0.4-0.4-0.7-0.4h-4.9c-0.2,0-0.5,0.1-0.6,0.3c-0.1,0.2-0.2,0.5-0.1,0.7l16.5,38.1c-2.7,9.4-6.5,13.8-11.9,13.8
	c-1.7,0-3.3-0.3-4.8-0.9c-0.2-0.1-0.4-0.1-0.6,0c-0.2,0.1-0.3,0.3-0.4,0.5l-1,3.8c-0.1,0.4,0.1,0.7,0.4,0.9c1.9,0.8,3.7,1.1,6.2,1.1
	c5.8,0,11.8-1.9,16.5-15.8l14-41.5C388.2,16.2,388.2,16,388,15.8z"/>
</svg>
