<?xml version="1.0" encoding="utf-8"?>
<!-- Generator: Adobe Illustrator 18.0.0, SVG Export Plug-In . SVG Version: 6.00 Build 0)  -->
<!DOCTYPE svg PUBLIC "-//W3C//DTD SVG 1.1//EN" "http://www.w3.org/Graphics/SVG/1.1/DTD/svg11.dtd">
<svg version="1.1" id="Layer_1" xmlns="http://www.w3.org/2000/svg" xmlns:xlink="http://www.w3.org/1999/xlink" x="0px" y="0px"
	 viewBox="0 0 46.6 44" enable-background="new 0 0 46.6 44" xml:space="preserve">
<g>
	<g>
		<circle fill="#999999" cx="22.9" cy="11.5" r="6.7"/>
		<g>
			<path fill="#999999" d="M14.7,3.4c4.5-4.5,11.8-4.5,16.3,0s4.5,11.8,0,16.3s-11.8,4.5-16.3,0S10.2,7.9,14.7,3.4z M30.3,18.9
				c4.1-4.1,4.1-10.7,0-14.8C26.2,0,19.5,0,15.4,4.1s-4.1,10.7,0,14.8C19.5,23,26.2,23,30.3,18.9z"/>
		</g>
	</g>
	<circle fill="#999999" cx="29.2" cy="23.2" r="2.5"/>
	<circle fill="#999999" cx="28.2" cy="21.1" r="2.5"/>
	<circle fill="#999999" cx="16.7" cy="23.2" r="2.5"/>
	<circle fill="#999999" cx="17.7" cy="21.1" r="2.5"/>
	<g>
		<circle fill="#999999" cx="11.5" cy="32.5" r="6.7"/>
		<circle fill="#999999" cx="22.2" cy="32.5" r="2.5"/>
		<g>
			<path fill="#999999" d="M11.5,44C5.2,44,0,38.8,0,32.5s5.2-11.5,11.5-11.5s11.5,5.2,11.5,11.5S17.9,44,11.5,44z M11.5,22
				C5.7,22,1,26.7,1,32.5C1,38.3,5.7,43,11.5,43S22,38.3,22,32.5C22,26.7,17.3,22,11.5,22z"/>
		</g>
	</g>
	<g>
		<circle fill="#999999" cx="35.1" cy="32.5" r="6.7"/>
		<circle fill="#999999" cx="24.4" cy="32.5" r="2.5"/>
		<g>
			<path fill="#999999" d="M35.1,20.9c6.4,0,11.5,5.2,11.5,11.5S41.4,44,35.1,44s-11.5-5.2-11.5-11.5S28.7,20.9,35.1,20.9z M35.1,43
				c5.8,0,10.5-4.7,10.5-10.5c0-5.8-4.7-10.5-10.5-10.5s-10.5,4.7-10.5,10.5C24.6,38.3,29.3,43,35.1,43z"/>
		</g>
	</g>
</g>
</svg>
