<?xml version="1.0" encoding="utf-8"?>
<!-- Generator: Adobe Illustrator 18.0.0, SVG Export Plug-In . SVG Version: 6.00 Build 0)  -->
<!DOCTYPE svg PUBLIC "-//W3C//DTD SVG 1.1//EN" "http://www.w3.org/Graphics/SVG/1.1/DTD/svg11.dtd">
<svg version="1.1" id="Layer_1" xmlns="http://www.w3.org/2000/svg" xmlns:xlink="http://www.w3.org/1999/xlink" x="0px" y="0px"
	 viewBox="0 0 57.4 44" enable-background="new 0 0 57.4 44" xml:space="preserve">
<g>
	<circle fill="#999999" cx="7.6" cy="36.4" r="4.4"/>
	<circle fill="#999999" cx="14.5" cy="36.4" r="1.6"/>
	<circle fill="#999999" cx="7.7" cy="29.2" r="1.6"/>
	<circle fill="#999999" cx="21.8" cy="29.2" r="1.6"/>
	<circle fill="#999999" cx="35.9" cy="29.2" r="1.6"/>
	<circle fill="#999999" cx="50" cy="29.2" r="1.6"/>
	<g>
		<path fill="#999999" d="M7.6,44C3.4,44,0,40.6,0,36.4s3.4-7.6,7.6-7.6s7.6,3.4,7.6,7.6S11.7,44,7.6,44z M7.6,29.6
			c-3.8,0-6.9,3.1-6.9,6.9c0,3.8,3.1,6.9,6.9,6.9s6.9-3.1,6.9-6.9C14.4,32.6,11.4,29.6,7.6,29.6z"/>
	</g>
	<circle fill="#999999" cx="21.7" cy="36.4" r="4.4"/>
	<circle fill="#999999" cx="28.6" cy="36.4" r="1.6"/>
	<g>
		<path fill="#999999" d="M21.7,44c-4.2,0-7.6-3.4-7.6-7.6s3.4-7.6,7.6-7.6s7.6,3.4,7.6,7.6S25.8,44,21.7,44z M21.7,29.6
			c-3.8,0-6.9,3.1-6.9,6.9c0,3.8,3.1,6.9,6.9,6.9s6.9-3.1,6.9-6.9C28.5,32.6,25.4,29.6,21.7,29.6z"/>
	</g>
	<circle fill="#999999" cx="35.8" cy="36.4" r="4.4"/>
	<circle fill="#999999" cx="42.7" cy="36.4" r="1.6"/>
	<g>
		<path fill="#999999" d="M35.8,44c-4.2,0-7.6-3.4-7.6-7.6s3.4-7.6,7.6-7.6s7.6,3.4,7.6,7.6S39.9,44,35.8,44z M35.8,29.6
			c-3.8,0-6.9,3.1-6.9,6.9c0,3.8,3.1,6.9,6.9,6.9s6.9-3.1,6.9-6.9C42.6,32.6,39.5,29.6,35.8,29.6z"/>
	</g>
	<circle fill="#999999" cx="49.8" cy="36.4" r="4.4"/>
	<g>
		<path fill="#999999" d="M49.8,44c-4.2,0-7.6-3.4-7.6-7.6s3.4-7.6,7.6-7.6s7.6,3.4,7.6,7.6S54,44,49.8,44z M49.8,29.6
			c-3.8,0-6.9,3.1-6.9,6.9c0,3.8,3.1,6.9,6.9,6.9s6.9-3.1,6.9-6.9C56.7,32.6,53.6,29.6,49.8,29.6z"/>
	</g>
	<circle fill="#999999" cx="7.6" cy="22" r="4.4"/>
	<circle fill="#999999" cx="14.5" cy="22" r="1.6"/>
	<g>
		<path fill="#999999" d="M7.6,29.6C3.4,29.6,0,26.2,0,22s3.4-7.6,7.6-7.6s7.6,3.4,7.6,7.6S11.7,29.6,7.6,29.6z M7.6,15.1
			c-3.8,0-6.9,3.1-6.9,6.9c0,3.8,3.1,6.9,6.9,6.9s6.9-3.1,6.9-6.9C14.4,18.2,11.4,15.1,7.6,15.1z"/>
	</g>
	<circle fill="#999999" cx="21.7" cy="22" r="4.4"/>
	<circle fill="#999999" cx="28.6" cy="22" r="1.6"/>
	<g>
		<path fill="#999999" d="M21.7,29.6c-4.2,0-7.6-3.4-7.6-7.6s3.4-7.6,7.6-7.6s7.6,3.4,7.6,7.6S25.8,29.6,21.7,29.6z M21.7,15.1
			c-3.8,0-6.9,3.1-6.9,6.9c0,3.8,3.1,6.9,6.9,6.9s6.9-3.1,6.9-6.9C28.5,18.2,25.4,15.1,21.7,15.1z"/>
	</g>
	<circle fill="#999999" cx="35.8" cy="22" r="4.4"/>
	<circle fill="#999999" cx="42.7" cy="22" r="1.6"/>
	<g>
		<path fill="#999999" d="M35.8,29.6c-4.2,0-7.6-3.4-7.6-7.6s3.4-7.6,7.6-7.6s7.6,3.4,7.6,7.6S39.9,29.6,35.8,29.6z M35.8,15.1
			c-3.8,0-6.9,3.1-6.9,6.9c0,3.8,3.1,6.9,6.9,6.9s6.9-3.1,6.9-6.9C42.6,18.2,39.5,15.1,35.8,15.1z"/>
	</g>
	<circle fill="#999999" cx="49.8" cy="22" r="4.4"/>
	<g>
		<path fill="#999999" d="M49.8,29.6c-4.2,0-7.6-3.4-7.6-7.6s3.4-7.6,7.6-7.6s7.6,3.4,7.6,7.6S54,29.6,49.8,29.6z M49.8,15.1
			c-3.8,0-6.9,3.1-6.9,6.9c0,3.8,3.1,6.9,6.9,6.9s6.9-3.1,6.9-6.9C56.7,18.2,53.6,15.1,49.8,15.1z"/>
	</g>
	<circle fill="#999999" cx="7.7" cy="14.8" r="1.6"/>
	<circle fill="#999999" cx="21.8" cy="14.8" r="1.6"/>
	<circle fill="#999999" cx="35.9" cy="14.8" r="1.6"/>
	<circle fill="#999999" cx="50" cy="14.8" r="1.6"/>
	<circle fill="#999999" cx="7.6" cy="7.6" r="4.4"/>
	<circle fill="#999999" cx="14.5" cy="7.6" r="1.6"/>
	<g>
		<path fill="#999999" d="M7.6,15.1C3.4,15.1,0,11.7,0,7.6S3.4,0,7.6,0s7.6,3.4,7.6,7.6S11.7,15.1,7.6,15.1z M7.6,0.7
			c-3.8,0-6.9,3.1-6.9,6.9c0,3.8,3.1,6.9,6.9,6.9s6.9-3.1,6.9-6.9C14.4,3.8,11.4,0.7,7.6,0.7z"/>
	</g>
	<circle fill="#999999" cx="21.7" cy="7.6" r="4.4"/>
	<circle fill="#999999" cx="28.6" cy="7.6" r="1.6"/>
	<g>
		<path fill="#999999" d="M21.7,15.1c-4.2,0-7.6-3.4-7.6-7.6S17.5,0,21.7,0s7.6,3.4,7.6,7.6S25.8,15.1,21.7,15.1z M21.7,0.7
			c-3.8,0-6.9,3.1-6.9,6.9c0,3.8,3.1,6.9,6.9,6.9s6.9-3.1,6.9-6.9C28.5,3.8,25.4,0.7,21.7,0.7z"/>
	</g>
	<circle fill="#999999" cx="35.8" cy="7.6" r="4.4"/>
	<circle fill="#999999" cx="42.7" cy="7.6" r="1.6"/>
	<g>
		<path fill="#999999" d="M35.8,15.1c-4.2,0-7.6-3.4-7.6-7.6S31.6,0,35.8,0s7.6,3.4,7.6,7.6S39.9,15.1,35.8,15.1z M35.8,0.7
			c-3.8,0-6.9,3.1-6.9,6.9c0,3.8,3.1,6.9,6.9,6.9s6.9-3.1,6.9-6.9C42.6,3.8,39.5,0.7,35.8,0.7z"/>
	</g>
	<circle fill="#999999" cx="49.8" cy="7.6" r="4.4"/>
	<g>
		<path fill="#999999" d="M49.8,15.1c-4.2,0-7.6-3.4-7.6-7.6S45.7,0,49.8,0s7.6,3.4,7.6,7.6S54,15.1,49.8,15.1z M49.8,0.7
			c-3.8,0-6.9,3.1-6.9,6.9c0,3.8,3.1,6.9,6.9,6.9s6.9-3.1,6.9-6.9C56.7,3.8,53.6,0.7,49.8,0.7z"/>
	</g>
</g>
</svg>
