<?xml version="1.0" encoding="utf-8"?>
<!-- Generator: Adobe Illustrator 18.0.0, SVG Export Plug-In . SVG Version: 6.00 Build 0)  -->
<!DOCTYPE svg PUBLIC "-//W3C//DTD SVG 1.1//EN" "http://www.w3.org/Graphics/SVG/1.1/DTD/svg11.dtd">
<svg version="1.1" id="Layer_1" xmlns="http://www.w3.org/2000/svg" xmlns:xlink="http://www.w3.org/1999/xlink" x="0px" y="0px"
	 viewBox="-20 -3 60 44" enable-background="new -20 -3 60 44" xml:space="preserve">
<g>
	<path fill="#999999" d="M40-3L40-3L40-3h-60v15v15v14h60V27V12V0l0,0V-3z M14,13h25v13H14V13z M13,26h-32V13h32V26z M-19,40V27H6
		v13H-19z M39,40H7V27h32V40z M39,12h-58V0h58V12z"/>
	<rect x="-13" y="16" fill="#999999" width="16" height="1"/>
	<rect x="-13" y="19" fill="#999999" width="16" height="1"/>
	<rect x="-13" y="22" fill="#999999" width="13" height="1"/>
	<rect x="2" y="3" fill="#999999" width="16" height="1"/>
	<rect x="1" y="6" fill="#999999" width="18" height="1"/>
	<rect x="5" y="9" fill="#999999" width="10" height="1"/>
	<rect x="17" y="30" fill="#999999" width="16" height="1"/>
	<rect x="17" y="33" fill="#999999" width="16" height="1"/>
	<rect x="17" y="36" fill="#999999" width="13" height="1"/>
</g>
</svg>
