<?xml version="1.0" encoding="utf-8"?>
<!-- Generator: Adobe Illustrator 18.0.0, SVG Export Plug-In . SVG Version: 6.00 Build 0)  -->
<!DOCTYPE svg PUBLIC "-//W3C//DTD SVG 1.1//EN" "http://www.w3.org/Graphics/SVG/1.1/DTD/svg11.dtd">
<svg version="1.1" id="Layer_1" xmlns="http://www.w3.org/2000/svg" xmlns:xlink="http://www.w3.org/1999/xlink" x="0px" y="0px"
	 viewBox="0 0 19 13" enable-background="new 0 0 19 13" xml:space="preserve">
<symbol  id="New_Symbol_42" viewBox="-10 -5 19 13">
	<polygon fill="#E9E9E9" points="9,-5 -10,-5 -10,0 9,0 	"/>
	<polygon fill="#E9E9E9" points="9,3 -10,3 -10,8 9,8 	"/>
	<polygon fill="#00C6C1" points="-6,4 -9,4 -9,7 -6,7 	"/>
	<polygon fill="#00C6C1" points="-6,-4 -9,-4 -9,-1 -6,-1 	"/>
	<line fill="none" stroke="#A6A6A6" stroke-miterlimit="10" x1="-4" y1="-1.5" x2="7" y2="-1.5"/>
	<line fill="none" stroke="#A6A6A6" stroke-miterlimit="10" x1="-4" y1="6.5" x2="7" y2="6.5"/>
	<polygon display="none" fill="none" points="-10,8 9,8 9,-5 -10,-5 	"/>
</symbol>
<use xlink:href="#New_Symbol_42"  width="19" height="13" x="-10" y="-5" transform="matrix(1 0 0 -1 10 8)" overflow="visible"/>
</svg>
