<?xml version="1.0" encoding="utf-8"?>
<!-- Generator: Adobe Illustrator 18.0.0, SVG Export Plug-In . SVG Version: 6.00 Build 0)  -->
<!DOCTYPE svg PUBLIC "-//W3C//DTD SVG 1.1//EN" "http://www.w3.org/Graphics/SVG/1.1/DTD/svg11.dtd">
<svg version="1.1" id="Layer_1" xmlns="http://www.w3.org/2000/svg" xmlns:xlink="http://www.w3.org/1999/xlink" x="0px" y="0px"
	 viewBox="0 0 13 10" enable-background="new 0 0 13 10" xml:space="preserve">
<path fill="#D63E3E" d="M1.6,10C1.3,10,1.1,9.8,1,9.7C0.9,9.5,0.9,9.2,1.1,9l5-8.4c0.1-0.2,0.3-0.3,0.5-0.3c0.2,0,0.4,0.1,0.5,0.3
	L11.9,9C12,9.2,12,9.5,11.9,9.7c-0.1,0.2-0.3,0.3-0.5,0.3C11.4,10,1.6,10,1.6,10z"/>
<path fill="#E5E5E5" d="M6.5,0.6c0.1,0,0.2,0.1,0.3,0.2l4.9,8.3c0.2,0.3,0.1,0.4-0.3,0.4H1.6c-0.3,0-0.4-0.1-0.3-0.4l5-8.3
	C6.4,0.6,6.5,0.6,6.5,0.6 M6.5,0.1L6.5,0.1C6.2,0.1,6,0.2,5.8,0.5L0.8,8.9C0.7,9.1,0.6,9.4,0.8,9.7C1,9.9,1.2,10,1.6,10h9.8
	c0.3,0,0.6-0.1,0.8-0.3c0.2-0.3,0.2-0.5-0.1-0.8L7.3,0.5C7.1,0.2,6.9,0.1,6.5,0.1L6.5,0.1z"/>
<rect x="5.9" y="2.9" fill="#E5E5E5" width="1.1" height="3.3"/>
<rect x="5.9" y="7.3" fill="#E5E5E5" width="1.1" height="1.1"/>
</svg>
