<?xml version="1.0" encoding="utf-8"?>
<!-- Generator: Adobe Illustrator 18.0.0, SVG Export Plug-In . SVG Version: 6.00 Build 0)  -->
<!DOCTYPE svg PUBLIC "-//W3C//DTD SVG 1.1//EN" "http://www.w3.org/Graphics/SVG/1.1/DTD/svg11.dtd">
<svg version="1.1" id="Layer_1" xmlns="http://www.w3.org/2000/svg" xmlns:xlink="http://www.w3.org/1999/xlink" x="0px" y="0px"
	 viewBox="0 0 121 20" enable-background="new 0 0 121 20" xml:space="preserve">
<g>
	<path fill="#E5E5E5" d="M32.5,15.3c-3.4,1.5-7.2,2.2-10.6,2.2c-5,0-9.9-1.4-13.8-3.7c-0.3-0.2-0.6,0.2-0.3,0.4
		c3.7,3.3,8.5,5.3,13.8,5.3c3.8,0,8.3-1.2,11.3-3.5C33.4,15.6,33,15.1,32.5,15.3z"/>
	<path fill="#E5E5E5" d="M30.6,14c-0.3,0.2-0.2,0.5,0.1,0.4c1-0.1,3.2-0.4,3.6,0.1c0.4,0.5-0.4,2.6-0.8,3.5
		c-0.1,0.3,0.1,0.4,0.4,0.2c1.6-1.4,2.1-4.3,1.7-4.7C35.2,13.1,32.3,12.8,30.6,14z"/>
	<path fill="#E5E5E5" d="M36.6,10.5c-0.9-0.5-2-0.7-3.1-0.7l2.8-4c0.3-0.4,0.4-0.6,0.4-0.8v-1c0-0.2-0.2-0.3-0.3-0.3H31
		c-0.2,0-0.3,0.1-0.3,0.3v1.2c0,0.2,0.1,0.3,0.3,0.3h2.8l-3.2,4.6c-0.2,0.3-0.2,0.6-0.2,0.8v1.2c0,0.2,0.2,0.4,0.4,0.3
		c1.8-1,4-0.9,5.7,0c0.2,0.1,0.4-0.1,0.4-0.3V11C36.8,10.8,36.8,10.6,36.6,10.5z"/>
	<path fill="#E5E5E5" d="M9.5,12.8h1.6c0.2,0,0.3-0.1,0.3-0.3V8c0-1,0-2.3,1.1-2.3c1.2,0,1,1.4,1,2.3l0,4.5c0,0.2,0.1,0.3,0.3,0.3
		h1.6c0.2,0,0.3-0.1,0.3-0.3V8c0-0.5,0-1.2,0.1-1.6c0.2-0.4,0.6-0.7,1-0.7c0.5,0,0.8,0.2,1,0.7c0.1,0.3,0,1.2,0,1.6v4.5
		c0,0.2,0.1,0.3,0.3,0.3h1.6c0.2,0,0.3-0.1,0.3-0.3l0-5.3c0-0.9,0.1-1.9-0.4-2.6c-0.5-0.6-1.2-0.9-1.9-0.9c-1,0-1.9,0.5-2.3,1.6
		c-0.5-1.1-1.1-1.6-2.1-1.6c-1,0-1.8,0.5-2.1,1.6h0V4.1c-0.1-0.2-0.2-0.3-0.3-0.3H9.5c-0.2,0-0.3,0.1-0.3,0.3l0,8.4
		C9.2,12.7,9.3,12.8,9.5,12.8z"/>
	<path fill="#E5E5E5" d="M41.3,3.6c-2.4,0-3.7,2-3.7,4.7c0,2.6,1.3,4.7,3.7,4.7c2.3,0,3.7-2,3.7-4.6C45,5.7,43.7,3.6,41.3,3.6z
		 M41.3,11.2C40,11.2,40,9,40,8c0-1,0.1-2.7,1.3-2.7c0.5,0,0.9,0.2,1.1,0.8c0.2,0.7,0.2,1.5,0.2,2.2C42.6,9.5,42.6,11.2,41.3,11.2z"
		/>
	<path fill="#E5E5E5" d="M50.6,3.6c-1.1,0-1.8,0.6-2.2,1.7h-0.1V4c0-0.1-0.1-0.2-0.3-0.2h-1.5c-0.2,0-0.3,0.1-0.3,0.3l0,8.4
		c0,0.2,0.1,0.3,0.3,0.3h1.6c0.2,0,0.3-0.1,0.3-0.3V8c0-0.6,0.1-1.1,0.3-1.6c0.2-0.4,0.6-0.7,1-0.7c1.1,0,1,1.3,1,2.3v4.6
		c0,0.1,0.1,0.2,0.3,0.2h1.6c0.2,0,0.3-0.1,0.3-0.2V7.2c0-0.8,0-1.9-0.4-2.6C52.1,3.9,51.3,3.6,50.6,3.6z"/>
	<path fill="#E5E5E5" d="M26.4,7.1c-0.9,0.1-2.2,0.2-3.1,0.6c-1,0.4-1.7,1.3-1.7,2.7c0,1.7,1.1,2.6,2.4,2.6c1.2,0,1.8-0.3,2.7-1.2
		c0.3,0.4,0.4,0.6,0.9,1.1c0.1,0.1,0.3,0.1,0.4,0l0,0c0.3-0.3,0.9-0.8,1.3-1.1c0.1-0.1,0.1-0.3,0-0.4c-0.3-0.4-0.6-0.8-0.6-1.5V7.2
		c0-1.1,0.1-2.1-0.7-2.8c-0.6-0.6-1.7-0.8-2.5-0.8c-1.6,0-3.3,0.6-3.6,2.5c0,0.2,0.1,0.3,0.2,0.3l1.6,0.2c0.1,0,0.3-0.2,0.3-0.3
		c0.1-0.7,0.7-1,1.3-1c0.3,0,0.7,0.1,0.9,0.4c0.2,0.3,0.2,0.8,0.2,1.2V7.1z M26.1,10.5c-0.3,0.5-0.7,0.7-1.1,0.7c-0.6,0-1-0.5-1-1.2
		c0-1.4,1.3-1.7,2.4-1.7v0.4C26.4,9.4,26.4,9.9,26.1,10.5z"/>
	<path fill="#E5E5E5" d="M7.9,11.2c-0.3-0.4-0.6-0.8-0.6-1.5V7.2c0-1.1,0.1-2.1-0.7-2.8C6,3.7,4.9,3.5,4.1,3.5
		C2.6,3.5,0.9,4.1,0.5,6c0,0.2,0.1,0.3,0.2,0.3l1.6,0.2c0.1,0,0.3-0.2,0.3-0.3c0.1-0.7,0.7-1,1.3-1c0.3,0,0.7,0.1,0.9,0.4
		C5.1,6,5,6.5,5,6.9v0.2C4.1,7.2,2.9,7.3,2,7.7C1,8.1,0.2,9,0.2,10.3c0,1.7,1.1,2.6,2.4,2.6c1.2,0,1.8-0.3,2.7-1.2
		c0.3,0.4,0.4,0.6,0.9,1.1c0.1,0.1,0.3,0.1,0.4,0l0,0C7,12.5,7.6,12,7.9,11.7C8.1,11.6,8,11.4,7.9,11.2z M5,8.8c0,0.6,0,1.2-0.3,1.7
		c-0.3,0.5-0.7,0.7-1.1,0.7c-0.6,0-1-0.5-1-1.2c0-1.4,1.2-1.7,2.4-1.7V8.8z"/>
	<path fill="#E5E5E5" d="M70.8,3.7c-2.3,0-4,1.9-4,4.6c0,2.7,1.7,4.6,3.9,4.6c2.3,0,4-1.9,4-4.6C74.7,5.7,73.1,3.7,70.8,3.7z
		 M70.8,11.7c-1.6,0-2.6-1.4-2.6-3.4c0-2.1,1.1-3.5,2.6-3.5c1.6,0,2.6,1.4,2.6,3.5C73.4,10.4,72.3,11.7,70.8,11.7z"/>
	<path fill="#E5E5E5" d="M80.5,3.9c-0.2-0.1-0.5-0.2-0.9-0.2c-0.6,0-1.3,0.1-2.3,1.1l-0.1-0.8c0-0.1-0.1-0.1-0.2-0.1h-0.8
		c-0.1,0-0.2,0.1-0.2,0.2v8.5c0,0.1,0.1,0.2,0.2,0.2h1c0.1,0,0.2-0.1,0.2-0.2V6.3c0.8-0.9,1.5-1.3,2-1.3c0.3,0,0.4,0.1,0.5,0.1l0,0
		c0,0,0.1,0,0.1,0c0,0,0.1-0.1,0.1-0.1l0.3-0.9C80.6,4,80.5,3.9,80.5,3.9z"/>
	<path fill="#E5E5E5" d="M57.7,7.7l-0.1-0.1C56.6,7.2,56,6.8,56,6c0-0.8,0.6-1.1,1.7-1.1c0.8,0,1.4,0.2,1.8,0.4c0.1,0,0.1,0,0.2,0
		c0,0,0.1-0.1,0.1-0.1V4.3c0-0.1,0-0.1-0.1-0.2c-0.5-0.2-1.2-0.4-2-0.4c-2,0-2.9,1.2-2.9,2.4c0,1.6,1.2,2.2,2.2,2.6L57,8.8
		c0.9,0.4,1.6,0.7,1.6,1.6c0,1.2-1.3,1.4-1.8,1.4c-1,0-1.6-0.3-2-0.6c0,0-0.1,0-0.1,0c0,0-0.1,0-0.1,0.1L54.3,12
		c0,0.1,0,0.2,0.1,0.2c0.4,0.3,1.3,0.7,2.4,0.7c1.9,0,3.2-1,3.2-2.6c0-0.7-0.2-1.2-0.6-1.6C58.9,8.2,58.3,8,57.7,7.7z"/>
	<path fill="#E5E5E5" d="M93.3,7.7l-0.1-0.1c-1-0.5-1.6-0.8-1.6-1.6c0-0.8,0.6-1.1,1.7-1.1c0.8,0,1.4,0.2,1.8,0.4c0.1,0,0.1,0,0.2,0
		c0,0,0.1-0.1,0.1-0.1V4.3c0-0.1,0-0.1-0.1-0.2c-0.5-0.2-1.2-0.4-2-0.4c-2,0-2.9,1.2-2.9,2.4c0,1.6,1.2,2.2,2.2,2.6l0.2,0.1
		c0.9,0.4,1.6,0.7,1.6,1.6c0,1.2-1.3,1.4-1.8,1.4c-1,0-1.6-0.3-2-0.6c0,0-0.1,0-0.1,0c0,0-0.1,0-0.1,0.1L89.9,12
		c0,0.1,0,0.2,0.1,0.2c0.4,0.3,1.3,0.7,2.4,0.7c1.9,0,3.2-1,3.2-2.6c0-0.7-0.2-1.2-0.6-1.6C94.5,8.2,93.9,8,93.3,7.7z"/>
	<path fill="#E5E5E5" d="M66,11.2c0,0-0.1-0.1-0.1-0.1c0,0-0.1,0-0.1,0c-0.4,0.3-0.9,0.6-1.4,0.6c-0.3,0-0.7-0.1-0.7-0.9V5.1h2
		c0.1,0,0.1,0,0.2-0.1l0.3-0.8c0-0.1,0-0.1,0-0.2c0,0-0.1-0.1-0.1-0.1h-2.4V1.8c0-0.1,0-0.1-0.1-0.1c0,0-0.1,0-0.1,0L62.5,2
		c-0.1,0-0.1,0.1-0.1,0.2v1.7h-1.2C61,3.9,61,4,61,4.1v0.8C61,5,61,5.1,61.1,5.1h1.2v5.9c0,1.3,0.7,2,1.8,2c0.8,0,1.6-0.4,2.1-0.8
		c0.1,0,0.1-0.1,0.1-0.2L66,11.2z"/>
	<path fill="#E5E5E5" d="M89.3,3.9h-1c-0.1,0-0.1,0-0.2,0.1l-2.2,6.9L83,4c0-0.1-0.1-0.1-0.2-0.1h-1.1c-0.1,0-0.1,0-0.1,0.1
		c0,0,0,0.1,0,0.2l3.7,8.6c-0.6,2.1-1.5,3.1-2.7,3.1c-0.4,0-0.7-0.1-1.1-0.2c0,0-0.1,0-0.1,0c0,0-0.1,0.1-0.1,0.1l-0.2,0.8
		c0,0.1,0,0.2,0.1,0.2c0.4,0.2,0.8,0.2,1.4,0.2c1.3,0,2.7-0.4,3.7-3.5l3.1-9.3c0-0.1,0-0.1,0-0.1C89.4,3.9,89.4,3.9,89.3,3.9z"/>
	<path fill="#E5E5E5" d="M120.6,12.2c0.1,0,0.1-0.1,0.1-0.2l-0.3-0.7c0,0-0.1-0.1-0.1-0.1c0,0-0.1,0-0.1,0c-0.4,0.2-1.1,0.5-2,0.5
		c-2,0-2.7-1.6-2.8-3.1h5.3c0.1,0,0.2-0.1,0.2-0.2V8.2c0-2.8-1.2-4.4-3.3-4.4c-2,0-3.5,1.8-3.5,4.4c0,2.8,1.6,4.7,4,4.7
		C118.9,12.9,119.9,12.6,120.6,12.2z M115.3,7.5c0.1-1.5,1-2.5,2.1-2.5c1.3,0,1.9,1.2,2,2.5H115.3z"/>
	<path fill="#E5E5E5" d="M106.5,4.2v8.4c0,0.1-0.1,0.2-0.2,0.2h-0.9c-0.1,0-0.2-0.1-0.2-0.2V4.2c0-0.1,0.1-0.2,0.2-0.2h0.9
		C106.5,4,106.5,4.1,106.5,4.2z M105.9,0.5c-0.5,0-0.8,0.4-0.8,0.9c0,0.5,0.4,0.9,0.8,0.9c0.5,0,0.9-0.4,0.9-0.9
		C106.7,0.9,106.4,0.5,105.9,0.5z"/>
	<path fill="#E5E5E5" d="M113.4,12l-0.3-0.7c0,0-0.1-0.1-0.1-0.1c0,0-0.1,0-0.1,0c-0.4,0.3-0.9,0.6-1.4,0.6c-0.3,0-0.7-0.1-0.7-0.9
		V5.2h2c0.1,0,0.1,0,0.2-0.1l0.3-0.8c0-0.1,0-0.1,0-0.2c0,0-0.1-0.1-0.1-0.1h-2.3V2c0-0.1,0-0.1-0.1-0.1c0,0-0.1,0-0.1,0l-0.9,0.3
		c-0.1,0-0.1,0.1-0.1,0.2v1.7h-1.2c-0.1,0-0.2,0.1-0.2,0.2V5c0,0.1,0.1,0.2,0.2,0.2h1.2V11c0,1.3,0.6,2,1.8,2c0.8,0,1.6-0.4,2.1-0.8
		C113.4,12.1,113.5,12.1,113.4,12z"/>
	<path fill="#E5E5E5" d="M98,4.1h-0.9c-0.1,0-0.2,0.1-0.2,0.2v5.6c0,0.6,0,1,0.2,1.5c0.5,1.5,1.9,1.6,2.3,1.6c1,0,1.9-0.4,2.8-1.1
		l0.2,0.7c0,0.1,0.1,0.1,0.2,0.1h0.9c0.1,0,0.1,0,0.1-0.1c0,0,0-0.1,0-0.1c-0.1-0.5-0.2-1.4-0.2-3.1V4.2c0-0.1-0.1-0.2-0.2-0.2h-0.9
		c-0.1,0-0.2,0.1-0.2,0.2v6.3c-0.5,0.6-1.5,1.3-2.5,1.3c-0.7,0-1.1-0.3-1.3-0.9c-0.1-0.4-0.1-0.7-0.1-1.4V4.2
		C98.2,4.1,98.1,4.1,98,4.1z"/>
</g>
</svg>
