<?xml version="1.0" encoding="utf-8"?>
<!-- Generator: Adobe Illustrator 21.0.2, SVG Export Plug-In . SVG Version: 6.00 Build 0)  -->
<svg version="1.1" id="Layer_1" xmlns="http://www.w3.org/2000/svg" xmlns:xlink="http://www.w3.org/1999/xlink" x="0px" y="0px"
	 viewBox="0 0 74.6 54.3" style="enable-background:new 0 0 74.6 54.3;" xml:space="preserve">
<style type="text/css">
	.st0{fill:#E9EDEF;}
</style>
<g>
	<g>
		<path class="st0" d="M24.7,11.7c-0.3,0-0.5-0.2-0.5-0.5c0-2.5,1.9-4.4,4.4-4.4c0.8,0,1.4,0.2,2,0.5c0.2,0.1,0.3,0.4,0.2,0.7
			S30.3,8.3,30,8.1c-0.4-0.2-0.8-0.3-1.4-0.3c-1.9,0-3.4,1.5-3.4,3.4C25.2,11.5,25,11.7,24.7,11.7z"/>
	</g>
	<g>
		<path class="st0" d="M40.1,5.9c-0.2,0-0.3-0.1-0.4-0.2c-0.1-0.2-0.1-0.5,0.2-0.7c0.9-0.6,1.8-0.7,2.9-0.7c0.3,0,0.5,0.2,0.5,0.5
			S43,5.3,42.7,5.3c-0.9,0-1.6,0.1-2.3,0.5C40.3,5.9,40.2,5.9,40.1,5.9z"/>
	</g>
	<g>
		<path class="st0" d="M47,15.5H28.7c-2.4,0-4.4-2-4.4-4.4c0-2.2,1.6-4.1,3.8-4.4c0.6-3.6,3.7-6.2,7.4-6.2c2.7,0,5.1,1.4,6.4,3.8
			c0.1,0,0.1,0,0.2,0c0.2,0,0.3-0.1,0.5-0.1c2.5,0,4.8,1.7,5.5,4.1c0.1,0.2,0.1,0.3,0.1,0.5c0,0.1,0,0.1,0,0.2
			c1.3,0.5,2.2,1.7,2.3,3C50.5,13.9,48.9,15.5,47,15.5z M35.5,1.5c-3.3,0-6.1,2.5-6.5,5.8l0,0.4l-0.4,0c-1.8,0.1-3.2,1.5-3.2,3.4
			c0,1.9,1.5,3.4,3.4,3.4H47c1.4,0,2.5-1.1,2.5-2.5c-0.1-1-0.8-1.9-1.9-2.2l-0.2-0.1l-0.1-0.2c-0.1-0.2-0.1-0.3-0.1-0.5
			c0-0.1,0-0.3-0.1-0.4c-0.6-2-2.4-3.4-4.5-3.4c-0.1,0-0.2,0-0.4,0c-0.2,0-0.4,0.1-0.6,0.1h-0.3L41.1,5C40.1,2.8,37.9,1.5,35.5,1.5z
			"/>
	</g>
</g>
<g>
	<rect x="36.8" y="15.1" class="st0" width="1" height="36.6"/>
</g>
<g>
	<g>
		<path class="st0" d="M29.8,39.6H3.2c-1.8,0-3.2-1.4-3.2-3.2V21.5c0-1.8,1.4-3.2,3.2-3.2h26.6c1.8,0,3.2,1.4,3.2,3.2v14.8
			C33,38.2,31.6,39.6,29.8,39.6z M3.2,19.3c-1.2,0-2.2,1-2.2,2.2v14.9c0,1.2,1,2.2,2.2,2.2h26.6c1.3,0,2.2-1,2.2-2.3V21.5
			c0-1.2-1-2.2-2.2-2.2H3.2z"/>
	</g>
	<g>
		<path class="st0" d="M28.6,37.4H4.4c-1.1,0-2.1-1-2.1-2.1V22.5c0-1.1,1-2.1,2.1-2.1h24.1c1.1,0,2.1,1,2.1,2.1v12.7
			c0.1,0.6-0.1,1.1-0.5,1.6C29.7,37.2,29.2,37.4,28.6,37.4z M4.4,21.4c-0.6,0-1.1,0.6-1.1,1.1v12.8c0,0.6,0.6,1.1,1.1,1.1h24.2
			c0.3,0,0.6-0.1,0.8-0.3c0.2-0.2,0.3-0.5,0.2-0.8l0-12.8c0-0.6-0.6-1.1-1.1-1.1H4.4z"/>
	</g>
	<g>
		<path class="st0" d="M26.1,48.4H6.9c-0.7,0-1.6-0.7-1.6-1.6c0-0.7,0.7-1.6,1.6-1.6h19.3c0.7,0,1.6,0.7,1.6,1.6
			C27.6,47.8,27,48.4,26.1,48.4z M6.9,46.2c-0.3,0-0.6,0.4-0.6,0.6c0,0.3,0.4,0.6,0.6,0.6h19.2c0.5,0,0.7-0.4,0.7-0.7
			c0-0.2-0.4-0.5-0.6-0.5H6.9z"/>
	</g>
	<g>
		<path class="st0" d="M21.8,46.2H11.2l1.6-7.6h7.5L21.8,46.2z M12.4,45.2h8.2l-1.1-5.6h-5.9L12.4,45.2z"/>
	</g>
</g>
<circle class="st0" cx="37.3" cy="52.7" r="1.6"/>
<circle class="st0" cx="58.2" cy="52.7" r="1.6"/>
<circle class="st0" cx="16.5" cy="52.7" r="1.6"/>
<g>
	<g>
		<path class="st0" d="M71.4,39.6H45c-1.8,0-3.2-1.4-3.2-3.2V21.5c0-1.8,1.4-3.2,3.2-3.2h26.4c1.8,0,3.2,1.4,3.2,3.2v14.8
			C74.6,38.2,73.2,39.6,71.4,39.6z M45,19.3c-1.2,0-2.2,1-2.2,2.2v14.9c0,1.2,1,2.2,2.2,2.2h26.4c1.3,0,2.2-1,2.2-2.3V21.5
			c0-1.2-1-2.2-2.2-2.2H45z"/>
	</g>
	<g>
		<path class="st0" d="M70.2,37.4h-24c-1.1,0-2.1-1-2.1-2.1V22.5c0-1.1,1-2.1,2.1-2.1h24.1c1.1,0,2.1,1,2.1,2.1v12.7
			C72.3,36.5,71.4,37.4,70.2,37.4z M46.2,21.4c-0.6,0-1.1,0.6-1.1,1.1v12.8c0,0.6,0.6,1.1,1.1,1.1h24c0.6,0,1.1-0.5,1.2-1.3l0-12.7
			c0-0.6-0.6-1.1-1.1-1.1H46.2z"/>
	</g>
	<g>
		<path class="st0" d="M67.7,48.4H48.6c-0.7,0-1.6-0.7-1.6-1.6c0-0.7,0.7-1.6,1.6-1.6h19.3c0.7,0,1.6,0.7,1.6,1.6l0,0.2
			C69.2,47.9,68.5,48.4,67.7,48.4z M48.6,46.2c-0.3,0-0.6,0.4-0.6,0.6c0,0.3,0.4,0.6,0.6,0.6h19.1c0.1,0,0.5,0,0.8-0.7
			c0-0.3-0.4-0.5-0.6-0.5H48.6z"/>
	</g>
	<g>
		<path class="st0" d="M63.6,46.2H52.8l1.7-7.6h7.4L63.6,46.2z M54,45.2h8.3l-1.3-5.6h-5.8L54,45.2z"/>
	</g>
	<g>
		<path class="st0" d="M57.2,33.9c-0.1,0-0.3-0.1-0.4-0.1l-5.3-5.3l-3.2,3.3c-0.2,0.2-0.5,0.2-0.7,0c-0.2-0.2-0.2-0.5,0-0.7l3.6-3.7
			c0.1-0.1,0.2-0.2,0.4-0.2c0,0,0,0,0,0c0.1,0,0.3,0.1,0.4,0.1l5.3,5.3l3.5-3.5c0.2-0.2,0.5-0.2,0.7,0l0.8,0.7l4.6-4.5
			c0.2-0.2,0.5-0.2,0.7,0c0.2,0.2,0.2,0.5,0,0.7l-4.9,4.8c-0.2,0.2-0.5,0.2-0.7,0l-0.7-0.7l-3.6,3.6C57.5,33.8,57.3,33.9,57.2,33.9z
			"/>
	</g>
	<circle class="st0" cx="54.9" cy="31.2" r="1.2"/>
	<circle class="st0" cx="67.2" cy="25.7" r="1.2"/>
</g>
<g>
	<polygon class="st0" points="58.7,53.1 16,53.1 16,47.9 17,47.9 17,52.1 57.7,52.1 57.7,47.9 58.7,47.9 	"/>
</g>
<circle class="st0" cx="8.5" cy="33.6" r="1.1"/>
<circle class="st0" cx="8.5" cy="30.6" r="1.1"/>
<circle class="st0" cx="8.5" cy="27.6" r="1.1"/>
<circle class="st0" cx="12.5" cy="27.6" r="1.1"/>
<circle class="st0" cx="12.5" cy="24.6" r="1.1"/>
<circle class="st0" cx="12.5" cy="30.6" r="1.1"/>
<circle class="st0" cx="16.5" cy="30.6" r="1.1"/>
<circle class="st0" cx="12.5" cy="33.6" r="1.1"/>
<circle class="st0" cx="16.5" cy="33.6" r="1.1"/>
<circle class="st0" cx="20.6" cy="30.6" r="1.1"/>
<circle class="st0" cx="20.6" cy="33.6" r="1.1"/>
<circle class="st0" cx="24.6" cy="33.6" r="1.1"/>
<circle class="st0" cx="24.6" cy="30.6" r="1.1"/>
<circle class="st0" cx="24.6" cy="27.6" r="1.1"/>
</svg>
