<?xml version="1.0" encoding="utf-8"?>
<!-- Generator: Adobe Illustrator 21.0.2, SVG Export Plug-In . SVG Version: 6.00 Build 0)  -->
<svg version="1.1" id="Layer_1" xmlns="http://www.w3.org/2000/svg" xmlns:xlink="http://www.w3.org/1999/xlink" x="0px" y="0px"
	 viewBox="0 0 800 174" style="enable-background:new 0 0 800 174;" xml:space="preserve">
<style type="text/css">
	.st0{fill:#FEFEFE;}
</style>
<g id="Logo">
	<g>
		<g>
			<path class="st0" d="M262.8,20.8c-12.2,0-23.1,2.7-32.3,8.1c-9.3,5.4-16.5,13.2-21.4,23.1s-7.4,21.4-7.4,34.3
				c0,20.6,5.2,37,15.5,48.6c10.4,11.7,24.8,17.6,42.7,17.6c12.5,0,23-1.5,31.4-4.4l1.4-0.5v-11.8l-2.6,0.8
				c-8.5,2.6-17.9,3.9-28.1,3.9c-15,0-26.7-4.7-34.6-14c-8.1-9.4-12.2-22.8-12.2-40c0-16.7,4.3-30.1,12.9-39.6
				c8.5-9.5,20.4-14.3,35.3-14.3c9.6,0,18.9,2.2,27.6,6.6l1.9,0.9l5.2-11.6l-1.8-0.8C286.4,23.1,275.1,20.8,262.8,20.8z"/>
			<path class="st0" d="M364,22h-8.3l-51.6,128.7h14l17.3-43.8h47.7l17.2,43.8h14.1l-50-127.5L364,22z M378.7,95.1h-38.5l16.3-41.8
				c1.1-2.7,2.2-5.7,3.2-8.8c1.2,3.4,2.2,6.3,3.1,8.6L378.7,95.1z"/>
			<path class="st0" d="M491.2,89.9c-5-3.2-12.5-6.6-22.3-9.9c-9.1-3.2-15.5-6-19.1-8.3c-3.5-2.2-6-4.6-7.5-7.2s-2.2-6.1-2.2-10.3
				c0-6.7,2.4-11.9,7.4-15.7c5-3.9,12-5.9,20.7-5.9c9.1,0,18.8,2.1,28.8,6.3l1.9,0.8l4.7-11.2l-1.8-0.8c-10.5-4.5-21.8-6.8-33.7-6.8
				s-21.7,3.1-29.3,9.2c-7.7,6.2-11.7,14.4-11.7,24.3c0,8.9,2.6,16.2,7.8,21.7c5.1,5.4,14,10.1,27.1,14.7c8.5,2.9,15,5.6,19.4,8.1
				c4.2,2.4,7.2,5,9,7.8c1.8,2.7,2.7,6.3,2.7,10.6c0,7-2.7,12.5-8.2,16.8c-5.6,4.4-13.3,6.6-23,6.6c-13.5,0-24.8-1.9-33.4-5.5
				l-2.8-1.2v13.1l1.3,0.5c8.3,3.4,20.3,5.2,35.7,5.2c13,0,23.7-3.2,31.6-9.5c8.1-6.4,12.2-15.3,12.2-26.2c0-6-1.2-11.2-3.6-15.5
				C500.2,97,496.3,93.2,491.2,89.9z"/>
			<polygon class="st0" points="518.1,34.8 558.4,34.8 558.4,150.8 571.2,150.8 571.2,34.8 611.6,34.8 611.6,22.6 518.1,22.6 			"/>
			<polygon class="st0" points="645.1,22.6 632.4,22.6 632.4,150.8 704.3,150.8 704.3,138.6 645.1,138.6 			"/>
			<polygon class="st0" points="800,34.6 800,22.6 728.1,22.6 728.1,150.8 800,150.8 800,138.8 740.8,138.8 740.8,89.6 796.7,89.6 
				796.7,77.5 740.8,77.5 740.8,34.6 			"/>
		</g>
		<g>
			<g>
				<polygon class="st0" points="143.8,52.9 107.3,52.9 107.3,42.5 133.4,42.5 133.4,10.4 112.4,10.4 112.4,27.4 82.2,27.4 
					82.2,10.4 61.1,10.4 61.1,27.4 31.8,27.4 31.8,10.4 10.8,10.4 10.8,42.5 37.3,42.5 37.3,52.9 0.4,52.9 0.4,0 42.2,0 42.2,17 
					50.8,17 50.8,0 92.5,0 92.5,17 102,17 102,0 143.8,0 				"/>
				<path class="st0" d="M119.6,174H24.3C10.9,174,0,163.1,0,149.7V67.1h143.9v82.6C143.9,163.1,133,174,119.6,174z M10.4,77.4v72.2
					c0,7.7,6.3,14,14,14h95.3c7.7,0,14-6.3,14-14V77.4L10.4,77.4L10.4,77.4z"/>
			</g>
			<path class="st0" d="M97.4,145.1H44.9V118c0-14.5,11.8-26.3,26.3-26.3s26.3,11.8,26.3,26.3L97.4,145.1L97.4,145.1z M55.2,134.7
				H87V118c0-8.8-7.1-15.9-15.9-15.9s-15.9,7.1-15.9,15.9V134.7z"/>
		</g>
	</g>
</g>
</svg>
