<?xml version="1.0" encoding="utf-8"?>
<!-- Generator: Adobe Illustrator 18.0.0, SVG Export Plug-In . SVG Version: 6.00 Build 0)  -->
<!DOCTYPE svg PUBLIC "-//W3C//DTD SVG 1.1//EN" "http://www.w3.org/Graphics/SVG/1.1/DTD/svg11.dtd">
<svg version="1.1" id="Layer_1" xmlns="http://www.w3.org/2000/svg" xmlns:xlink="http://www.w3.org/1999/xlink" x="0px" y="0px"
	 viewBox="0 0 19 20" enable-background="new 0 0 19 20" xml:space="preserve">
<g>
	<g>
		<path fill-rule="evenodd" clip-rule="evenodd" fill="#E5E5E5" d="M16.7,16.7c-1.9,1.8-4.8,2.8-7.2,2.8c-3.4,0-6.5-1.6-8.8-4.2
			c-0.2-0.2,0-0.5,0.2-0.3c2.5,1.8,5.6,2.9,8.8,2.9c2.2,0,4.5-0.6,6.7-1.7C16.7,16,17,16.4,16.7,16.7z"/>
		<path fill-rule="evenodd" clip-rule="evenodd" fill="#E5E5E5" d="M17.5,15.7c-0.3-0.3-1.7-0.2-2.3-0.1c-0.2,0-0.2-0.1,0-0.3
			c1.1-0.8,3-0.6,3.2-0.3c0.2,0.3-0.1,2.1-1.1,3c-0.2,0.1-0.3,0.1-0.2-0.1C17.2,17.3,17.7,16,17.5,15.7z"/>
	</g>
	<g>
		<path fill-rule="evenodd" clip-rule="evenodd" fill="#E5E5E5" d="M11,8.5c0,1,0,1.8-0.5,2.6c-0.4,0.7-1,1.1-1.7,1.1
			c-1,0-1.5-0.7-1.5-1.8c0-2.1,1.9-2.5,3.7-2.5V8.5z M13.6,14.6c-0.2,0.1-0.4,0.2-0.6,0.1c-0.8-0.7-1-1-1.4-1.7
			c-1.4,1.4-2.3,1.8-4.1,1.8c-2.1,0-3.7-1.3-3.7-3.9c0-2,1.1-3.4,2.7-4.1C7.7,6.2,9.6,6.1,11,5.9V5.6c0-0.6,0-1.3-0.3-1.8
			c-0.3-0.5-0.9-0.6-1.4-0.6c-1,0-1.8,0.5-2,1.5c0,0.2-0.2,0.4-0.4,0.5L4.5,4.8C4.3,4.8,4,4.6,4.1,4.3c0.6-2.9,3.2-3.8,5.6-3.8
			c1.2,0,2.8,0.3,3.8,1.2c1.2,1.1,1.1,2.6,1.1,4.3v3.9c0,1.2,0.5,1.7,0.9,2.3c0.2,0.2,0.2,0.5,0,0.7C15,13.3,14.1,14.1,13.6,14.6
			L13.6,14.6z"/>
	</g>
</g>
</svg>
